<svg xmlns="http://www.w3.org/2000/svg" viewBox="0 0 969.19 533.56"><defs><style>.a{isolation:isolate;}.b{fill:#d36644;}.c{fill:#333;}.d{fill:#f0865f;}.e,.h,.i{fill:#964921;}.e{opacity:0.3;}.e,.h{mix-blend-mode:multiply;}.f{fill:#6e3525;}.g{fill:#b35c45;}.h{opacity:0.5;}.j{fill:#4e4e4e;}</style></defs><g class="a"><path class="b" d="M1892.78,1458l-11.07-25.82a37.65,37.65,0,0,0-8-11.83,37.77,37.77,0,0,1-8-11.82l-7.77-18.14a13.88,13.88,0,0,0-17.19-7.69c-2.54.86-10.78,7.79-12.45,9.89l-34,.18a220.63,220.63,0,0,1-25.44-1.33l-44.85-5a113.83,113.83,0,0,0-72.45,11.55l-.66.35-100.13-17s-27.47-44.52-84.3-13.26l36.94,86.19,139-5.72a58.6,58.6,0,0,0,29.35-10,58.76,58.76,0,0,1,29.16-10l86.35-5.6,51-2,52.88,52.12,1.13-2.16A15.14,15.14,0,0,0,1892.78,1458Z" transform="translate(-924.81 -1294.25)"/><path class="c" d="M1804.46,1392.74l-10.18,0a220.63,220.63,0,0,1-25.44-1.33l-44.85-5a113.83,113.83,0,0,0-72.45,11.55l-.66.35-100.13-17s-27.47-44.52-84.3-13.26l36.94,86.19,139-5.72a58.6,58.6,0,0,0,29.35-10,58.76,58.76,0,0,1,29.16-10l86.35-5.6,17.19-.68Z" transform="translate(-924.81 -1294.25)"/><path class="d" d="M1248.24,1373.35l-69.5,2-5.45,30.8,4.14,2.3,1.29,9.82,2.21-1.21a12.57,12.57,0,0,1,6.94-1.49c6.4.48,12.76,1.3,19.18,1.11l28.45-.88Z" transform="translate(-924.81 -1294.25)"/><path class="e" d="M1181.61,1386.27a20.62,20.62,0,0,0-4.46-1.94l-3.86,21.77,4.14,2.3,1.29,9.82,2.21-1.21a12.49,12.49,0,0,1,10.7-.6C1194.07,1408.85,1196.23,1394.48,1181.61,1386.27Z" transform="translate(-924.81 -1294.25)"/><path class="f" d="M1148.62,1371.48c14,13.82,35.33,14.92,47.62,2.46s10.9-33.76-3.11-47.58-35.33-14.92-47.62-2.46S1134.62,1357.66,1148.62,1371.48Z" transform="translate(-924.81 -1294.25)"/><path class="f" d="M1196.64,1387.11a11.82,11.82,0,0,1-1.57-.1c-3.9-.46-7.18-2.62-9.76-6.45a1.44,1.44,0,0,1,.39-2,1.42,1.42,0,0,1,2,.39c2.08,3.08,4.67,4.83,7.69,5.19,6.93.85,14.12-5.66,14.19-5.72a1.45,1.45,0,1,1,2,2.14C1211.24,1380.83,1204.29,1387.11,1196.64,1387.11Z" transform="translate(-924.81 -1294.25)"/><path class="f" d="M1197.26,1386.16h-.42c-4.08-.17-7.62-2.66-10.53-7.42a1.46,1.46,0,0,1,.49-2,1.49,1.49,0,0,1,2,.49c2.36,3.87,5.1,5.9,8.15,6h.32c6.88,0,13.54-9.06,13.61-9.15a1.45,1.45,0,0,1,2.35,1.7C1212.92,1376.24,1205.64,1386.16,1197.26,1386.16Z" transform="translate(-924.81 -1294.25)"/><path class="f" d="M1107.87,1373.2c9.26,14.92,32.85,17,52.69,4.71s28.41-34.39,19.15-49.3-32.85-17-52.69-4.72S1098.61,1358.28,1107.87,1373.2Z" transform="translate(-924.81 -1294.25)"/><path class="g" d="M1130,1327.8c18.11-11.25,39.32-10.43,49.93,1.15-.07-.11-.12-.23-.19-.35-9.26-14.91-32.85-17-52.69-4.71s-28.41,34.39-19.15,49.31a24.16,24.16,0,0,0,2.76,3.56C1101.71,1361.85,1110.28,1340,1130,1327.8Z" transform="translate(-924.81 -1294.25)"/><path class="f" d="M1158.06,1336.44c10.07,10,25.87,10.28,35.27.75s8.85-25.32-1.23-35.26-25.87-10.28-35.27-.75S1148,1326.5,1158.06,1336.44Z" transform="translate(-924.81 -1294.25)"/><path class="g" d="M1161.74,1336.31c-10.08-9.94-10.63-25.73-1.23-35.26a23.31,23.31,0,0,1,14.18-6.77,23.58,23.58,0,0,0-17.86,6.9c-9.4,9.53-8.85,25.32,1.23,35.26a26.07,26.07,0,0,0,21.09,7.51A26.28,26.28,0,0,1,1161.74,1336.31Z" transform="translate(-924.81 -1294.25)"/><path class="f" d="M1136.24,1377.84a31.69,31.69,0,0,1-4.88-.38,30.86,30.86,0,0,1-20.92-13.92,2.9,2.9,0,0,1,5-2.9c.06.09,5.58,9.35,16.89,11.09,11.13,1.76,24.14-4.08,38.62-17.22a2.9,2.9,0,0,1,3.9,4.3C1161,1371.46,1148,1377.84,1136.24,1377.84Z" transform="translate(-924.81 -1294.25)"/><path class="f" d="M1150.42,1359.69l6.06,2.65s11.46,4.4,19.47-5.53l-2.07-8.7-1.63-8.34-6.59-1.41-10.17,7.66-4.14,13" transform="translate(-924.81 -1294.25)"/><path class="d" d="M1125.06,1355.36s-8.78,16,4.69,33.63h0a11.4,11.4,0,0,1,2.18,5.19l2.16,14.49a2.81,2.81,0,0,0,1.69,2.16h0a2.79,2.79,0,0,0,2.77-.34l1.87-1.41a1.08,1.08,0,0,1,.85-.21l1,.18c.69.12,13.15,16.62,13.15,16.62a9.43,9.43,0,0,0,13.4,1.65l2.73-2.2a57.11,57.11,0,0,0,11.5-12.44l2.29-3.37a20.34,20.34,0,0,0,1.84-19.54l-3.52-8.11h0a25.63,25.63,0,0,0,1.3-40c-8.54-7.24-19.18-12.13-30.46-7.41C1154.47,1334.29,1134.43,1341.08,1125.06,1355.36Z" transform="translate(-924.81 -1294.25)"/><path class="e" d="M1143.19,1401.48a2.8,2.8,0,0,1-2,.85c-4.17.08-4.79,2.89-4.79,2.89-1.49,3.56-2.3,3.37-2.3,3.37s.07.11,0,.21a2.79,2.79,0,0,0,4.42,1.69l1.76-1.34c.06-.08.1-.12.11-.07a28.79,28.79,0,0,0,4.36-3.87c2.62-2.62-1-5.12-1-5.12A2.06,2.06,0,0,1,1143.19,1401.48Z" transform="translate(-924.81 -1294.25)"/><path class="f" d="M1139.77,1386.86c.73,1,.93,2.05.45,2.42s-1.47-.13-2.2-1.11-.93-2.05-.45-2.41S1139,1385.89,1139.77,1386.86Z" transform="translate(-924.81 -1294.25)"/><path class="f" d="M1139.47,1390.7l-.08.06a.24.24,0,0,1-.32-.06.22.22,0,0,1,.07-.32,2.16,2.16,0,0,0,.91-1.41,2.09,2.09,0,0,0-.81-1.67.22.22,0,0,1,0-.32.22.22,0,0,1,.32,0,2.55,2.55,0,0,1,1,2A2.52,2.52,0,0,1,1139.47,1390.7Z" transform="translate(-924.81 -1294.25)"/><path class="f" d="M1138.39,1407.69a5.2,5.2,0,0,1,1.43-1.73,4.35,4.35,0,0,1,2.07-.92,3.23,3.23,0,0,0,1.59-.82,2.56,2.56,0,0,0,.65-1.72.17.17,0,0,1,.17-.16.19.19,0,0,1,.15.11,2.6,2.6,0,0,1-.33,2.29,3,3,0,0,1-2.08,1.17,3.73,3.73,0,0,0-1.85.57,4.39,4.39,0,0,0-1.34,1.44v0a.26.26,0,1,1-.45-.25Z" transform="translate(-924.81 -1294.25)"/><ellipse class="f" cx="1144.95" cy="1340.31" rx="40.23" ry="28.56" transform="translate(-1459.51 -488.84) rotate(-31.83)"/><path class="g" d="M1112.89,1362c-8.31-13.38,1-34.16,20.7-46.41a59,59,0,0,1,16.26-7,52.73,52.73,0,0,0-20,7.46c-18.88,11.72-27.44,32.08-19.12,45.48,4.26,6.87,12.14,10.55,21.34,11C1123.75,1371.72,1116.75,1368.23,1112.89,1362Z" transform="translate(-924.81 -1294.25)"/><path class="f" d="M1134.4,1356.54s1.38,4.73,12.4,4c0,0,5.64.5,6.73,4.31,0,0,1.31,10.79,7.59,9.87,0,0,5.15-.21,5-3.75,0,0-2.06-9,5.5-10.71,0,0,7.72-2.23,11.47,8.31,0,0,2.08,5.43-.86,10.14,0,0,3.8,12.27,19.5,5.8,0,0,15.45-16.18-2.07-41.8a36.8,36.8,0,0,0-32.41-16.2c-7.31.43-15.93,2.85-25.49,9,0,0-12.28,7.49-10.72,16C1131,1351.54,1130.73,1353.45,1134.4,1356.54Z" transform="translate(-924.81 -1294.25)"/><path class="h" d="M1172.17,1364.1c-3.24,1-2.94,5.56-2.78,6.89,3.26-.33,6.79,3.17,8.13,8.27.12.44.18.89.26,1.33a3,3,0,0,0,.63-.12c2.28-.41,2.14-6.53,2.14-6.53C1180.85,1361.85,1172.17,1364.1,1172.17,1364.1Z" transform="translate(-924.81 -1294.25)"/><path class="i" d="M1180,1382.19a1.71,1.71,0,1,1-2.73,2.06,1.71,1.71,0,0,1,2.73-2.06Z" transform="translate(-924.81 -1294.25)"/><path class="d" d="M1512.2,1370.35s-36.79-20.19-69.94,16.75H1338.07l-11.52-4a233,233,0,0,0-83.48-12.66l-11.23.36a5.72,5.72,0,0,0-5.53,5.72v22.19a27.89,27.89,0,0,0,8.77,20.31l59.14,55.71a32.21,32.21,0,0,0,31.35,7.4l20.08-6,89.08-8.91a13.28,13.28,0,0,1,14.59,13.67l-6.82,125.72c-.3,8.9,1.31,17.69,3.76,26.26a76.13,76.13,0,0,1,2.89,23.93l-2,49.83h0l-5.78,85.67-68.73,28.08,1.54,1.89a15.12,15.12,0,0,0,11.69,5.53H1414a38.93,38.93,0,0,0,14.21-2.77,37.58,37.58,0,0,1,13.82-2.63h19.74a13.88,13.88,0,0,0,13.84-12.77c.21-2.68-2.92-13-4.19-15.34l.94-4.6h0l19.64-95.91a164.22,164.22,0,0,0-4.45-82.9l-1-3.05,29.54-83.39,11.49-73.69S1558.61,1384.55,1512.2,1370.35Z" transform="translate(-924.81 -1294.25)"/><path class="j" d="M1516.13,1364.37s-40.72-14.21-73.87,22.73h-19.53l-.1,81.33,12.1-1.21a13.28,13.28,0,0,1,14.59,13.67l-6.81,125.53a76.39,76.39,0,0,0,3.32,25,76.24,76.24,0,0,1,3.32,25.38l-2,49.83L1444,1754.3h35.64l12.39-60.52a164.23,164.23,0,0,0-4.45-82.9l-1-3.05,29.54-83.39,17-73.88S1562.54,1378.57,1516.13,1364.37Z" transform="translate(-924.81 -1294.25)"/><path class="j" d="M1348.9,1387.1h-10.83l-11.52-4a233,233,0,0,0-83.48-12.66l-11.23.36a5.72,5.72,0,0,0-5.53,5.72v22.19a27.89,27.89,0,0,0,8.77,20.31l59.14,55.71a32.21,32.21,0,0,0,31.35,7.4l20.08-6,9.76-1Z" transform="translate(-924.81 -1294.25)"/><polygon class="c" points="424.08 92.85 413.26 92.85 420.84 181.88 430.6 180.91 424.08 92.85"/><circle class="d" cx="1248.55" cy="1396.22" r="24.7" transform="translate(-1336.59 -764.98) rotate(-20.62)"/><path class="d" d="M1093.85,1399.33h0a19.66,19.66,0,0,1,18.84-20.33l129.5-4.94a19.66,19.66,0,0,1,20.34,18.84h0a19.66,19.66,0,0,1-18.84,20.33l-129.51,4.94A19.65,19.65,0,0,1,1093.85,1399.33Z" transform="translate(-924.81 -1294.25)"/><path class="e" d="M1243.69,1413.23a19.66,19.66,0,0,0,18.84-20.33h0a19.87,19.87,0,0,0-.32-2.71,19.67,19.67,0,0,1-18.47,15.85L1114.23,1411a19.68,19.68,0,0,1-20-16.13,19.56,19.56,0,0,0-.36,4.48h0a19.65,19.65,0,0,0,20.33,18.84Z" transform="translate(-924.81 -1294.25)"/><path class="d" d="M1113.65,1379.26l-105.12-5.67q-1-.25-2.1-.57l-4.66,18.54,102.33,25.72a19.66,19.66,0,0,0,23.79-14.23h0A19.67,19.67,0,0,0,1113.65,1379.26Z" transform="translate(-924.81 -1294.25)"/><path class="e" d="M1124.07,1410.59,1003.41,1385l-1.64,6.53,102.33,25.73C1110.16,1418.8,1117.68,1419.89,1124.07,1410.59Z" transform="translate(-924.81 -1294.25)"/><path class="d" d="M1006.08,1372.69l0,0c-10.72-3.22-28-10.89-42.11-11.51l-36.77,5a2.77,2.77,0,0,0-1.6,4.69c8.19,7.86,43.37,12.22,52.3,14.56l22.26,5.82c.18.06.34.15.53.2,4.84,1.26,9.86-1.93,11.22-7.13A9.43,9.43,0,0,0,1006.08,1372.69Z" transform="translate(-924.81 -1294.25)"/><path class="e" d="M1007.87,1373.53a10.08,10.08,0,0,1,.12,5.59c-1.36,5.2-6.38,8.4-11.21,7.13a4.81,4.81,0,0,1-.53-.2L974,1380.23c-8-2.09-37.24-5.85-49-12.3a2.64,2.64,0,0,0,.64,2.85c8.19,7.86,43.37,12.22,52.3,14.56l22.26,5.82c.18.06.34.15.53.2,4.84,1.26,9.86-1.93,11.22-7.13A9.59,9.59,0,0,0,1007.87,1373.53Z" transform="translate(-924.81 -1294.25)"/></g></svg>