<svg xmlns="http://www.w3.org/2000/svg" viewBox="0 0 408.42 218.95"><defs><style>.a{fill:#cd9d78;}.b,.j{fill:#fff;}.c{fill:#717375;}.d,.f{fill:#0d0b42;}.e,.h{fill:#252b67;}.e,.f,.g,.j,.k,.l,.m{fill-rule:evenodd;}.g,.i{fill:#404fa2;}.k{fill:#231f20;}.l{fill:#bcbec0;}.m{fill:#d1d3d4;}.n{fill:#d3d5d6;}.o{fill:#abadb0;}.p{fill:#121248;}.q{fill:#d1a07a;}.r{opacity:0.26;}.s{fill:#e4ae84;}.t{fill:#511d06;}.u{fill:#502919;}.v{fill:#e6e7e8;}.w{fill:#20245e;}.x{fill:#333d83;}</style></defs><path class="a" d="M1218.92,2661c-3.89-.58-3.72-20.38,3.06-21.82,14-1.62,78-5.05,96.28,2.57,0,0,20.44,21.91-10.27,28.49-22.59,4.85-53.36-3.2-65.17-4.11C1236.26,2665.64,1225.32,2662.72,1218.92,2661Z" transform="translate(-1090.69 -2475.29)"/><path class="a" d="M1242.93,2635.54a100.09,100.09,0,0,0-18.81.94c-8.36,1.46-7.42,3.2-11.26,6.05s.53,4.84.53,4.84,16.58-1.07,17-1.24S1242.93,2635.54,1242.93,2635.54Z" transform="translate(-1090.69 -2475.29)"/><path class="a" d="M1232,2662.25c-2.26.37-24.74,3.95-27.5,5.5-8.72,4.91-29.42,8-44.59,4.34-12.73-3.08-34.44-4.43-34.44-4.43l-6.94-14.53s24.92-3.2,53.36-6.8c20.75-2.63,36.44-7.16,46-7.88C1221.4,2639.54,1234.32,2660.66,1232,2662.25Z" transform="translate(-1090.69 -2475.29)"/><path class="b" d="M1119.21,2652.47l13-1.06s-4.61,10.92-1.63,16.92l-7.08-.12S1116.85,2667.41,1119.21,2652.47Z" transform="translate(-1090.69 -2475.29)"/><path class="a" d="M1245.59,2656.47a99.49,99.49,0,0,0-10.8-15.43c-5.69-6.3-7.9-4.86-12.66-5.24-6.16-.5-16.67,9.68-16.67,9.68s24.13,5.75,24.5,6S1245.59,2656.47,1245.59,2656.47Z" transform="translate(-1090.69 -2475.29)"/><path class="c" d="M1112.1,2680.6c-2.55.6-5.13.77-8.46-14.31-1.21-5.47-2-12-4.93-21.07-4.26-13.49-4-22.2-3.14-27,.69-3.95,1.53-7.35,2.51-7.65l.44-.11c-.51.11-1,.23-1.32.32-1,.3-1.81,3.7-2.5,7.65-.83,4.8-.86,13.2,2.83,26.84,2.53,9.35,4,15.76,5.24,21.23,3.43,15.54,6.07,14.9,8.7,14.25Z" transform="translate(-1090.69 -2475.29)"/><path class="d" d="M1137.28,2672.59c.1-.59-.61-1.09-1.83-1.33a8.28,8.28,0,0,0-4,.27l0,.07a5.67,5.67,0,0,0-2.2.19l.22.75a6.43,6.43,0,0,1,3.8.24,15.45,15.45,0,0,0,2,.44C1137,2673.45,1137.24,2672.86,1137.28,2672.59Zm-1.88-.14a13.3,13.3,0,0,1-1.86-.42l-.3-.08a7.29,7.29,0,0,1,2.06.07,3,3,0,0,1,1.14.42A2.51,2.51,0,0,1,1135.4,2672.45Z" transform="translate(-1090.69 -2475.29)"/><path class="e" d="M1109.49,2666.54c-.8-3.17-2.12-5.6-3.89-10.12a138.51,138.51,0,0,1-5.62-16.78,131.22,131.22,0,0,1-2.41-16.78,44.82,44.82,0,0,1,.75-11.73l1.48-.74a4.9,4.9,0,0,1,2.38,1.18c1,1,2.18,3.36,5.86,9.7,4.71,8.11,6.63,10.66,10.94,14.3s8.54,8.36,8.44,9.95-1.3,4.57-1.84,10.16c-1.06,11-2.31,5.56,2.12,12.38,2,3.08,6.1,2.29,5.29,2.75a9.86,9.86,0,0,0-5.34,2.87c-2.49,2.89-7.27,4.64-12.62,5.22C1112.36,2676,1110.28,2669.62,1109.49,2666.54Z" transform="translate(-1090.69 -2475.29)"/><path class="f" d="M1132.6,2651.56c1.21-1.37,2.77-1.56,3.6-3.36.45-1-.83-2.81-5.83-4.52-4.33-1.47-8.31-5.41-8.31-5.41l.07.24a53.43,53.43,0,0,1-8.94-10l-1,.78c4.67,5.93,9.26,11.15,12.56,14.8,1,1.67.61,4.69,1.47,5.68C1128.81,2652.77,1131.82,2652.44,1132.6,2651.56Z" transform="translate(-1090.69 -2475.29)"/><path class="g" d="M1099.36,2611.6a2.42,2.42,0,0,0-1.49,2.18c0,.28-.07.58-.11.89v0c0,.31-.07.64-.1,1v0c0,.34-.06.69-.08,1.06a0,0,0,0,1,0,0l-.06,1.09v.08c0,.37,0,.75,0,1.14v0c0,.39,0,.78,0,1.18v.09c0,.37,0,.76,0,1.14a.31.31,0,0,0,0,.1c0,.41,0,.82.07,1.22a96.09,96.09,0,0,0,8,33.56c1.44,3.56,6.2,20,8.87,22.86.44-.05,2-.69,2.4-.74a33.13,33.13,0,0,1-2.82-2.59c-3.45-4.31-7.29-19.36-9.32-24.41a74.87,74.87,0,0,1-5.35-32s.79-7.1,4.19-2.89c3,3.64,8.61,12.59,8.61,12.59l1.27-.35c-9.12-12.66-6.52-14.12-9.52-17.05-.48-.46-2.29-1.75-3.59-1.43C1100.38,2610.69,1100.13,2611.26,1099.36,2611.6Z" transform="translate(-1090.69 -2475.29)"/><path class="h" d="M1116.53,2678.71c5-.65,8.76-2.29,11.12-5a4.26,4.26,0,0,1,.35-.38c-.29-.69-.94-.94-2.32.36-2.45,2.3-7.69,4-9.6,4.5A3,3,0,0,1,1116.53,2678.71Z" transform="translate(-1090.69 -2475.29)"/><path class="g" d="M1108.89,2629.08s4.63,2.33,2.59-2.11c-.74-1.62-8.56-14.72-10.58-13.1-1.31,1.06-1.52.68-2.24,4s1.07,17.92,1.21,15.16c.3-6,2.79-5.48,6.58-2.55a36.46,36.46,0,0,1,4.9,4.26Z" transform="translate(-1090.69 -2475.29)"/><path class="i" d="M1110.68,2633.2s-7.78,17.16-10.12,5c0,0,1.22,8.82,3.14,10.34s6.89-1.93,11-10.68Z" transform="translate(-1090.69 -2475.29)"/><path class="i" d="M1116.29,2638.94s-9.19,18.1-12.81,9.67c0,0,1.17,6.79,3.29,8,4.32,2.44,9.43-4.23,13.51-13Z" transform="translate(-1090.69 -2475.29)"/><path class="i" d="M1121.41,2644.9s-10.84,21.55-15.14,12.26c0,0,1.43,8.48,3.56,9.68,2.69,1.52,9.4-10.33,15.75-1.22,1.27,1.83-1.52-13.94,0-17.23Z" transform="translate(-1090.69 -2475.29)"/><path class="e" d="M1126.48,2674.82a10.5,10.5,0,0,0,1.17-1.14,3,3,0,0,1,.24-.26,14.37,14.37,0,0,1,5-2c5.59-1.11,2-3.1,1.07-3.14-2-.09-6.23.79-7.62-7.36a26.25,26.25,0,0,1,1-13.1c.91-2.56.71-3.51.56-3.79-2.7-3.45-4.15-3.67-7.57-6.37a72.56,72.56,0,0,1-10.23-11.55,5.76,5.76,0,0,0-.6,6.25h0l.19.34h0c.08.12.16.23.24.36l0,.07a2.73,2.73,0,0,0,.21.3c.1.13.2.26.31.38,3.6,4.3,10.48,11,12,12.66s1.73,5.75,1.45,8.75c-.79,8.76,1.83,9.46,1.3,14.95-.18,1.9-1.93,4.68-6.13,7.33-.07.05,4.07-1.06,4.07-1s2.47-2.57,2.47-2.55a.55.55,0,0,0,0,.17s0,0,0,0a.82.82,0,0,0,.12.2l0,0a.88.88,0,0,0,.17.16s0,0,0,0h0A2.34,2.34,0,0,0,1126.48,2674.82Z" transform="translate(-1090.69 -2475.29)"/><path class="j" d="M1125.93,2645.25a.79.79,0,0,0-.59,1,.81.81,0,0,0,1,.59.79.79,0,0,0,.58-1A.78.78,0,0,0,1125.93,2645.25Z" transform="translate(-1090.69 -2475.29)"/><path class="k" d="M1126,2645.41a.63.63,0,1,0,.76.46A.63.63,0,0,0,1126,2645.41Z" transform="translate(-1090.69 -2475.29)"/><path class="l" d="M1125.36,2645.78s-1-3.59.35-4.58c0,0,.94-.08.68.52-.72,1.67-.15,2.05.34,4.15C1126.73,2645.87,1125.88,2646.9,1125.36,2645.78Z" transform="translate(-1090.69 -2475.29)"/><path class="j" d="M1121.46,2641.87a.8.8,0,0,0-.69.89.8.8,0,1,0,1.59-.2A.8.8,0,0,0,1121.46,2641.87Z" transform="translate(-1090.69 -2475.29)"/><path class="k" d="M1121.48,2642a.62.62,0,0,0-.54.71.63.63,0,0,0,.7.55.64.64,0,0,0-.16-1.26Z" transform="translate(-1090.69 -2475.29)"/><path class="l" d="M1120.84,2642.34s-.56-3.68.85-4.51c0,0,.94,0,.62.58-.9,1.58-.38,2-.12,4.17C1122.19,2642.58,1121.23,2643.52,1120.84,2642.34Z" transform="translate(-1090.69 -2475.29)"/><path class="j" d="M1117.59,2638.19a.8.8,0,0,0,0,1.6.79.79,0,0,0,.79-.81A.8.8,0,0,0,1117.59,2638.19Z" transform="translate(-1090.69 -2475.29)"/><path class="k" d="M1117.6,2638.36a.63.63,0,0,0-.63.64.62.62,0,0,0,.64.62.63.63,0,1,0,0-1.26Z" transform="translate(-1090.69 -2475.29)"/><path class="l" d="M1116.92,2638.58s-.15-3.58,1.35-4.25c0,0,.94.13.54.67-1.08,1.45-.58,1.82-.57,4C1118.24,2639,1117.17,2639.8,1116.92,2638.58Z" transform="translate(-1090.69 -2475.29)"/><path class="j" d="M1114.08,2634.15a.8.8,0,1,0,.65.92A.8.8,0,0,0,1114.08,2634.15Z" transform="translate(-1090.69 -2475.29)"/><path class="k" d="M1114.05,2634.32a.63.63,0,1,0,.52.72A.61.61,0,0,0,1114.05,2634.32Z" transform="translate(-1090.69 -2475.29)"/><path class="l" d="M1113.35,2634.41s.23-3.2,1.83-3.6c0,0,.9.29.42.75-1.32,1.25-.66,1.35-1,3.48C1114.57,2635,1113.38,2635.66,1113.35,2634.41Z" transform="translate(-1090.69 -2475.29)"/><path class="j" d="M1123.81,2643.75a.8.8,0,1,0,1,.59A.8.8,0,0,0,1123.81,2643.75Z" transform="translate(-1090.69 -2475.29)"/><path class="k" d="M1123.85,2643.92a.62.62,0,0,0-.46.76.63.63,0,1,0,1.22-.3A.62.62,0,0,0,1123.85,2643.92Z" transform="translate(-1090.69 -2475.29)"/><path class="j" d="M1127.07,2642.45s-1-2.24-2.72.18c-1,1.51-.71,1.86-.4,2s.56.32,1-.83C1125.4,2642.39,1126.84,2642,1127.07,2642.45Z" transform="translate(-1090.69 -2475.29)"/><path class="j" d="M1119.52,2640.16a.8.8,0,1,0,.21,1.58.81.81,0,0,0,.69-.9A.79.79,0,0,0,1119.52,2640.16Z" transform="translate(-1090.69 -2475.29)"/><path class="k" d="M1119.54,2640.32a.62.62,0,0,0-.54.71.63.63,0,0,0,.71.55.64.64,0,0,0,.54-.72A.63.63,0,0,0,1119.54,2640.32Z" transform="translate(-1090.69 -2475.29)"/><path class="j" d="M1123.05,2639.18s-.94-2.31-2.87-.09c-1.2,1.39-.91,1.77-.61,1.91s.51.38,1-.71C1121.25,2639,1122.88,2638.67,1123.05,2639.18Z" transform="translate(-1090.69 -2475.29)"/><path class="j" d="M1115.87,2636.26a.8.8,0,0,0-.79.8.8.8,0,1,0,1.6,0A.8.8,0,0,0,1115.87,2636.26Z" transform="translate(-1090.69 -2475.29)"/><path class="k" d="M1115.88,2636.42a.64.64,0,0,0,0,1.27.63.63,0,0,0,.62-.64A.63.63,0,0,0,1115.88,2636.42Z" transform="translate(-1090.69 -2475.29)"/><path class="j" d="M1119.31,2635.85s-.47-2.54-2.65-.57c-1.37,1.24-1.12,1.65-.84,1.82s.47.44,1.12-.58C1117.73,2635.28,1119.2,2635.33,1119.31,2635.85Z" transform="translate(-1090.69 -2475.29)"/><path class="j" d="M1112.71,2632a.8.8,0,1,0,.66.92A.79.79,0,0,0,1112.71,2632Z" transform="translate(-1090.69 -2475.29)"/><path class="k" d="M1112.68,2632.11a.63.63,0,0,0-.2,1.25.63.63,0,1,0,.2-1.25Z" transform="translate(-1090.69 -2475.29)"/><path class="j" d="M1116.18,2632.42s0-2.87-2.52-1.3c-1.56,1-1.39,1.43-1.14,1.65s.38.51,1.2-.38C1114.71,2631.31,1116.17,2631.9,1116.18,2632.42Z" transform="translate(-1090.69 -2475.29)"/><path class="l" d="M1126.6,2642.64s4.58,6.57,7.52,3.51-5.16-3.9-7.16-3.77l.19.44s5.2.23,6.22,1.63-.37,1.77-1.08,1.56a12.15,12.15,0,0,1-4.76-2.49c-.13-.11-.28-.74-.41-.86S1126.78,2642.83,1126.6,2642.64Z" transform="translate(-1090.69 -2475.29)"/><path class="l" d="M1127.8,2643.15s5.37.29,6.64-2.6-.7-4.17-4.27-1l-3.57,3.13.61.38a28.68,28.68,0,0,1,3.92-3.26c1.49-.88,3.14-1.66,2.71-.33s-.92,2.25-3.52,2.84c-1.25.28-2.41.22-2.94.35s-.44.48-.44.48Z" transform="translate(-1090.69 -2475.29)"/><path class="m" d="M1126.77,2642.24a8.24,8.24,0,0,1-1.29-2.55,5.87,5.87,0,0,0-3.28-3.07c-.16.05-.37-.46-.37-.46s.21-.43,1.11-.28,2.6.57,3.21,3.46,1.25,3.57,1.25,3.57S1127.07,2643.82,1126.77,2642.24Z" transform="translate(-1090.69 -2475.29)"/><path class="m" d="M1127.54,2643.12a36.09,36.09,0,0,1-3-3.45c-.92-1.34-3.11-2.68-3.41-3.54s-.93-.44-.93-.44-.22.6,2.32,2.62,2.78,3.23,3.52,3.92S1127,2643.3,1127.54,2643.12Z" transform="translate(-1090.69 -2475.29)"/><path class="n" d="M1114.38,2679.77a15.18,15.18,0,0,1,2.49-1.23,73.91,73.91,0,0,1-10.34-21.73c-1.33-4.66-4.09-12.06-5.39-17.51a137.11,137.11,0,0,1-2.84-16.24,48.9,48.9,0,0,1,.19-9.26,2.29,2.29,0,0,1,1.91-2c1.32-.31,2.52-1,1-1.47-.93-.31-3.15.21-3.76.37-1,.3-1.81,3.7-2.5,7.65-.84,4.8-.84,13.33,2.86,27,2.52,9.31,4,15.62,5.2,21.09,3.44,15.54,6.08,14.89,8.7,14.25A10.68,10.68,0,0,0,1114.38,2679.77Z" transform="translate(-1090.69 -2475.29)"/><path class="o" d="M1111.88,2676.49s-4.79-9.08-5.82-13.26c-1.6-6.53-2-2.09-1,4.81C1106.69,2679.68,1113.13,2680.67,1111.88,2676.49Z" transform="translate(-1090.69 -2475.29)"/><path class="o" d="M1096.76,2636.32s-2.92-11.55-.66-20.19c0,0,.34,4.7.57,8C1097.49,2636.15,1100.44,2637,1096.76,2636.32Z" transform="translate(-1090.69 -2475.29)"/><path class="p" d="M1363.05,2672.13s-31.21,29-80.41,6.85c-25.84-11.64-44.53-6.93-44.53-6.93l-2.12-37.92s62.86,5.64,87.34.81C1337.88,2632.06,1363.05,2672.13,1363.05,2672.13Z" transform="translate(-1090.69 -2475.29)"/><path class="q" d="M1367.66,2540.67c-2.82-1.58-4.38-1-6.05-3.92-2.8-4.82-17-19.26-25.83-25.11s-16.57-12.28-16.57-12.28l-5,6.72s5.73,7.57,14.58,19.3,17.76,18.55,25.17,22.13C1356.75,2548.62,1368.48,2542.75,1367.66,2540.67Z" transform="translate(-1090.69 -2475.29)"/><path class="q" d="M1357.66,2542.59c.66.95,4.41-4.5,4.41-4.5s27.77,12.19,31.5,19.09c0,0,17.46,7.58,22.15,13.54,19.79,9.22,18.89,22.82,10.26,31.63-8.13,8.28-20.65,1.68-29-8.66-10-12.37-12.6-14.13-18.26-17.87-7.63-5-27.12-28-29.34-31.17C1352.82,2540.31,1352.45,2544.5,1357.66,2542.59Z" transform="translate(-1090.69 -2475.29)"/><g class="r"><path class="q" d="M1393.64,2586.37c-1.3-2.55-2.74-5-4.14-7.44-.71-1.23-1.4-2.46-2.08-3.7s-1.33-2.48-1.94-3.78a18.38,18.38,0,0,0,1.3,4.09,39.36,39.36,0,0,0,1.93,3.84c.72,1.24,1.47,2.45,2.29,3.62A34.34,34.34,0,0,0,1393.64,2586.37Z" transform="translate(-1090.69 -2475.29)"/><path class="q" d="M1361.37,2557.33a15.46,15.46,0,0,0,.22-2.83v-1.37c0-.46,0-.9.05-1.41a2.91,2.91,0,0,0-.76,1.3,5.26,5.26,0,0,0-.2,1.47,6.47,6.47,0,0,0,.16,1.46A4.75,4.75,0,0,0,1361.37,2557.33Z" transform="translate(-1090.69 -2475.29)"/></g><path class="q" d="M1319.78,2500.32s-1.6-3.73-13.25-12.92l-12.75-11.5a2.35,2.35,0,0,0-3.14,3.49l.56.5a2.32,2.32,0,0,0,.75,2l13.7,12.36c.35.41,0,.32-1.73-.92l.1.2-1.87-1.35a2.34,2.34,0,0,0-2.73,3.81l15.54,11.26a11.39,11.39,0,0,1,1.79,1.9c1.57,2.21,5.49-1.23,5.49-1.23Z" transform="translate(-1090.69 -2475.29)"/><path class="s" d="M1341.19,2633.57c.79,1.72.71-5.35,1.66-3.71,2.41,4.2,4.54,8.55,6.76,12.84,4.17,8.08,8.68,16,14.61,22.91,5-6.85,10.65-14,26.75-22.72,28-15.09,40.47-22.93,52.23-52.48,2.73-6.87-13.79-16.48-13.79-16.48a93.29,93.29,0,0,1-15,1.4c-19.44.57-32.91,8.73-35.73,18.64-1.44,5.08-13.41,24.3-19,28.37C1351.84,2628,1346.57,2629.31,1341.19,2633.57Z" transform="translate(-1090.69 -2475.29)"/><g class="r"><path class="t" d="M1363.47,2622.93a14.32,14.32,0,0,1-2.61-1.87,10.12,10.12,0,0,1-1.95-2.44,17.94,17.94,0,0,1-1.3-3.13,6.52,6.52,0,0,0,0,3.66,7.11,7.11,0,0,0,2,3.19,8.38,8.38,0,0,0,3.25,1.84,8,8,0,0,0,3.62.29C1365.45,2624,1364.43,2623.47,1363.47,2622.93Z" transform="translate(-1090.69 -2475.29)"/><path class="t" d="M1360.68,2628.08c-1-.49-1.88-.94-2.73-1.45a13,13,0,0,1-2.3-1.67,8.92,8.92,0,0,1-1.74-2.15,17.76,17.76,0,0,1-1.24-2.77,5.62,5.62,0,0,0,0,3.3,6.38,6.38,0,0,0,1.82,2.91,7.7,7.7,0,0,0,3,1.64A6.69,6.69,0,0,0,1360.68,2628.08Z" transform="translate(-1090.69 -2475.29)"/><path class="t" d="M1349.83,2629.27a8.24,8.24,0,0,1-1.24-1.44,19.42,19.42,0,0,1-1.07-1.93,3.73,3.73,0,0,0-.19,2.45,4.39,4.39,0,0,0,1.32,2.2,5.12,5.12,0,0,0,2.21,1.18,4.49,4.49,0,0,0,2.44,0c-.69-.45-1.32-.83-1.9-1.22A12.23,12.23,0,0,1,1349.83,2629.27Z" transform="translate(-1090.69 -2475.29)"/><path class="t" d="M1407.33,2616.34a18.58,18.58,0,0,1,1.57-1.2,28.5,28.5,0,0,1,3.08-1.8,23.65,23.65,0,0,0-3-.36c-.38.21-.77.44-1.14.68a20.07,20.07,0,0,0-1.73,1.22c-.55.42-1.09.94-1.56,1.33a8,8,0,0,1-3.37,1.63,9.37,9.37,0,0,1-3.94-.06,18.91,18.91,0,0,1-7.77-4,31,31,0,0,1-6.28-6.84,24.2,24.2,0,0,1-3.76-8.4,13.78,13.78,0,0,1-.25-4.42,10.39,10.39,0,0,1,1.32-4,9.22,9.22,0,0,0-1.83,3.83,13.34,13.34,0,0,0-.13,4.6,23.67,23.67,0,0,0,3.49,9.1,31.79,31.79,0,0,0,6.5,7.52,21,21,0,0,0,8.63,4.51,11,11,0,0,0,4.65,0,9,9,0,0,0,4-2C1406.39,2617.22,1406.81,2616.77,1407.33,2616.34Z" transform="translate(-1090.69 -2475.29)"/><path class="t" d="M1374.86,2624.81a11.23,11.23,0,0,0,1.15,3,20.48,20.48,0,0,1-.31-3.1c-.06-1-.06-2.07-.07-3.1,0-2.06,0-4.12.11-6.19a29.56,29.56,0,0,0-.39-6.36,16.91,16.91,0,0,0-.87-3.11,9.78,9.78,0,0,0-.72-1.45,4.23,4.23,0,0,0-1-1.23,5.85,5.85,0,0,1,.59,1.42,13,13,0,0,1,.34,1.5,28.06,28.06,0,0,1,.33,3c.12,2,.09,4.08,0,6.15a41.91,41.91,0,0,0,.27,6.33A25.75,25.75,0,0,0,1374.86,2624.81Z" transform="translate(-1090.69 -2475.29)"/><path class="t" d="M1382.18,2617.82a22.35,22.35,0,0,1-1.53-3.14,7.28,7.28,0,0,0,.28,3.72,8.39,8.39,0,0,0,2.06,3.22,9.28,9.28,0,0,0,3.19,2.05,8.17,8.17,0,0,0,3.65.6c-1.08-.59-2.09-1.18-3-1.81a18.29,18.29,0,0,1-2.59-2.08A12.93,12.93,0,0,1,1382.18,2617.82Z" transform="translate(-1090.69 -2475.29)"/></g><path class="s" d="M1435.08,2568.76s-6,7.86-12.75,7,14.83,21.62,17.06,19.94,11.87-10.72,16.57-11.79C1456,2583.91,1441.66,2578,1435.08,2568.76Z" transform="translate(-1090.69 -2475.29)"/><path class="s" d="M1478.25,2576.45c-11.89,9-17.33,16.27-32.7,3.11-5.52-4.72-13.19-11-15.92-13.76-4.62-4.65.07-11.37,11.65-24,9.29-10.08,24.78-16.07,24.78-16.07,8.39.08,16.59,11.59,21.62,18.26C1497,2556.36,1492.38,2565.77,1478.25,2576.45Z" transform="translate(-1090.69 -2475.29)"/><path class="s" d="M1453.55,2532.93s-14,8.24-15.47,8.61-3.63,1.35-1.07,4.64,4.69,3.17,4.69,3.17Z" transform="translate(-1090.69 -2475.29)"/><path class="u" d="M1461,2561s-13.66,9.25-21,3c-.72-.61-2.66.27-3.66.15-7.7-.84-6.08-7.53-6.08-7.53l-.48-.54a11.05,11.05,0,0,0-1.58,2.84c-1,2.19-1.54,3.4-.42,4.6,11.68,13.67,19.83,13.41,22.16,12.8C1453.82,2575.37,1467.07,2557.88,1461,2561Z" transform="translate(-1090.69 -2475.29)"/><path class="u" d="M1442.65,2555.87c-2.29-2.68-5.89-8.3-8.12-7.09a3.12,3.12,0,0,0-1.47,2.56,58.1,58.1,0,0,0,4.85,4.8c1.78,1.57,1,4.44-1.67,6.48s-1.42,2.22-3.35,1-.81,1.66-.81,1.66l4.59,1S1446.19,2560,1442.65,2555.87Z" transform="translate(-1090.69 -2475.29)"/><path class="u" d="M1447.36,2570.27a17.07,17.07,0,0,0,3-.42l.67-.25C1448.6,2570.14,1447.36,2570.27,1447.36,2570.27Z" transform="translate(-1090.69 -2475.29)"/><path class="u" d="M1479.52,2558.61a22.84,22.84,0,0,0,3.61-4.21c1.27-1.85,1.87-6.37,2.7-9.09.13-.32.25-.65.35-1h0a4.81,4.81,0,0,0,.32-1.32,12.26,12.26,0,0,0-.83-6.66c-.08-.23-.17-.45-.25-.68s-.12-.72-.16-1.09a12.93,12.93,0,0,0-1.52-4.32,63.56,63.56,0,0,0-2.15-7.13,10.26,10.26,0,0,0-3.95-2.9,12.59,12.59,0,0,0-4.37-.86,11.64,11.64,0,0,0-4.81.48,17.5,17.5,0,0,0-4.1,2.44,32.64,32.64,0,0,0-3.6,3.93c-1,1.09-2.49,1.61-3.13,3.07a10.58,10.58,0,0,0-.47,1.32c.12.53.29,1.13.5,1.85.86,2.79,2.06,3.05,4.11,3.82a12.73,12.73,0,0,0,2,1.21,28.31,28.31,0,0,1,3.36,1.91c11.22,11.21-9.89,23.55-12.53,25s-4.88,4.24-1.3,2.65c.21-.1,0,1.05,1.57.13,0,0,0-.07,0,0-.83,1.55-2.82,2.34-4.55,2.74l-2.61,1a76.9,76.9,0,0,0,9.56-1.49c3.55-.84,13.5-5.38,17.38-7.58C1477.34,2560.68,1478.63,2559.89,1479.52,2558.61Z" transform="translate(-1090.69 -2475.29)"/><path class="u" d="M1481.6,2523.12a28.81,28.81,0,0,1,6.18,7.44c2.37,4.31,3.64,3.44,5.58,6a34,34,0,0,1,4.9,11.21c2.74,12.67-2,16.08-3.06,19s-3.82,8.54-6.85,9.64-4.37.92-7.21,4.25-2.68,1.76-6.2,2.62-2.78,1.64-5.7,2.51-2.51,1.86-4.94,1.34-2.2.33-4,.32-1.8.72-3.6-.28-10.16-3.59-9.45-10c.85-7.8,4.63-7.11,4.83-7.91s10.38-5.82,10.38-5.82,7.28-3,7.8-3.67,4.91-3.54,6.09-5.92,3.35-18,3.31-18.65S1481.6,2523.12,1481.6,2523.12Z" transform="translate(-1090.69 -2475.29)"/><path class="v" d="M1440.52,2602.63c.67-3.43-4.25-13.4-6.39-15.9a14.29,14.29,0,0,0-2.3-2.39c-5.1-5.21-25-8.46-28.44-7.77-13.42,2.72-22.43,9.5-24.68,17.4-1.44,5.08-17.61,17.77-22.72,22.47-4.93,4.54-25.86,13.55-27.93,14.37-6.22,6.66-13.76,23.33-10,27.48,4.81,7.82,20.89,19.5,20.89,19.5,5.7-.31,44.14-6.9,60.63-20C1438.18,2627.18,1437.26,2619.17,1440.52,2602.63Zm-46.63,10c-8.14-12.3,18.12-34.78,35.31-22.29C1440.25,2604,1413.39,2630.94,1393.89,2612.68Z" transform="translate(-1090.69 -2475.29)"/><path class="s" d="M1365.83,2546.77c-2.83-1.58-4.38-1-6-3.92-2.8-4.83-17-19.25-25.83-25.11s-16.56-12.28-16.56-12.28l-5,6.72s5.73,7.57,14.58,19.3,17.76,18.54,25.17,22.13C1354.92,2554.72,1366.65,2548.85,1365.83,2546.77Z" transform="translate(-1090.69 -2475.29)"/><path class="s" d="M1355.83,2548.69c.66.95,4.41-4.5,4.41-4.5s27.78,12.19,31.5,19.09c0,0,17.46,7.58,22.15,13.54,19.79,9.21,18.89,22.82,10.26,31.62-8.13,8.29-20.65,1.69-29-8.65-10-12.37-12.59-14.13-18.26-17.87-7.63-5-27.11-28-29.34-31.17C1351,2546.4,1350.62,2550.6,1355.83,2548.69Z" transform="translate(-1090.69 -2475.29)"/><g class="r"><path class="t" d="M1391.81,2592.47c-1.3-2.54-2.74-5-4.14-7.45-.71-1.22-1.4-2.45-2.08-3.69s-1.34-2.48-1.95-3.78a18.76,18.76,0,0,0,1.31,4.09,41.74,41.74,0,0,0,1.93,3.84c.72,1.23,1.48,2.45,2.3,3.62A33.92,33.92,0,0,0,1391.81,2592.47Z" transform="translate(-1090.69 -2475.29)"/><path class="t" d="M1359.55,2563.43a14.59,14.59,0,0,0,.21-2.83v-1.37c0-.45,0-.9,0-1.41a2.8,2.8,0,0,0-.75,1.3,5,5,0,0,0-.21,1.47,6.47,6.47,0,0,0,.16,1.46A4.51,4.51,0,0,0,1359.55,2563.43Z" transform="translate(-1090.69 -2475.29)"/></g><path class="s" d="M1318,2506.43s-1.6-3.74-13.25-12.93L1292,2482a2.35,2.35,0,1,0-3.15,3.48l.56.51a2.35,2.35,0,0,0,.75,2l13.7,12.36c.35.41.06.32-1.74-.92l.11.2-1.87-1.35a2.34,2.34,0,0,0-2.73,3.81l15.54,11.26a11.42,11.42,0,0,1,1.79,1.9c1.57,2.21,5.49-1.23,5.49-1.23Z" transform="translate(-1090.69 -2475.29)"/><path class="v" d="M1442.68,2593s-5.87,9.09-6.68,11.72-16.35,18.79-16.35,18.79l12-6.2S1441.93,2603.58,1442.68,2593Z" transform="translate(-1090.69 -2475.29)"/><path class="s" d="M1215.37,2667.93c-3.9-.59-3.73-20.38,3.06-21.83,14-1.62,88.39-15.1,96.27,2.58,0,0,20.45,21.91-10.27,28.49-22.59,4.84-53.35-3.2-65.17-4.11C1232.71,2672.56,1221.77,2669.64,1215.37,2667.93Z" transform="translate(-1090.69 -2475.29)"/><path class="s" d="M1239.37,2642.46a100.63,100.63,0,0,0-18.81.93c-8.36,1.47-7.42,3.21-11.25,6.05s.53,4.84.53,4.84,16.58-1.06,17-1.23S1239.37,2642.46,1239.37,2642.46Z" transform="translate(-1090.69 -2475.29)"/><path class="s" d="M1228.41,2669.16c-2.26.37-24.74,4-27.51,5.5-8.71,4.92-29.41,8-44.59,4.35-12.73-3.08-34.44-4.44-34.44-4.44l-6.94-14.53s24.92-3.2,53.36-6.8c20.76-2.62,36.44-7.15,46-7.88C1217.84,2646.45,1230.76,2667.57,1228.41,2669.16Z" transform="translate(-1090.69 -2475.29)"/><path class="b" d="M1115.65,2659.39l13-1.06s-4.62,10.92-1.64,16.91l-7.07-.12S1113.3,2674.32,1115.65,2659.39Z" transform="translate(-1090.69 -2475.29)"/><path class="s" d="M1242,2663.38a99.63,99.63,0,0,0-10.8-15.42c-5.7-6.3-7.91-4.86-12.67-5.25-6.15-.5-16.67,9.68-16.67,9.68s24.13,5.76,24.5,6S1242,2663.38,1242,2663.38Z" transform="translate(-1090.69 -2475.29)"/><path class="c" d="M1108.55,2687.51c-2.55.61-5.13.77-8.47-14.31-1.21-5.47-2-12-4.92-21.07-4.27-13.48-4-22.19-3.15-27,.69-4,1.54-7.35,2.51-7.64l.44-.11c-.51.1-1,.23-1.31.31-1,.3-1.82,3.7-2.5,7.66-.84,4.8-.87,13.19,2.82,26.84,2.53,9.34,4,15.76,5.24,21.22,3.43,15.55,6.07,14.9,8.7,14.26Z" transform="translate(-1090.69 -2475.29)"/><path class="d" d="M1133.73,2679.51c.09-.59-.61-1.1-1.84-1.33a8.37,8.37,0,0,0-4,.26l0,.07a5.62,5.62,0,0,0-2.19.2l.21.74a6.39,6.39,0,0,1,3.81.25,14.91,14.91,0,0,0,2,.44C1133.4,2680.36,1133.68,2679.77,1133.73,2679.51Zm-1.88-.14a15,15,0,0,1-1.87-.42l-.29-.08a7.22,7.22,0,0,1,2,.07,2.81,2.81,0,0,1,1.14.42A2.66,2.66,0,0,1,1131.85,2679.37Z" transform="translate(-1090.69 -2475.29)"/><path class="e" d="M1105.93,2673.46c-.8-3.17-2.12-5.61-3.89-10.12a140.87,140.87,0,0,1-5.62-16.78,131.09,131.09,0,0,1-2.41-16.79,44.72,44.72,0,0,1,.75-11.72l1.49-.75a4.85,4.85,0,0,1,2.37,1.19c1,1,2.19,3.35,5.87,9.69,4.7,8.12,6.62,10.66,10.93,14.3s8.55,8.37,8.45,10-1.31,4.56-1.85,10.15c-1.06,11-2.31,5.57,2.12,12.39,2,3.08,6.1,2.28,5.29,2.74a9.91,9.91,0,0,0-5.34,2.88c-2.49,2.88-7.27,4.63-12.61,5.22C1108.81,2682.93,1106.72,2676.53,1105.93,2673.46Z" transform="translate(-1090.69 -2475.29)"/><path class="f" d="M1129,2658.47c1.2-1.37,2.77-1.55,3.61-3.36.44-1-.84-2.81-5.84-4.51-4.32-1.47-8.31-5.42-8.31-5.42l.08.24a53.52,53.52,0,0,1-8.95-10l-1,.78c4.67,5.92,9.27,11.15,12.56,14.8,1,1.67.62,4.69,1.47,5.68C1125.25,2659.68,1128.26,2659.36,1129,2658.47Z" transform="translate(-1090.69 -2475.29)"/><path class="g" d="M1095.79,2618.51a2.45,2.45,0,0,0-1.48,2.19c0,.28-.07.58-.11.89v0l-.09,1a0,0,0,0,0,0,0c0,.34,0,.69-.08,1.06v0c0,.35,0,.71-.07,1.08v.08c0,.38,0,.76,0,1.15h0c0,.4,0,.8,0,1.2v.08l0,1.15a.31.31,0,0,1,0,.1c0,.4,0,.81.07,1.21a131.09,131.09,0,0,0,2.41,16.79,132.94,132.94,0,0,0,5.62,16.78c1.44,3.56,6.21,20,8.87,22.86.44,0,2-.7,2.41-.76a28.63,28.63,0,0,1-2.82-2.57c-3.45-4.32-7.29-19.37-9.33-24.42a74.87,74.87,0,0,1-5.35-32s.79-7.09,4.19-2.88c3,3.63,8.61,12.59,8.61,12.59l1.27-.35c-9.12-12.67-6.52-14.13-9.51-17.05-.48-.47-2.3-1.75-3.6-1.43C1096.82,2617.6,1096.57,2618.18,1095.79,2618.51Z" transform="translate(-1090.69 -2475.29)"/><path class="h" d="M1113,2685.63c5-.66,8.76-2.3,11.12-5a4.49,4.49,0,0,1,.36-.39c-.29-.68-.94-.92-2.33.37-2.45,2.29-7.69,4-9.59,4.5A3,3,0,0,1,1113,2685.63Z" transform="translate(-1090.69 -2475.29)"/><path class="g" d="M1105.33,2636s4.64,2.33,2.6-2.11c-.75-1.62-8.57-14.72-10.58-13.09-1.32,1.05-1.53.68-2.25,4s1.08,17.91,1.21,15.15c.3-6,2.79-5.47,6.58-2.54a35.55,35.55,0,0,1,4.9,4.26Z" transform="translate(-1090.69 -2475.29)"/><path class="i" d="M1107.12,2640.12s-7.78,17.16-10.11,5c0,0,1.21,8.83,3.13,10.35s6.9-1.93,11-10.68Z" transform="translate(-1090.69 -2475.29)"/><path class="i" d="M1112.73,2645.86s-9.2,18.09-12.8,9.67c0,0,1.16,6.78,3.29,8,4.3,2.43,9.42-4.24,13.5-13Z" transform="translate(-1090.69 -2475.29)"/><path class="i" d="M1117.85,2651.82s-10.84,21.54-15.13,12.25c0,0,1.42,8.48,3.55,9.68,2.69,1.53,9.4-10.33,15.75-1.21,1.27,1.82-1.51-13.94,0-17.23Z" transform="translate(-1090.69 -2475.29)"/><path class="e" d="M1122.92,2681.74a10.52,10.52,0,0,0,1.17-1.14,2.16,2.16,0,0,1,.25-.27,14.15,14.15,0,0,1,5-2c5.58-1.12,2-3.11,1.07-3.15-2-.09-6.23.8-7.63-7.35a26.2,26.2,0,0,1,1-13.1c.91-2.56.7-3.52.56-3.79-2.71-3.45-4.15-3.67-7.57-6.37a71.41,71.41,0,0,1-10.23-11.55,5.74,5.74,0,0,0-.6,6.24h0l.2.34h0l.23.36,0,.06.22.31c.09.13.19.25.3.39,3.6,4.29,10.49,11,12,12.65s1.72,5.74,1.45,8.74c-.8,8.77,1.82,9.46,1.3,15-.19,1.91-1.93,4.68-6.14,7.34-.07,0,4.07-1.07,4.07-1s2.47-2.57,2.48-2.55a.39.39,0,0,0,0,.18v0a.63.63,0,0,0,.13.2l0,0a.91.91,0,0,0,.17.17,0,0,0,0,0,0,0h0A2.75,2.75,0,0,0,1122.92,2681.74Z" transform="translate(-1090.69 -2475.29)"/><path class="j" d="M1122.37,2652.16a.8.8,0,1,0,.38,1.56.8.8,0,0,0-.38-1.56Z" transform="translate(-1090.69 -2475.29)"/><path class="k" d="M1122.41,2652.32a.63.63,0,1,0,.3,1.23.63.63,0,0,0,.47-.76A.65.65,0,0,0,1122.41,2652.32Z" transform="translate(-1090.69 -2475.29)"/><path class="l" d="M1121.81,2652.69s-1-3.58.34-4.57c0,0,.95-.09.69.52-.73,1.66-.16,2,.34,4.15C1123.18,2652.79,1122.32,2653.82,1121.81,2652.69Z" transform="translate(-1090.69 -2475.29)"/><path class="j" d="M1117.9,2648.79a.8.8,0,1,0,.9.68A.81.81,0,0,0,1117.9,2648.79Z" transform="translate(-1090.69 -2475.29)"/><path class="k" d="M1117.93,2649a.63.63,0,1,0,.16,1.25.63.63,0,1,0-.16-1.25Z" transform="translate(-1090.69 -2475.29)"/><path class="l" d="M1117.29,2649.25s-.57-3.67.83-4.51c0,0,1,0,.63.59-.9,1.57-.37,2-.11,4.16C1118.64,2649.49,1117.68,2650.43,1117.29,2649.25Z" transform="translate(-1090.69 -2475.29)"/><path class="j" d="M1114,2645.11a.8.8,0,0,0,0,1.59.8.8,0,1,0,0-1.59Z" transform="translate(-1090.69 -2475.29)"/><path class="k" d="M1114,2645.27a.64.64,0,1,0,0,1.27.64.64,0,0,0,0-1.27Z" transform="translate(-1090.69 -2475.29)"/><path class="l" d="M1113.37,2645.5s-.16-3.59,1.34-4.25c0,0,.94.13.55.66-1.08,1.46-.58,1.83-.58,4C1114.68,2645.9,1113.61,2646.71,1113.37,2645.5Z" transform="translate(-1090.69 -2475.29)"/><path class="j" d="M1110.52,2641.07a.8.8,0,1,0,.66.91A.78.78,0,0,0,1110.52,2641.07Z" transform="translate(-1090.69 -2475.29)"/><path class="k" d="M1110.49,2641.23a.64.64,0,0,0-.73.52.63.63,0,0,0,.53.72.63.63,0,1,0,.2-1.24Z" transform="translate(-1090.69 -2475.29)"/><path class="l" d="M1109.79,2641.33s.23-3.21,1.82-3.61c0,0,.91.3.43.75-1.32,1.25-.65,1.36-1,3.48C1111,2642,1109.82,2642.58,1109.79,2641.33Z" transform="translate(-1090.69 -2475.29)"/><path class="j" d="M1120.25,2650.67a.8.8,0,0,0,.38,1.55.78.78,0,0,0,.59-1A.8.8,0,0,0,1120.25,2650.67Z" transform="translate(-1090.69 -2475.29)"/><path class="k" d="M1120.29,2650.84a.61.61,0,0,0-.46.75.62.62,0,0,0,.77.47.63.63,0,1,0-.31-1.22Z" transform="translate(-1090.69 -2475.29)"/><path class="j" d="M1123.51,2649.36s-1-2.23-2.71.18c-1,1.51-.72,1.86-.41,2s.56.33,1-.82C1121.84,2649.3,1123.28,2648.88,1123.51,2649.36Z" transform="translate(-1090.69 -2475.29)"/><path class="j" d="M1116,2647.06a.82.82,0,0,0-.68.91.8.8,0,0,0,.89.69.81.81,0,0,0-.21-1.6Z" transform="translate(-1090.69 -2475.29)"/><path class="k" d="M1116,2647.24a.62.62,0,0,0-.55.71.63.63,0,0,0,.71.54.62.62,0,0,0,.54-.71A.61.61,0,0,0,1116,2647.24Z" transform="translate(-1090.69 -2475.29)"/><path class="j" d="M1119.49,2646.09s-.93-2.3-2.86-.08c-1.21,1.39-.92,1.77-.62,1.9s.52.38,1-.71C1117.69,2645.88,1119.32,2645.59,1119.49,2646.09Z" transform="translate(-1090.69 -2475.29)"/><path class="j" d="M1112.31,2643.17a.81.81,0,0,0-.79.81.8.8,0,1,0,.79-.81Z" transform="translate(-1090.69 -2475.29)"/><path class="k" d="M1112.32,2643.33a.64.64,0,0,0,0,1.28.63.63,0,0,0,.62-.64A.64.64,0,0,0,1112.32,2643.33Z" transform="translate(-1090.69 -2475.29)"/><path class="j" d="M1115.75,2642.77s-.47-2.55-2.65-.58c-1.36,1.24-1.12,1.66-.84,1.82s.47.44,1.12-.57C1114.17,2642.2,1115.64,2642.24,1115.75,2642.77Z" transform="translate(-1090.69 -2475.29)"/><path class="j" d="M1109.16,2638.86a.8.8,0,1,0,.65.92A.8.8,0,0,0,1109.16,2638.86Z" transform="translate(-1090.69 -2475.29)"/><path class="k" d="M1109.13,2639a.63.63,0,0,0-.73.52.65.65,0,0,0,.52.73.63.63,0,0,0,.21-1.25Z" transform="translate(-1090.69 -2475.29)"/><path class="j" d="M1112.62,2639.34s0-2.87-2.52-1.3c-1.56,1-1.39,1.43-1.14,1.65s.38.51,1.2-.39C1111.15,2638.22,1112.61,2638.81,1112.62,2639.34Z" transform="translate(-1090.69 -2475.29)"/><path class="l" d="M1123,2649.56s4.58,6.57,7.52,3.51-5.16-3.9-7.16-3.77l.19.43s5.2.24,6.22,1.63-.37,1.77-1.08,1.57a12.22,12.22,0,0,1-4.76-2.51c-.13-.1-.28-.73-.41-.85S1123.22,2649.74,1123,2649.56Z" transform="translate(-1090.69 -2475.29)"/><path class="l" d="M1124.25,2650.06s5.36.3,6.64-2.6-.71-4.17-4.28-1l-3.57,3.13.61.37a29.46,29.46,0,0,1,3.92-3.26c1.49-.87,3.14-1.65,2.71-.32s-.92,2.25-3.52,2.83c-1.25.29-2.41.23-2.93.36s-.45.48-.45.48Z" transform="translate(-1090.69 -2475.29)"/><path class="m" d="M1123.21,2649.15a8.24,8.24,0,0,1-1.29-2.55,5.91,5.91,0,0,0-3.28-3.07c-.15.06-.37-.46-.37-.46s.22-.43,1.11-.27,2.6.56,3.22,3.45,1.24,3.57,1.24,3.57S1123.51,2650.73,1123.21,2649.15Z" transform="translate(-1090.69 -2475.29)"/><path class="m" d="M1124,2650a35.92,35.92,0,0,1-3-3.44c-.93-1.34-3.11-2.68-3.41-3.54s-.93-.45-.93-.45-.22.6,2.31,2.63,2.78,3.21,3.52,3.91S1123.4,2650.21,1124,2650Z" transform="translate(-1090.69 -2475.29)"/><path class="n" d="M1110.83,2686.69a16.54,16.54,0,0,1,2.49-1.25,73,73,0,0,1-10.34-21.71c-1.34-4.66-4.1-12.06-5.4-17.51a141.11,141.11,0,0,1-2.84-16.25,48.81,48.81,0,0,1,.19-9.25,2.31,2.31,0,0,1,1.92-2c1.31-.3,2.51-1,1-1.47-.92-.3-3.14.22-3.75.38-1,.3-1.82,3.7-2.51,7.65-.83,4.8-.84,13.33,2.86,27,2.53,9.31,4,15.61,5.21,21.08,3.44,15.55,6.07,14.9,8.7,14.25A10.66,10.66,0,0,0,1110.83,2686.69Z" transform="translate(-1090.69 -2475.29)"/><path class="o" d="M1108.32,2683.41s-4.79-9.09-5.81-13.26c-1.61-6.54-2-2.09-1,4.81C1103.14,2686.59,1109.58,2687.59,1108.32,2683.41Z" transform="translate(-1090.69 -2475.29)"/><path class="o" d="M1093.2,2643.23s-2.92-11.54-.65-20.19c0,0,.34,4.71.56,8C1093.94,2643.07,1096.89,2643.93,1093.2,2643.23Z" transform="translate(-1090.69 -2475.29)"/><path class="w" d="M1359.49,2679s-31.2,29-80.4,6.86c-25.85-11.65-44.54-6.94-44.54-6.94l-3.11-42s64,4.43,88.51-.4C1334.5,2633.72,1359.49,2679,1359.49,2679Z" transform="translate(-1090.69 -2475.29)"/><path class="x" d="M1328.06,2630.81s10.79,20.65,36.8,41.61l-5.37,6.62s-34-31.24-37.8-44.29Z" transform="translate(-1090.69 -2475.29)"/></svg>