<svg xmlns="http://www.w3.org/2000/svg" viewBox="0 0 215.97 426.92"><defs><style>.a{fill:#e4ae84;}.b{fill:#010001;}.c,.h{fill:#fff;}.d{fill:#717375;}.e{fill:#070007;}.e,.g,.h,.i,.j,.k{fill-rule:evenodd;}.f{fill:#352f37;}.i{fill:#231f20;}.j{fill:#bcbec0;}.k{fill:#d1d3d4;}.l{fill:#d3d5d6;}.m{fill:#abadb0;}.n{fill:#cb9c77;}.o{fill:#797a7d;}.p{fill:#27272d;}.q{fill:#95979a;}.r{fill:#4b4850;}.s{fill:#e5dcd2;}.t{fill:#6d6e71;}.u{fill:#482a21;}.v{fill:#2b1105;}.w{fill:#0c040d;}.x{fill:#391f15;}.y{fill:#e7a644;}.z{fill:#00b7b1;}.aa{fill:#252027;}</style></defs><path class="a" d="M1299.31,2652.88c1.15.59,3.63,1.23,4.57,2.11,8.64,8.1,18.3,24.39,21.08,38.91a219.14,219.14,0,0,0,11,37l-7.51,8.55s-7.87-13.15-19.47-35.61c-13.42-26-25.79-40.82-29.29-51.34C1279.5,2648.32,1296.71,2651,1299.31,2652.88Z" transform="translate(-1186.1 -2380.6)"/><path class="a" d="M1302.91,2657c-3.58,3.12-25.17,4.35-24.11-9.08,2.68-7.83,9-12.25,13-17,19.76-23.6,34.44-49.22,62.16-68.49,0,0,40.46,24,22,34.27-23.73,13.16-47.56,37.54-60.67,47.17C1306.71,2650.23,1309.91,2647.42,1302.91,2657Z" transform="translate(-1186.1 -2380.6)"/><path class="a" d="M1333.51,2724.34a18.93,18.93,0,0,0,9.38,10.89c6.21,3.28-3.87,14.4-1.31,16.82,0,0-22.4,13.17-27.37,7.67-3-3.29,1.81-15.14,8.3-17,7.37-2.1.42-13.2.42-13.2Z" transform="translate(-1186.1 -2380.6)"/><path class="b" d="M1333,2722.85a207.27,207.27,0,0,1-8-28.95c-2.78-14.52-12.44-30.81-21.08-38.91-.94-.88-3.42-1.52-4.57-2.11-2.6-1.86-19.81-4.56-19.57-.38,3.5,10.52,15.87,25.37,29.29,51.34,4.89,9.45,9.1,17.25,12.35,23.12Z" transform="translate(-1186.1 -2380.6)"/><path class="b" d="M1302.91,2657c-3.58,3.12-25.17,4.35-24.11-9.08,2.68-7.83,9-12.25,13-17,19.76-23.6,34.44-49.22,62.16-68.49,0,0,48.29,13.08,29.79,34.58-17.7,20.58-55.34,37.23-68.45,46.86C1306.71,2650.23,1309.91,2647.42,1302.91,2657Z" transform="translate(-1186.1 -2380.6)"/><path class="c" d="M1324.56,2738.61l-.79-4.21s8.89-2,12.4-6.16l2.61,1.87S1337,2738.34,1324.56,2738.61Z" transform="translate(-1186.1 -2380.6)"/><path class="d" d="M1352,2743c1,1.94,1.73,4-9.77,9.94-4.18,2.16-9.26,4.23-16,8.52-10,6.35-17.14,8-21.21,8.34-3.35.29-6.28.34-6.74-.39-.06-.12-.12-.22-.18-.33.2.39.4.73.54,1,.46.72,3.39.67,6.74.38,4.07-.35,10.89-2.13,21.16-8,7-4.06,11.9-6.65,16.08-8.81,11.87-6.12,10.77-8.12,9.69-10.11Z" transform="translate(-1186.1 -2380.6)"/><path d="M1340.08,2724.34c-.49,0-.76.73-.68,1.78a7.15,7.15,0,0,0,1.06,3.16l.06,0a4.78,4.78,0,0,0,.63,1.74l.55-.34a5.38,5.38,0,0,1-.62-3.13,12.2,12.2,0,0,0-.06-1.69C1340.85,2724.42,1340.3,2724.32,1340.08,2724.34Zm.29,1.55a9.8,9.8,0,0,1,.06,1.61v.25a5.62,5.62,0,0,1-.38-1.68,2.1,2.1,0,0,1,.1-1A2.28,2.28,0,0,1,1340.37,2725.89Z" transform="translate(-1186.1 -2380.6)"/><path class="e" d="M1341.14,2748.17c-2.4,1.33-4.08,2.92-7.37,5.33a115.83,115.83,0,0,1-12.4,8.16,112.44,112.44,0,0,1-13.08,5.56,38.17,38.17,0,0,1-9.67,1.91l-.92-1.05a4.13,4.13,0,0,1,.45-2.18c.57-1,2.25-2.49,6.59-6.84,5.58-5.55,7.23-7.66,9.26-11.93s4.94-8.72,6.25-9,4,.08,8.64-.68c9.11-1.5,5,.68,9.58-4.37,2.07-2.28.54-5.44,1.08-4.89a8.28,8.28,0,0,0,3.48,3.72c2.88,1.4,5.33,4.89,7,9.11C1348.21,2743.81,1343.47,2746.87,1341.14,2748.17Z" transform="translate(-1186.1 -2380.6)"/><path class="e" d="M1324,2732.66c-1.38-.68-1.86-1.92-3.5-2.21-.88-.14-2.1,1.28-2.41,5.7a22.05,22.05,0,0,1-2.6,7.91l.17-.12a44.63,44.63,0,0,1-6.2,9.4l.85.65c3.8-5,7.05-9.9,9.3-13.36,1.14-1.2,3.67-1.5,4.29-2.41C1325.83,2735.47,1324.92,2733.1,1324,2732.66Z" transform="translate(-1186.1 -2380.6)"/><path class="e" d="M1298.78,2768.19a2,2,0,0,0,2.08.73l.75-.11h0l.81-.13h0l.88-.16h0l.89-.18h.07l.93-.21h0l1-.25.07,0,.93-.27.07,0,1-.32a112.44,112.44,0,0,0,13.08-5.56,109.15,109.15,0,0,0,12.4-8.16c2.59-1.93,14.86-9.31,16.63-12.1-.14-.34-1-1.45-1.13-1.79a21.74,21.74,0,0,1-1.48,2.84c-2.76,3.73-14.13,10.07-17.79,12.8a62.91,62.91,0,0,1-24.77,11.21s-5.92.88-3.24-2.78c2.31-3.18,8.36-9.69,8.36-9.69l-.56-.95c-8.31,10.11-10,8.31-11.78,11.37-.28.49-.93,2.24-.39,3.23C1297.81,2767.55,1298.34,2767.63,1298.78,2768.19Z" transform="translate(-1186.1 -2380.6)"/><path d="M1349.5,2739.86c-1.59-3.87-3.74-6.61-6.47-7.94a3.72,3.72,0,0,1-.39-.21c-.48.38-.55,1,.81,1.81,2.38,1.49,4.86,5.38,5.69,6.81A3.25,3.25,0,0,1,1349.5,2739.86Z" transform="translate(-1186.1 -2380.6)"/><path class="e" d="M1310.9,2756.7s.89-4.26-2.27-1.65c-1.15.95-10.09,10.1-8.34,11.39,1.13.84.87,1.09,3.73,1s14.29-4.72,12-4.24c-4.9,1-5-1.08-3.48-4.78a30,30,0,0,1,2.4-4.89Z" transform="translate(-1186.1 -2380.6)"/><path class="f" d="M1313.86,2754.36s15.57,2.62,6.23,7.13c0,0,6.91-2.88,7.72-4.76s-3-5.18-11-6.6Z" transform="translate(-1186.1 -2380.6)"/><path class="f" d="M1317.3,2748.58s16.65,3.58,10.59,8.3c0,0,5.26-2.38,5.77-4.37,1-4-5.45-6.74-13.42-8.17Z" transform="translate(-1186.1 -2380.6)"/><path class="f" d="M1321.05,2743.15s19.79,4.17,13.17,9.65c0,0,6.57-3,7.09-5,.66-2.51-10.4-5.41-4.37-12.51,1.21-1.43-11,4.21-14,3.68Z" transform="translate(-1186.1 -2380.6)"/><path class="g" d="M1344.22,2732.63a9.11,9.11,0,0,0-1.19-.71l-.26-.14a12,12,0,0,1-2.72-3.63c-2.1-4.29-2.93-.93-2.77-.19.35,1.62,2,4.87-4.33,7.76a22.1,22.1,0,0,1-10.84,2c-2.27-.2-3,.18-3.19.36-2.22,2.93-2.08,4.15-3.54,7.51a60.79,60.79,0,0,1-7.17,10.77,4.82,4.82,0,0,0,5.19-.87h0l.24-.22h0a3.08,3.08,0,0,1,.24-.27l0-.06a2.31,2.31,0,0,0,.2-.24l.25-.33c2.71-3.84,6.64-10.86,7.69-12.41s4.29-2.63,6.78-3.05c7.28-1.23,7.28-3.52,11.84-4.26,1.59-.27,4.21.56,7.27,3.39,0,.05-1.74-3.07-1.69-3.08s-2.61-1.45-2.59-1.46a.35.35,0,0,0,.13-.08h0a.86.86,0,0,0,.13-.14l0,0,.09-.18a0,0,0,0,1,0,0h0A3.93,3.93,0,0,0,1344.22,2732.63Z" transform="translate(-1186.1 -2380.6)"/><path class="h" d="M1320.35,2739.42a.67.67,0,1,0,1.18-.64.67.67,0,0,0-1.18.64Z" transform="translate(-1186.1 -2380.6)"/><path class="i" d="M1320.47,2739.35a.54.54,0,0,0,.72.22.53.53,0,0,0-.51-.94A.54.54,0,0,0,1320.47,2739.35Z" transform="translate(-1186.1 -2380.6)"/><path class="j" d="M1320.9,2739.76s-2.7,1.56-3.78.71c0,0-.27-.75.27-.67,1.51.22,1.69-.32,3.29-1.17C1320.68,2738.63,1321.71,2739.1,1320.9,2739.76Z" transform="translate(-1186.1 -2380.6)"/><path class="h" d="M1318.57,2743.76a.66.66,0,0,0,.87.37.67.67,0,1,0-.87-.37Z" transform="translate(-1186.1 -2380.6)"/><path class="i" d="M1318.7,2743.71a.52.52,0,0,0,.69.29.53.53,0,0,0,.29-.69.52.52,0,0,0-.69-.29A.53.53,0,0,0,1318.7,2743.71Z" transform="translate(-1186.1 -2380.6)"/><path class="j" d="M1319.08,2744.16s-2.86,1.26-3.84.29c0,0-.19-.78.35-.63,1.47.39,1.71-.13,3.4-.8C1319,2743,1320,2743.6,1319.08,2744.16Z" transform="translate(-1186.1 -2380.6)"/><path class="h" d="M1316.42,2747.69a.67.67,0,0,0,.82.47.67.67,0,1,0-.35-1.3A.67.67,0,0,0,1316.42,2747.69Z" transform="translate(-1186.1 -2380.6)"/><path class="i" d="M1316.55,2747.65a.53.53,0,0,0,1-.28.53.53,0,0,0-.65-.37A.53.53,0,0,0,1316.55,2747.65Z" transform="translate(-1186.1 -2380.6)"/><path class="j" d="M1316.88,2748.15s-2.87.9-3.73-.18c0,0-.1-.79.41-.58,1.42.56,1.61.07,3.37-.39C1316.93,2747,1317.81,2747.69,1316.88,2748.15Z" transform="translate(-1186.1 -2380.6)"/><path class="h" d="M1313.9,2751.41a.67.67,0,1,0,.6-.73A.66.66,0,0,0,1313.9,2751.41Z" transform="translate(-1186.1 -2380.6)"/><path class="i" d="M1314,2751.39a.52.52,0,0,0,.57.48.53.53,0,1,0-.1-1A.52.52,0,0,0,1314,2751.39Z" transform="translate(-1186.1 -2380.6)"/><path class="j" d="M1314.27,2751.94s-2.65.5-3.32-.7c0,0,0-.8.52-.51,1.3.8,1.24.24,3,.09C1314.51,2750.82,1315.27,2751.65,1314.27,2751.94Z" transform="translate(-1186.1 -2380.6)"/><path class="h" d="M1319.6,2741.45a.67.67,0,1,0,1.17-.64.67.67,0,0,0-.9-.27A.66.66,0,0,0,1319.6,2741.45Z" transform="translate(-1186.1 -2380.6)"/><path class="i" d="M1319.72,2741.38a.53.53,0,1,0,.21-.71A.52.52,0,0,0,1319.72,2741.38Z" transform="translate(-1186.1 -2380.6)"/><path class="h" d="M1317.83,2739.1s-1.58,1.32.73,2.15c1.45.53,1.67.18,1.68-.09s.14-.52-.88-.6C1318.14,2740.46,1317.49,2739.38,1317.83,2739.1Z" transform="translate(-1186.1 -2380.6)"/><path class="h" d="M1317.59,2745.71a.68.68,0,0,0,.88.36.67.67,0,0,0-.51-1.24A.68.68,0,0,0,1317.59,2745.71Z" transform="translate(-1186.1 -2380.6)"/><path class="i" d="M1317.73,2745.65a.53.53,0,0,0,.69.3.54.54,0,1,0-.41-1A.52.52,0,0,0,1317.73,2745.65Z" transform="translate(-1186.1 -2380.6)"/><path class="h" d="M1316.05,2743.05s-1.67,1.26.54,2.34c1.38.69,1.64.37,1.68.09s.2-.5-.8-.69C1316.26,2744.56,1315.68,2743.3,1316.05,2743.05Z" transform="translate(-1186.1 -2380.6)"/><path class="h" d="M1315.22,2749.5a.68.68,0,0,0,.83.46.67.67,0,0,0-.36-1.29A.68.68,0,0,0,1315.22,2749.5Z" transform="translate(-1186.1 -2380.6)"/><path class="i" d="M1315.35,2749.46a.54.54,0,0,0,.66.37.53.53,0,0,0-.28-1A.54.54,0,0,0,1315.35,2749.46Z" transform="translate(-1186.1 -2380.6)"/><path class="h" d="M1314.15,2746.8s-2,.93.11,2.27c1.29.84,1.58.55,1.66.28s.26-.47-.72-.77C1314,2748.2,1313.75,2747,1314.15,2746.8Z" transform="translate(-1186.1 -2380.6)"/><path class="h" d="M1312.4,2753a.67.67,0,1,0,1.34-.12.67.67,0,1,0-1.34.12Z" transform="translate(-1186.1 -2380.6)"/><path class="i" d="M1312.55,2753a.53.53,0,1,0,.47-.58A.53.53,0,0,0,1312.55,2753Z" transform="translate(-1186.1 -2380.6)"/><path class="h" d="M1312.05,2750.07s-2.32.65-.52,2.32c1.13,1.06,1.46.82,1.58.58s.33-.42-.56-.9C1311.46,2751.51,1311.62,2750.2,1312.05,2750.07Z" transform="translate(-1186.1 -2380.6)"/><path class="j" d="M1318.09,2739.43s4.35-5.12,1.24-6.84-2.06,5-1.52,6.61l.31-.25s-.93-4.27,0-5.39,1.52-.08,1.51.53a10.19,10.19,0,0,1-1,4.4c-.06.13-.54.39-.61.52S1318.21,2739.24,1318.09,2739.43Z" transform="translate(-1186.1 -2380.6)"/><path class="j" d="M1318.24,2738.35s-.91-4.41-3.52-4.83-3.24,1.46.07,3.69l3.3,2.22.18-.57a24.44,24.44,0,0,1-3.49-2.48c-1-1-2-2.19-.84-2.13s2,.27,3,2.25c.5.94.7,1.91.92,2.3s.48.26.48.26Z" transform="translate(-1186.1 -2380.6)"/><path class="k" d="M1317.73,2739.38a6.88,6.88,0,0,1-1.79,1.6,5,5,0,0,0-1.79,3.31c.08.12-.29.4-.29.4s-.4-.08-.46-.84-.1-2.23,2.11-3.35,2.62-1.78,2.62-1.78S1318.94,2738.8,1317.73,2739.38Z" transform="translate(-1186.1 -2380.6)"/><path class="k" d="M1318.28,2738.57a29.77,29.77,0,0,1-2.15,3.17c-.89,1-1.51,3.1-2.13,3.53s-.16.85-.16.85.52.05,1.62-2.45a15.23,15.23,0,0,1,2.42-3.68C1318.31,2739.2,1318.55,2739,1318.28,2738.57Z" transform="translate(-1186.1 -2380.6)"/><path class="l" d="M1350.82,2741.36a13.91,13.91,0,0,1-1.55-1.75,61.12,61.12,0,0,1-15.39,13c-3.49,2.09-8.89,5.91-13,8.13a115.46,115.46,0,0,1-12.56,5.79,40.44,40.44,0,0,1-7.54,1.83,1.91,1.91,0,0,1-2-1.12c-.53-1-1.33-1.83-1.41-.51a8.1,8.1,0,0,0,1.11,3c.45.72,3.39.68,6.74.39,4.07-.36,11-2.19,21.26-8.11,7-4.05,11.8-6.59,16-8.75,11.86-6.13,10.77-8.12,9.69-10.11A9.19,9.19,0,0,0,1350.82,2741.36Z" transform="translate(-1186.1 -2380.6)"/><path class="m" d="M1348.69,2744.1s-6.33,5.83-9.49,7.56c-5,2.7-1.27,2.1,4.11-.19C1352.39,2747.62,1351.82,2742.18,1348.69,2744.1Z" transform="translate(-1186.1 -2380.6)"/><path class="m" d="M1319.37,2765s-8.73,4.84-16.23,4.85l6.36-2.16C1319.08,2764.42,1319.15,2761.84,1319.37,2765Z" transform="translate(-1186.1 -2380.6)"/><path class="n" d="M1263.52,2485a12.35,12.35,0,0,1-3.14-.2c-5.85-.8-18.83-9-28.76-17.43-8.5-7.25-21.21-10.1-21.21-10.1l2.34-8.78s10.36,5.1,26.8,12c15.52,6.52,24.14,12.36,31.26,16.8C1273,2479.5,1265.9,2484.92,1263.52,2485Z" transform="translate(-1186.1 -2380.6)"/><path class="n" d="M1264.16,2485c-3.53.68-6.37-9.82-.81-11.86,14.46-3.72,71.41-23.4,78.44-9.65,0,0,8,10.22-7.36,14.66-10.86,3.15-34.34-.82-42.33.72C1286.59,2480,1268.79,2483.51,1264.16,2485Z" transform="translate(-1186.1 -2380.6)"/><path class="n" d="M1223.09,2453.36s-5.22-3.34-7.34-5.93c-1.7-2.07-2.87-2.5-6.41-5.47-3.84-3.22-3.77-3.73-4.72-5.12s-4.18-.5-1.54,3.29,3.53,4.28,3.53,4.28-5.91-3.43-9.06-5.2-5.6-3.6-6.25-1.95c-.33.83.44,2,4.53,4.55s8.67,5.5,8.67,5.5-15.75-9.41-16.79-7.59c-.66,1.17.25,2.34,5.3,5.09s10,5.14,10,5.14l-15.24-6.53c-1.42-.61-3.61,1.43,1.88,3.75l12.67,5.37s-12.59-4.75-13.38-3.23c-1,1.93,5.87,3.51,13.16,6s7.34,1.82,9.51,1.85,8.07,3.1,8.07,3.1Z" transform="translate(-1186.1 -2380.6)"/><path class="o" d="M1222.77,2544.23a30.21,30.21,0,0,0,7.53,1.06,3.53,3.53,0,0,0-.12-7.05c-1.14,0-27.2-.16-29.28-36.94l1-71.27a3.53,3.53,0,0,0-7.06-.09l-1,71.39a1.76,1.76,0,0,0,0,.23c1.24,22.69,11,33.39,18.92,38.37A36,36,0,0,0,1222.77,2544.23Z" transform="translate(-1186.1 -2380.6)"/><path class="p" d="M1196.58,2467.65a5.3,5.3,0,0,0,6.63-5l.45-32.55a5.29,5.29,0,0,0-10.57-.16l-.46,32.56A5.29,5.29,0,0,0,1196.58,2467.65Z" transform="translate(-1186.1 -2380.6)"/><polygon class="q" points="152.54 342.36 165.47 344.26 184.2 229.59 171.26 227.7 152.54 342.36"/><polygon class="q" points="51.92 322.25 74.91 331 53.24 155.13 34.1 141.39 51.92 322.25"/><path class="r" d="M1312.22,2750.81a37.31,37.31,0,1,0,37.3-37.32A37.31,37.31,0,0,0,1312.22,2750.81Z" transform="translate(-1186.1 -2380.6)"/><polygon class="r" points="121.61 415.3 199.81 415.77 155.16 333.81 122.14 333.81 121.61 415.3"/><path class="r" d="M1381.42,2770.18s-5.26,8.31-2.51,13.34-7.86,3.5-7.86,3.5-8.29-5.74-8.29-6.58-2.19-11-1.68-11.5.67-4.56,3-4.9S1377.79,2760.43,1381.42,2770.18Z" transform="translate(-1186.1 -2380.6)"/><path class="r" d="M1301.6,2734.78a50.44,50.44,0,1,1-50.42-50.45A50.43,50.43,0,0,1,1301.6,2734.78Z" transform="translate(-1186.1 -2380.6)"/><polygon class="r" points="121.61 415.15 15.82 415.94 76.27 304.98 166.41 333.81 121.61 415.15"/><path class="r" d="M1208.05,2761s7.11,11.22,3.41,18,10.62,4.74,10.62,4.74,11.2-7.77,11.2-8.92,3-14.83,2.27-15.52-.91-6.17-4.1-6.63S1213,2747.77,1208.05,2761Z" transform="translate(-1186.1 -2380.6)"/><path class="r" d="M1201.57,2803.89a3.64,3.64,0,0,0,3.64,3.63h177.48a3.64,3.64,0,0,0,3.65-3.63v-5.8a3.64,3.64,0,0,0-3.65-3.64H1205.21a3.64,3.64,0,0,0-3.64,3.64Z" transform="translate(-1186.1 -2380.6)"/><path class="p" d="M1330.47,2593.48s18.81-1.5,45.86-4,30.8,25.65,20.37,33.69-16,3-26-3.52-21.63-7.57-34.2-11.33S1321.42,2597.51,1330.47,2593.48Z" transform="translate(-1186.1 -2380.6)"/><path class="p" d="M1331.78,2747.67a25.27,25.27,0,1,0-9.93,34.33A25.28,25.28,0,0,0,1331.78,2747.67Z" transform="translate(-1186.1 -2380.6)"/><path class="s" d="M1313.32,2757.84a4.2,4.2,0,1,0-1.65,5.7A4.18,4.18,0,0,0,1313.32,2757.84Z" transform="translate(-1186.1 -2380.6)"/><path class="s" d="M1310.92,2760.75a5.08,5.08,0,0,0-.1-3.85c-.83-2-2.75-3.56-5.73-4.72-6.32-2.43-33.27-12.57-33.55-12.68l-1.29,3.45c.26.11,27.2,10.25,33.51,12.68,1.94.75,3.24,1.71,3.65,2.69a1.77,1.77,0,0,1,.13,1Z" transform="translate(-1186.1 -2380.6)"/><path class="s" d="M1300.06,2734.24a4.47,4.47,0,0,0-5.3-3.52l-46,8.61a4.49,4.49,0,0,0-3.52,5.3h0a4.5,4.5,0,0,0,5.31,3.51l46-8.6a4.49,4.49,0,0,0,3.51-5.3Z" transform="translate(-1186.1 -2380.6)"/><path class="q" d="M1220.11,2544.75a31.12,31.12,0,0,0,7.13,2.67,3.53,3.53,0,0,0,1.4-6.91c-1.12-.24-26.53-6-20.62-42.39l16.34-69.38a3.52,3.52,0,0,0-6.86-1.61l-16.37,69.49a1.55,1.55,0,0,1-.05.23c-3.68,22.43,3.52,35,10.2,41.54A35.72,35.72,0,0,0,1220.11,2544.75Z" transform="translate(-1186.1 -2380.6)"/><path class="p" d="M1211.06,2464.33a5.12,5.12,0,0,0,1.19.44,5.3,5.3,0,0,0,6.36-3.93l7.47-31.69a5.29,5.29,0,0,0-10.29-2.43l-7.47,31.69A5.29,5.29,0,0,0,1211.06,2464.33Z" transform="translate(-1186.1 -2380.6)"/><path class="t" d="M1250.87,2556.93l-24.62-16.09s-16.28-9.77-16.17-26.44c.05-7.55,3.15-16.67,18.67-4.59S1287.66,2583.31,1250.87,2556.93Z" transform="translate(-1186.1 -2380.6)"/><path class="a" d="M1325.25,2443.59s5.73,2,6.11,11.4c.24,5.87,16.52-3.91,15.58-6.46-1.64-4.5-4.71-10.1-4.33-14.58C1342.61,2434,1332.84,2442.16,1325.25,2443.59Z" transform="translate(-1186.1 -2380.6)"/><path class="a" d="M1354.22,2412.38c1.3,14.21-2.84,22-20.79,29.31-19.93,8.09-23.07,3.63-27.56-6.55-2.52-5.71-1.67-5.87-3.08-10.94-3.5-12.64-.31-27.32-.31-27.32,4.3-6.77,21.69-10.16,29.65-10.89C1346.87,2384.65,1352.67,2395.51,1354.22,2412.38Z" transform="translate(-1186.1 -2380.6)"/><path class="a" d="M1301.73,2412.78s-.68,15.73-1.06,16.95-.67,3.27,2.91,2.89,4.45-2,4.45-2Z" transform="translate(-1186.1 -2380.6)"/><path class="u" d="M1354.13,2402.64c-3.53-13.31-15.19-27.07-39.45-20.22-3.44,1-16.66,7.47-16.25,19.34.15,4.39,5.34-2,5.34-2s1.43,3.74,5.16.57a7.48,7.48,0,0,1,.68-.5c.08.26.16.52.25.79,0,0,9.57,17,18.1,22.24,6.81,4.22,5.77,12.81,15,15.11,0,0,8.7-1.48,12.23-14C1357.88,2414.58,1355,2406,1354.13,2402.64Z" transform="translate(-1186.1 -2380.6)"/><path class="u" d="M1316.48,2389.46c-15.63-.1-18,13-18,13a6.16,6.16,0,0,0,.44,1.49,15.28,15.28,0,0,0,3.64,6.31l-.16-.47c18.65,23.47,43.88,4.9,43.88,4.9S1336.79,2389.59,1316.48,2389.46Z" transform="translate(-1186.1 -2380.6)"/><path class="v" d="M1339.27,2401.8c-4.56-5.83-12.24-12.81-22.91-12.88a21.7,21.7,0,0,0-9.25,1.81,14.83,14.83,0,0,0-8.4,9.36,4.64,4.64,0,0,0-.09,3.45l.45.83-.45-.83c2.87,7.59,6.08,9.31,5.94,9.35,12.75,13.36,27.76,9.48,35.85,5.77a37.24,37.24,0,0,0,6.16-3.48l.26-.19-.15-.41A55.35,55.35,0,0,0,1339.27,2401.8Zm-40.44.58a30,30,0,0,1,4.31-2.44c11.42-5.24,22.47-.87,29.72,3.72a61.91,61.91,0,0,1,10.25,8.24c-12.85-8.68-23.63-10.94-30.61-11.25a33.39,33.39,0,0,0-12.72,1.65l.1-.22-.93.53Zm44.92,11c-7.36-2.17-29.09-8.43-42.15-10.52a34.75,34.75,0,0,1,11.1-1.16C1319.74,2402,1330.69,2404.36,1343.75,2413.41Zm-41-3.9-2-3.67c7.8,8.26,16.55,12.84,26,13.6a35.55,35.55,0,0,0,11-.86C1328.89,2422,1314.44,2424.23,1302.71,2409.51Zm-.45-3.27a108.31,108.31,0,0,0,14,6.35c6.89,2.53,16.13,5,24.47,4C1332.46,2419.41,1317.31,2421.33,1302.26,2406.24Zm-2-2.17-.08-.34c13.2,1.86,37.53,8.94,44.3,11C1327.45,2419.58,1303,2405.66,1300.29,2404.07Zm32.81-1.33c-7.42-4.7-18.73-9.19-30.43-3.82-.56.25-1.12.53-1.68.83a27.25,27.25,0,0,1,7.8-5.56c8-3.69,20.39-3.53,34.52,16.73A63,63,0,0,0,1333.1,2402.74Zm-24.78-9.57a28.27,28.27,0,0,0-8.62,6.34,16.32,16.32,0,0,1,7.89-7.75,21,21,0,0,1,9-1.76c8.27.05,15.72,4.23,22.12,12.41a54.66,54.66,0,0,1,4.87,7.48C1329.18,2389.5,1316.57,2389.38,1308.32,2393.17Z" transform="translate(-1186.1 -2380.6)"/><path class="v" d="M1299.67,2403.7l-.09-.06.1,0Z" transform="translate(-1186.1 -2380.6)"/><path class="a" d="M1370.22,2534.65c-9.6-65-9.17-74.17-23.62-87.23-10.32-9.31-14.58,5.2-14.58,5.2a139.74,139.74,0,0,1-9.15,24.15s-8.44,14.28,5.32,26.42c3.41,3,8.44,29,11.47,42.85,3,13.49-2.38,9.59,9.2,42.48,2,5.75,29.21,6.45,29.21,6.45s-1.21,5,1.5-.49C1397.25,2558.72,1373.15,2554.45,1370.22,2534.65Z" transform="translate(-1186.1 -2380.6)"/><path class="w" d="M1341.06,2554.35c-.69,4.8-.88,12,1.27,30.34.7,6,27.09,12.7,27.09,12.7s11.09,4.48,14.26-.74c12.85-21.15,4.25-31.76-2.62-42.3Z" transform="translate(-1186.1 -2380.6)"/><path class="v" d="M1361.13,2393.49s1.11,16.33,6.8,22.44,10.39,8.83,11.46,15,2,13.59,4.9,17.92,4.68,5.1,4.38,11.44,1.94,11.89,4.79,16.55,5.25,10,5.09,15.21a13.59,13.59,0,0,0-.3-11c-2.79-5.69-5.09-12-5-17.07s.21-8.71-3.15-14.48-3.22-10.2-4.06-17.52-.6-13.47-4.2-18.4a57,57,0,0,1-7.19-13c-2-5.3-3.46-15.93-11.54-11.23C1358.72,2391.9,1363.26,2390.43,1361.13,2393.49Z" transform="translate(-1186.1 -2380.6)"/><path class="v" d="M1355.27,2401.41s3,1.72,8.17,16c2.79,7.79,10.38,8.83,11.46,15s2,13.58,4.9,17.91,4.68,5.1,4.38,11.43,1.94,11.9,4.79,16.57,5.25,10,5.08,15.2a13.59,13.59,0,0,0-.3-11c-2.78-5.7-5.09-12-5-17.07s.21-8.72-3.15-14.48-3.23-10.21-4.07-17.52-.6-13.48-4.19-18.4a57,57,0,0,1-7.19-13c-2-5.3-3.47-15.93-11.54-11.22C1354.23,2393.34,1357.41,2398.36,1355.27,2401.41Z" transform="translate(-1186.1 -2380.6)"/><path class="v" d="M1368.85,2394.29s5.94,11.51,4.87,19.8-3.35,13.21-.63,18.87,6.26,12.22,6.4,17.44-.84,6.86,3.07,11.85,5.32,10.8,5.71,16.27,1.51,11.17,4.68,15.33a13.56,13.56,0,0,1-6.12-9.11c-1-6.25-2.84-12.75-5.82-16.81s-5.22-7-5.83-13.62-3.3-10.18-6.85-16.64-7.33-11.32-7.27-17.41a56.92,56.92,0,0,0-1.7-14.79c-1.43-5.5-6.43-15,2.88-15.84C1367.27,2389.17,1365.33,2393,1368.85,2394.29Z" transform="translate(-1186.1 -2380.6)"/><path class="x" d="M1366.45,2418.53c-1.23-7.75-9.23-7-9.18-23.2,0-7.7,3.1-15.81,10.12,1.57,6.13,15.15,4.81,32.59,15.15,55.28,3.21,7,8.48,18.25,9.15,24.62s2.12,13.07,5.56,18.07c0,0-7.52-2.36-8.46-9.66-3.52-27.22-5-11-11.1-31.11-2.2-7.29-6.23-10.71-8.1-15.29C1365.21,2428.11,1369.34,2426.44,1366.45,2418.53Z" transform="translate(-1186.1 -2380.6)"/><path class="u" d="M1378,2414.86c-3.49-7,3-18.53-9.86-27.51-9.42-6.56-19.44,6.36-16.44,9.34.61.61,1.59,5.65,3.36,4.82,7.19-3.33,27.71,28.63,28.19,53.41.14,7.39,4.86,16.47,8,22s5.85,11.87,6,17.93c0,0,4.76-6.27,1.29-12.76-12.93-24.22-2.32-11.91-9-31.79-2.43-7.2-1.13-12.34-2.26-17.15C1384.51,2421.93,1380.19,2423,1378,2414.86Z" transform="translate(-1186.1 -2380.6)"/><path class="y" d="M1354.93,2400.67c.49,1.38,1,2.52-.35,3h0c-1.37.48-1.58-1.12-2.06-2.5l-2.41-6.86c-.48-1.37-1.06-2,.32-2.47h0c1.37-.49,1.61.6,2.09,2Z" transform="translate(-1186.1 -2380.6)"/><path class="a" d="M1279.41,2627c.88.95,3,2.35,3.62,3.49,5.49,10.51,9.25,29.07,7.1,43.69a219.22,219.22,0,0,0-1.74,38.58l-9.9,5.61s-3.1-15-6.67-40c-4.13-28.95-10.93-47-10.77-58.11C1262.2,2616.14,1277.56,2624.35,1279.41,2627Z" transform="translate(-1186.1 -2380.6)"/><path class="a" d="M1281.44,2632.06c-4.41,1.77-25.2-4.18-19.78-16.5,5.12-6.52,12.57-8.59,17.88-11.76,26.43-15.78,48.72-35.16,81.23-44.23,0,0,30.31,36,9.52,39.6-26.75,4.63-57.27,19.81-72.81,24.59C1287.27,2626.9,1291.21,2625.3,1281.44,2632.06Z" transform="translate(-1186.1 -2380.6)"/><path class="a" d="M1288.21,2705.69a18.87,18.87,0,0,0,5.26,13.38c4.79,5.13-8.39,12.33-6.77,15.44,0,0-25.48,5.08-28.37-1.75-1.72-4.09,6.68-13.7,13.43-13.3,7.65.44,4.74-12.33,4.74-12.33Z" transform="translate(-1186.1 -2380.6)"/><path class="w" d="M1288.19,2704.12a209.54,209.54,0,0,1,1.94-30c2.15-14.62-1.61-33.18-7.1-43.69-.6-1.14-2.74-2.54-3.62-3.49-1.85-2.61-17.21-10.82-18.36-6.78-.16,11.08,6.64,29.16,10.77,58.11,1.5,10.53,2.92,19.28,4.06,25.89Z" transform="translate(-1186.1 -2380.6)"/><path class="w" d="M1281.44,2632.06c-4.41,1.77-25.2-4.18-19.78-16.5,5.12-6.52,12.57-8.59,17.88-11.76,26.43-15.78,48.72-35.16,81.23-44.23,0,0,41.3,28.23,16.76,42.46-23.49,13.61-64.51,16.95-80,21.73C1287.27,2626.9,1291.21,2625.3,1281.44,2632.06Z" transform="translate(-1186.1 -2380.6)"/><path class="c" d="M1275.06,2716.22l.62-4.23s9,1.07,13.75-1.73l1.84,2.62S1286.85,2720.06,1275.06,2716.22Z" transform="translate(-1186.1 -2380.6)"/><path class="d" d="M1299.48,2729.43c.35,2.17.31,4.34-12.51,6.16-4.65.67-10.13.94-17.93,2.78-11.54,2.7-18.81,1.9-22.77.89-3.27-.83-6.06-1.75-6.25-2.58l-.06-.38c.06.44.14.84.19,1.12.18.84,3,1.76,6.23,2.59,4,1,11,1.56,22.63-.65,8-1.52,13.44-2.36,18.09-3,13.21-1.88,12.84-4.12,12.47-6.36C1299.54,2729.8,1299.52,2729.62,1299.48,2729.43Z" transform="translate(-1186.1 -2380.6)"/><path d="M1294.4,2707.86c-.49-.12-1,.44-1.23,1.46a7,7,0,0,0,0,3.33l.06,0a4.81,4.81,0,0,0,0,1.85l.64-.14a5.44,5.44,0,0,1,.44-3.16,13.26,13.26,0,0,0,.5-1.61C1295.09,2708.19,1294.62,2707.91,1294.4,2707.86Zm-.24,1.57a11.87,11.87,0,0,1-.47,1.53,2.25,2.25,0,0,0-.08.24,5.73,5.73,0,0,1,.19-1.72,2.21,2.21,0,0,1,.42-.92A2,2,0,0,1,1294.16,2709.43Z" transform="translate(-1186.1 -2380.6)"/><path class="e" d="M1287.56,2730.71c-2.7.48-4.82,1.42-8.71,2.61a114.43,114.43,0,0,1-14.39,3.63,109.8,109.8,0,0,1-14.19.94,37.94,37.94,0,0,1-9.76-1.37l-.52-1.3a4.06,4.06,0,0,1,1.14-1.91c.88-.77,2.95-1.61,8.48-4.28,7.09-3.42,9.34-4.86,12.66-8.23s7.54-6.61,8.86-6.42,3.74,1.38,8.38,2.19c9.11,1.58,4.5,2.27,10.49-1,2.7-1.47,2.3-5,2.63-4.26a8.35,8.35,0,0,0,2.06,4.66c2.26,2.27,3.42,6.37,3.56,10.88C1295.67,2728.92,1290.19,2730.25,1287.56,2730.71Z" transform="translate(-1186.1 -2380.6)"/><path class="e" d="M1276.51,2710.43c-1.07-1.09-1.12-2.42-2.58-3.22-.77-.44-2.4.51-4.14,4.58a22,22,0,0,1-5.07,6.61l.21-.05a44.87,44.87,0,0,1-9,6.84l.59.89c5.25-3.52,9.91-7,13.17-9.55,1.47-.77,4-.22,4.85-.87C1277.27,2713.68,1277.2,2711.14,1276.51,2710.43Z" transform="translate(-1186.1 -2380.6)"/><path class="e" d="M1241,2735.68a2,2,0,0,0,1.73,1.38l.74.15h0l.81.14h0c.28,0,.58.08.88.14h0l.91.12h.07l1,.1h0l1,.08h.06l1,0h.09l1,0a80.41,80.41,0,0,0,28.58-4.57c3.07-1,17.1-3.9,19.68-6,0-.36-.45-1.69-.48-2.05a25.25,25.25,0,0,1-2.32,2.2c-3.84,2.6-16.67,4.85-21,6.23a63,63,0,0,1-27.08,2.43s-5.88-1.12-2.14-3.69c3.23-2.24,11.08-6.4,11.08-6.4l-.22-1.08c-11.17,6.81-12.23,4.55-14.86,6.86-.42.38-1.61,1.81-1.43,2.93C1240.27,2734.76,1240.73,2735,1241,2735.68Z" transform="translate(-1186.1 -2380.6)"/><path d="M1298.19,2725.61c-.23-4.19-1.36-7.47-3.5-9.62a3,3,0,0,1-.3-.32c-.59.2-.83.72.16,2,1.76,2.2,2.83,6.69,3.15,8.32A2.85,2.85,0,0,1,1298.19,2725.61Z" transform="translate(-1186.1 -2380.6)"/><path class="e" d="M1256.2,2728.82s2.24-3.73-1.6-2.31c-1.4.53-12.86,6.23-11.63,8,.8,1.17.47,1.32,3.21,2.14s15,.25,12.75,0c-5-.63-4.4-2.68-1.71-5.67a31,31,0,0,1,3.88-3.82Z" transform="translate(-1186.1 -2380.6)"/><path class="f" d="M1259.76,2727.59s13.84,7.6,3.55,8.78c0,0,7.46-.45,8.85-2s-1.18-5.89-8.23-9.86Z" transform="translate(-1186.1 -2380.6)"/><path class="f" d="M1264.92,2723.27s14.53,8.84,7.26,11.32c0,0,5.75-.54,6.89-2.24,2.32-3.45-2.93-8.16-10-12.12Z" transform="translate(-1186.1 -2380.6)"/><path class="f" d="M1270.23,2719.37s17.32,10.44,9.28,13.43c0,0,7.18-.64,8.33-2.35,1.44-2.15-8-8.53,0-13.25,1.6-.94-11.77.38-14.41-1.12Z" transform="translate(-1186.1 -2380.6)"/><path class="g" d="M1295.58,2717a10.06,10.06,0,0,0-.89-1.05l-.21-.22a12.21,12.21,0,0,1-1.36-4.32c-.57-4.75-2.46-1.84-2.56-1.1-.2,1.65.27,5.26-6.64,5.91a21.9,21.9,0,0,1-10.89-1.7c-2.08-.92-2.89-.8-3.12-.71-3.07,2-3.34,3.24-5.82,5.92a60.56,60.56,0,0,1-10.32,7.82,4.86,4.86,0,0,0,5.2.9h0l.3-.14h0l.31-.17.06,0,.28-.16.34-.24c3.82-2.73,9.84-8.06,11.34-9.18s4.92-1.07,7.41-.65c7.28,1.22,8-.92,12.58-.14,1.58.28,3.79,1.92,5.74,5.6,0,.06-.63-3.47-.57-3.46s-2-2.23-2-2.23l.17,0h0a.56.56,0,0,0,.17-.09,0,0,0,0,0,0,0,.64.64,0,0,0,.15-.13s0,0,0,0h0A2.48,2.48,0,0,0,1295.58,2717Z" transform="translate(-1186.1 -2380.6)"/><path class="h" d="M1270.8,2715.61a.69.69,0,0,0,.78.55.66.66,0,0,0,.55-.77.68.68,0,0,0-.77-.56A.69.69,0,0,0,1270.8,2715.61Z" transform="translate(-1186.1 -2380.6)"/><path class="i" d="M1270.94,2715.59a.54.54,0,0,0,.62.43.53.53,0,1,0-.62-.43Z" transform="translate(-1186.1 -2380.6)"/><path class="j" d="M1271.21,2716.11s-3.06.58-3.8-.57c0,0,0-.8.48-.55,1.34.72,1.7.26,3.49,0C1271.38,2715,1272.19,2715.76,1271.21,2716.11Z" transform="translate(-1186.1 -2380.6)"/><path class="h" d="M1267.7,2719.13a.67.67,0,0,0,1.33-.07.66.66,0,0,0-.7-.64A.67.67,0,0,0,1267.7,2719.13Z" transform="translate(-1186.1 -2380.6)"/><path class="i" d="M1267.83,2719.12a.54.54,0,0,0,.56.51.54.54,0,0,0,.5-.57.52.52,0,0,0-.55-.5A.54.54,0,0,0,1267.83,2719.12Z" transform="translate(-1186.1 -2380.6)"/><path class="j" d="M1268.05,2719.68s-3.11.24-3.72-1c0,0,.07-.79.53-.48,1.27.85,1.67.44,3.48.36C1268.34,2718.56,1269.06,2719.43,1268.05,2719.68Z" transform="translate(-1186.1 -2380.6)"/><path class="h" d="M1264.37,2722.12a.68.68,0,0,0,.63.72.67.67,0,0,0,.71-.63.66.66,0,0,0-.62-.71A.68.68,0,0,0,1264.37,2722.12Z" transform="translate(-1186.1 -2380.6)"/><path class="i" d="M1264.51,2722.14a.53.53,0,0,0,.5.56.53.53,0,0,0,.56-.49.54.54,0,0,0-.49-.57A.53.53,0,0,0,1264.51,2722.14Z" transform="translate(-1186.1 -2380.6)"/><path class="j" d="M1264.66,2722.71s-3-.1-3.47-1.39c0,0,.17-.78.58-.42,1.16,1,1.5.6,3.31.74C1265.08,2721.64,1265.69,2722.58,1264.66,2722.71Z" transform="translate(-1186.1 -2380.6)"/><path class="h" d="M1260.77,2724.81a.66.66,0,0,0,.49.81.67.67,0,1,0-.49-.81Z" transform="translate(-1186.1 -2380.6)"/><path class="i" d="M1260.9,2724.85a.53.53,0,1,0,.64-.4A.53.53,0,0,0,1260.9,2724.85Z" transform="translate(-1186.1 -2380.6)"/><path class="j" d="M1261,2725.44s-2.68-.4-2.91-1.76c0,0,.3-.74.66-.31,1,1.18,1.09.63,2.84,1.08C1261.54,2724.45,1262,2725.49,1261,2725.44Z" transform="translate(-1186.1 -2380.6)"/><path class="h" d="M1269.42,2717.28a.67.67,0,1,0,1.33-.21.69.69,0,0,0-.78-.56A.68.68,0,0,0,1269.42,2717.28Z" transform="translate(-1186.1 -2380.6)"/><path class="i" d="M1269.56,2717.26a.53.53,0,1,0,1-.17.53.53,0,0,0-.61-.44A.54.54,0,0,0,1269.56,2717.26Z" transform="translate(-1186.1 -2380.6)"/><path class="h" d="M1268.54,2714.48s-1.94.72,0,2.28c1.19,1,1.5.72,1.61.46s.3-.44-.63-.86C1268.38,2715.87,1268.12,2714.64,1268.54,2714.48Z" transform="translate(-1186.1 -2380.6)"/><path class="h" d="M1266.14,2720.64a.66.66,0,0,0,.7.63.67.67,0,1,0-.07-1.33A.66.66,0,0,0,1266.14,2720.64Z" transform="translate(-1186.1 -2380.6)"/><path class="i" d="M1266.28,2720.63a.53.53,0,1,0,1.06-.05.55.55,0,0,0-.56-.51A.53.53,0,0,0,1266.28,2720.63Z" transform="translate(-1186.1 -2380.6)"/><path class="h" d="M1265.55,2717.63s-2,.63-.26,2.38c1.08,1.1,1.43.88,1.56.64s.34-.4-.53-.92C1265.26,2719.12,1265.11,2717.73,1265.55,2717.63Z" transform="translate(-1186.1 -2380.6)"/><path class="h" d="M1262.65,2723.44a.67.67,0,1,0,1.33.09.67.67,0,0,0-1.33-.09Z" transform="translate(-1186.1 -2380.6)"/><path class="i" d="M1262.78,2723.45a.54.54,0,0,0,.5.57.53.53,0,0,0,.56-.5.52.52,0,0,0-.49-.56A.53.53,0,0,0,1262.78,2723.45Z" transform="translate(-1186.1 -2380.6)"/><path class="h" d="M1262.53,2720.54s-2.16.23-.65,2.19c.94,1.21,1.31,1,1.47.81s.4-.37-.42-1C1262,2721.82,1262.08,2720.6,1262.53,2720.54Z" transform="translate(-1186.1 -2380.6)"/><path class="h" d="M1258.84,2725.81a.67.67,0,0,0,.49.81.68.68,0,0,0,.81-.5.67.67,0,0,0-.49-.81A.68.68,0,0,0,1258.84,2725.81Z" transform="translate(-1186.1 -2380.6)"/><path class="i" d="M1259,2725.85a.52.52,0,0,0,.39.63.53.53,0,0,0,.64-.39.54.54,0,0,0-.39-.64A.53.53,0,0,0,1259,2725.85Z" transform="translate(-1186.1 -2380.6)"/><path class="h" d="M1259.46,2722.93s-2.4-.14-1.25,2c.72,1.36,1.11,1.25,1.31,1.05s.44-.28-.25-1C1258.43,2724.09,1259,2722.92,1259.46,2722.93Z" transform="translate(-1186.1 -2380.6)"/><path class="j" d="M1268.67,2714.88s5.79-3.4,3.42-6.06-3.6,4.06-3.61,5.74l.38-.13s.52-4.33,1.75-5.09,1.46.42,1.24,1a10.15,10.15,0,0,1-2.39,3.82c-.1.1-.64.19-.74.29S1268.84,2714.74,1268.67,2714.88Z" transform="translate(-1186.1 -2380.6)"/><path class="j" d="M1269.17,2713.91s.59-4.47-1.75-5.72-3.53.32-1.14,3.5l2.39,3.19.36-.49a23.59,23.59,0,0,1-2.47-3.49c-.64-1.29-1.2-2.72-.11-2.28s1.82.92,2.15,3.12c.15,1.07,0,2,.1,2.48s.38.41.38.41Z" transform="translate(-1186.1 -2380.6)"/><path class="k" d="M1268.34,2714.72a6.92,6.92,0,0,1-2.21.91,5,5,0,0,0-2.78,2.54c0,.14-.4.28-.4.28s-.36-.2-.16-.94.63-2.14,3.09-2.47,3.07-.81,3.07-.81S1269.69,2714.56,1268.34,2714.72Z" transform="translate(-1186.1 -2380.6)"/><path class="k" d="M1269.13,2714.13a31.47,31.47,0,0,1-3.07,2.29c-1.19.69-2.45,2.42-3.18,2.62s-.43.75-.43.75.48.22,2.33-1.77,2.88-2.11,3.5-2.68S1269.24,2714.62,1269.13,2714.13Z" transform="translate(-1186.1 -2380.6)"/><path class="l" d="M1298.94,2727.47a14.37,14.37,0,0,1-.89-2.16,60.85,60.85,0,0,1-18.82,7.25c-4,.82-10.34,2.66-15,3.4a116.45,116.45,0,0,1-13.77,1.33,40.27,40.27,0,0,1-7.73-.76,1.91,1.91,0,0,1-1.55-1.72c-.17-1.12-.65-2.16-1.17-.94a8.32,8.32,0,0,0,.08,3.17c.19.83,3,1.75,6.24,2.58,4,1,11.09,1.56,22.74-.67,8-1.51,13.32-2.34,18-3,13.22-1.88,12.85-4.13,12.47-6.36A8.9,8.9,0,0,0,1298.94,2727.47Z" transform="translate(-1186.1 -2380.6)"/><path class="m" d="M1296,2729.36s-7.9,3.42-11.45,4c-5.57.92-1.89,1.57,4,1.18C1298.36,2733.9,1299.61,2728.58,1296,2729.36Z" transform="translate(-1186.1 -2380.6)"/><path class="m" d="M1261.48,2739.43s-9.85,1.71-16.94-.75l6.72,0C1261.39,2738.8,1262.3,2736.4,1261.48,2739.43Z" transform="translate(-1186.1 -2380.6)"/><path class="z" d="M1370.22,2534.65c-8-54.13-9-69.55-17.51-80.73-1.41-1.86-15.11-7.49-18.92,1.95-2.69,6.7-5.54,16.39-10.9,20.86l0,0s-8.44,14.28,5.32,26.42c3.41,3,8.44,29,11.47,42.85a14.65,14.65,0,0,1,.59,2.64c4.86-.91,11.17-.55,17-2.28,10-.27,13.3.53,18.31-.77C1373.49,2542.22,1370.85,2538.85,1370.22,2534.65Zm-17.07-58.5s-1.55,5.92-6.17,7.41-9-3.11-9-3.11-10.41-16.12-1.16-26.95C1354,2443.81,1353.15,2476.15,1353.15,2476.15Z" transform="translate(-1186.1 -2380.6)"/><polygon class="aa" points="197.58 176.97 153.96 176.97 154.26 169.25 193.47 169.25 197.58 176.97"/><path class="a" d="M1270.34,2487.37a12.36,12.36,0,0,1-3.13-.34c-5.8-1.09-18.38-9.86-27.9-18.79-8.14-7.63-20.7-11.09-20.7-11.09l2.76-8.67s10.1,5.6,26.18,13.28c15.2,7.25,23.54,13.5,30.44,18.28C1280.06,2482.38,1272.71,2487.46,1270.34,2487.37Z" transform="translate(-1186.1 -2380.6)"/><path class="a" d="M1271,2487.5c-3.56.5-5.89-10.11-.24-11.89,14.61-3,72.62-27.6,79-13.53,0,0,5.87,11.36-9.66,15.07-11,2.63-32.83,4.4-40.87,5.55C1293.62,2483.5,1275.67,2486.19,1271,2487.5Z" transform="translate(-1186.1 -2380.6)"/><path class="a" d="M1231.45,2453.89s-5-3.59-7-6.26c-1.6-2.16-2.75-2.64-6.15-5.77-3.68-3.4-3.59-3.91-4.47-5.34s-4.15-.7-1.7,3.21,3.34,4.44,3.34,4.44-5.75-3.71-8.81-5.63-5.43-3.86-6.15-2.24c-.37.82.35,2,4.32,4.76s8.39,5.9,8.39,5.9-15.28-10.15-16.41-8.38c-.72,1.14.14,2.36,5,5.34s9.73,5.61,9.73,5.61l-14.92-7.24c-1.39-.69-3.68,1.25,1.7,3.83l12.39,6s-12.34-5.34-13.2-3.87c-1.11,1.89,5.69,3.79,12.85,6.65s7.26,2.17,9.42,2.3,7.91,3.48,7.91,3.48Z" transform="translate(-1186.1 -2380.6)"/></svg>