<svg xmlns="http://www.w3.org/2000/svg" viewBox="0 0 294.23 508.39"><defs><style>.a{fill:#cd9d78;}.b{opacity:0.26;}.c{fill:#cb9c77;}.d,.l{fill:#fff;}.e{fill:#717375;}.f,.h{fill:#0d0b42;}.g,.j{fill:#252b67;}.g,.h,.i,.l,.m,.n,.o{fill-rule:evenodd;}.i,.k{fill:#404fa2;}.m{fill:#231f20;}.n{fill:#bcbec0;}.o{fill:#d1d3d4;}.p{fill:#d3d5d6;}.q{fill:#abadb0;}.r{fill:#38448f;}.s{fill:#797a7d;}.t{fill:#27272d;}.u{fill:#95979a;}.v{fill:#4b4850;}.w{fill:#e5dcd2;}.x{fill:#6d6e71;}.y{fill:#e4ae84;}.z{fill:#511d06;}.aa{fill:#502919;}.ab{fill:#333d83;}.ac{fill:#3abeb6;}</style></defs><path class="a" d="M1263.54,2455.86a13.76,13.76,0,0,0-3-2c-5.82-3.27-27-7.21-39.62-7.87a87.37,87.37,0,0,1-21.69-3.78l-2,14.55s8.7.92,25,7.6,29.56,8.26,39.36,7.43C1265,2471.28,1265.66,2457.5,1263.54,2455.86Z" transform="translate(-1144.6 -2337.46)"/><path class="a" d="M1210,2445s-6.51-1.1-10.82-3.64c-3.66-2.15-5-2.69-11.2-5.83-6.69-3.4-6.77-4.17-8.6-5.87s-6.76,1.25-1.63,5.89,7.09,5.16,7.09,5.16-9.79-3.69-15-5.22-8.41-2.66-8.8,0c-.2,1.33.34,2,7.17,4.4s14.5,5.11,14.5,5.11-25.36-8.06-26.26-5.05c-.58,1.92.37,3,8.66,5.28s16.29,4.14,16.29,4.14-21.93-4-23.73-3.63c-1.08.23-5.51,2.54,3.29,4.08s20.29,3.55,20.29,3.55-18.68-2.57-18.9,0,8,3,19.52,4.17,11.33.18,14.5-.51,11.68,2.44,11.68,2.44Z" transform="translate(-1144.6 -2337.46)"/><path class="a" d="M1255.21,2461c1.38,0-1.57-7.38-1.57-7.38s30.94-16.45,40.27-15.61c0,0,17.42-13.8,26.45-14.54,22.25-13.62,36.45-5.48,39.5,8.94,2.89,13.57-11.95,21.68-27.8,23.21-19,1.82-22.4,3.21-29.86,6.38-10.06,4.28-36.09,9.69-40.68,9.84C1259.49,2465.48,1253.67,2467.43,1255.21,2461Z" transform="translate(-1144.6 -2337.46)"/><g class="b"><path class="a" d="M1322.6,2454.05c-3.41-.38-6.79-.56-10.16-.8-1.69-.1-3.37-.23-5.06-.37s-3.35-.31-5.05-.56a21.91,21.91,0,0,0,4.94,1.4,46.09,46.09,0,0,0,5.1.62c1.71.1,3.41.15,5.12.1A41.85,41.85,0,0,0,1322.6,2454.05Z" transform="translate(-1144.6 -2337.46)"/><path class="a" d="M1272.34,2467a18.88,18.88,0,0,0-2.68-2.09l-1.35-.9c-.46-.3-.9-.61-1.38-1a3.36,3.36,0,0,0,.8,1.61,6.27,6.27,0,0,0,1.33,1.19,8.38,8.38,0,0,0,1.55.79A5.88,5.88,0,0,0,1272.34,2467Z" transform="translate(-1144.6 -2337.46)"/></g><path class="c" d="M1314.54,2658.55c-4,2.52-24.85-20.76-19.86-27.38,11.33-12.42,66.47-83.44,87.45-73.67,0,0,42.55,9.51,20,39.53-16.58,22.09-51.94,37.35-63.3,45.79C1332.51,2647.5,1321.65,2655.07,1314.54,2658.55Z" transform="translate(-1144.6 -2337.46)"/><path class="c" d="M1320.21,2631.83c1.76,2.11,11.93,18.2,15.21,20.1,10.34,6,24.52,29.31,29.93,47.18,4.54,15,16.3,38.17,16.3,38.17l-10.77,15.95s-18.4-23.74-39.33-50.85c-15.29-19.8-29.46-33.22-36-42.63C1294.52,2655.43,1317.15,2630.37,1320.21,2631.83Z" transform="translate(-1144.6 -2337.46)"/><path class="d" d="M1369.75,2752.87l-9-12.72s14-1.9,18.41-8.61l4.17,7.34S1386.55,2746.21,1369.75,2752.87Z" transform="translate(-1144.6 -2337.46)"/><path class="c" d="M1321.54,2617.87s-19.42,6.39-26.86,13.3-5.7,9.52-6.09,15.21c-.51,7.37,11.81,19.79,11.81,19.79s6.53-28.93,6.84-29.38S1321.54,2617.87,1321.54,2617.87Z" transform="translate(-1144.6 -2337.46)"/><path class="e" d="M1406.06,2743.84c2.08,2.34,3.7,5-11.12,17.71-5.37,4.62-12.08,9.46-20.54,18.06-12.54,12.74-22.32,17.75-28.08,19.78-4.75,1.67-9,2.84-9.84,2l-.36-.39c.4.47.8.89,1.08,1.2.87.85,5.09-.32,9.84-2,5.76-2,15-7.1,28.08-19.34,8.91-8.37,15.17-13.87,20.54-18.48,15.26-13.13,13.09-15.53,10.92-17.93Z" transform="translate(-1144.6 -2337.46)"/><path class="f" d="M1383.3,2721.92c-.7.26-.88,1.32-.45,2.77a9.32,9.32,0,0,0,2.48,4.06l.06-.07a6.72,6.72,0,0,0,1.43,2.21l.71-.68a7.43,7.43,0,0,1-1.84-4.2,16.24,16.24,0,0,0-.6-2.35C1384.42,2721.75,1383.62,2721.81,1383.3,2721.92Zm.89,2.1a16.92,16.92,0,0,1,.56,2.23c0,.13,0,.24.07.36a8.12,8.12,0,0,1-1-2.23,3.05,3.05,0,0,1-.16-1.46A2.94,2.94,0,0,1,1384.19,2724Z" transform="translate(-1144.6 -2337.46)"/><path class="g" d="M1392,2755.17c-3,2.79-5,5.67-9,10.3a186.62,186.62,0,0,1-15.42,16.2,177.26,177.26,0,0,1-17.2,12.77,60.08,60.08,0,0,1-13.36,6.34l-1.65-1.13a5.91,5.91,0,0,1,0-3.25c.51-1.66,2.49-4.36,7.46-12.14,6.36-9.94,8.11-13.53,9.74-20.32s4.52-14.19,6.32-15.05,5.77-1.39,12.24-4.22c12.7-5.55,7.42-.93,12.51-9.79,2.3-4-.85-7.88.1-7.3a11.33,11.33,0,0,0,6.12,3.94c4.57.89,9.15,4.91,12.75,10.23C1400.86,2746.35,1395,2752.46,1392,2755.17Z" transform="translate(-1144.6 -2337.46)"/><path class="h" d="M1362.66,2739.71c-2.18-.44-3.25-2-5.7-1.79-1.31.12-2.65,2.61-1.76,9,.77,5.49-1.39,12.13-1.39,12.13l.22-.23a68.62,68.62,0,0,1-6.11,15.61l1.42.61c4-8.57,7.2-16.65,9.4-22.37,1.27-2.13,4.84-3.51,5.46-5C1366.09,2743,1364.07,2740,1362.66,2739.71Z" transform="translate(-1144.6 -2337.46)"/><path class="i" d="M1336.91,2799.39a3,3,0,0,0,3.24.26l1-.44,0,0,1.13-.48h0l1.22-.56h0l1.22-.6.1,0,1.29-.66h0c.44-.23.88-.47,1.31-.72l.1,0c.41-.23.83-.48,1.24-.73l.12-.06,1.3-.82a127.88,127.88,0,0,0,32.62-29c3.14-3.69,18.63-18.74,20.34-23.34-.29-.44-1.86-1.69-2.16-2.1a34.91,34.91,0,0,1-1.29,4.56c-2.85,6.31-17.35,19.54-21.81,24.78a99.71,99.71,0,0,1-32.33,25.14s-8.28,3.48-5.51-2.7c2.39-5.35,9.14-16.81,9.14-16.81l-1.09-1.15c-8.94,17.41-12,15.54-13.56,20.5-.26.8-.67,3.51.4,4.7A1.65,1.65,0,0,1,1336.91,2799.39Z" transform="translate(-1144.6 -2337.46)"/><path class="j" d="M1401.54,2740.28c-3.46-4.86-7.38-7.92-11.72-8.76a6,6,0,0,1-.61-.15c-.6.73-.51,1.56,1.69,2.25,3.89,1.21,8.64,5.76,10.27,7.47A4.85,4.85,0,0,1,1401.54,2740.28Z" transform="translate(-1144.6 -2337.46)"/><path class="i" d="M1351,2778.61s0-6.35-3.77-1.47c-1.38,1.77-11.52,18.06-8.61,19.22,1.9.76,1.59,1.2,5.67-.06s19.19-12,16.07-10.51c-6.75,3.32-7.59.37-6.45-5.44a45.89,45.89,0,0,1,2-7.81Z" transform="translate(-1144.6 -2337.46)"/><path class="k" d="M1354.52,2774.2s23.24-2.17,11.12,7.7c0,0,9.08-6.66,9.69-9.62s-5.94-6.17-17.86-5.17Z" transform="translate(-1144.6 -2337.46)"/><path class="k" d="M1357.75,2764.74s25.06-1.23,17.76,7.73c0,0,6.85-5.36,7-8.35.31-6.07-9.89-7.46-21.81-6.47Z" transform="translate(-1144.6 -2337.46)"/><path class="k" d="M1361.5,2755.67s29.79-1.58,21.9,8.64c0,0,8.58-6.68,8.73-9.67.19-3.79-16.61-3.72-10.05-16,1.31-2.45-14.56,10.09-19,10.47Z" transform="translate(-1144.6 -2337.46)"/><path class="g" d="M1391.74,2732.06a13.06,13.06,0,0,0-1.92-.54l-.41-.1a16.07,16.07,0,0,1-5-4.1c-4.33-5.27-4.52-.21-4.07.77,1,2.16,4.33,6.13-3.9,12.59a34.51,34.51,0,0,1-15,6.88c-3.33.58-4.27,1.39-4.49,1.7-2.32,5-1.75,6.65-2.85,11.94a92.85,92.85,0,0,1-7.1,17.91,7.47,7.47,0,0,0,7.23-3.17h0c.09-.14.18-.28.26-.42h0a5.11,5.11,0,0,0,.28-.46l0-.09c.07-.14.15-.27.22-.42s.17-.37.26-.56c2.76-6.43,6.32-17.82,7.36-20.42s5.39-5.32,8.86-6.86c10.12-4.49,9.44-7.7,15.79-10.48,2.2-1,6.23-.79,11.49,2.06.09,0-3.43-3.68-3.35-3.72s-4.21-1.07-4.19-1.08a.69.69,0,0,0,.18-.16l0,0a1.28,1.28,0,0,0,.15-.25s0,0,0,0a1.4,1.4,0,0,0,.09-.29v0h0A2.62,2.62,0,0,0,1391.74,2732.06Z" transform="translate(-1144.6 -2337.46)"/><path class="l" d="M1359.38,2750.65a1,1,0,0,0,1.39,0,1,1,0,0,0,.11-1.39,1,1,0,0,0-1.5,1.35Z" transform="translate(-1144.6 -2337.46)"/><path class="m" d="M1359.54,2750.51a.8.8,0,0,0,1.19-1.07.8.8,0,0,0-1.19,1.07Z" transform="translate(-1144.6 -2337.46)"/><path class="n" d="M1360.28,2750.93s-3.43,3.21-5.24,2.41c0,0-.62-1,.19-1,2.24-.25,2.35-1.08,4.39-2.89C1359.62,2749.41,1361.24,2749.69,1360.28,2750.93Z" transform="translate(-1144.6 -2337.46)"/><path class="l" d="M1358.12,2757.46a1,1,0,0,0,1.37.19,1,1,0,0,0,.26-1.38,1,1,0,0,0-1.37-.19A1,1,0,0,0,1358.12,2757.46Z" transform="translate(-1144.6 -2337.46)"/><path class="m" d="M1358.29,2757.33a.77.77,0,0,0,1.09.15.8.8,0,0,0,.21-1.09.8.8,0,0,0-1.3.94Z" transform="translate(-1144.6 -2337.46)"/><path class="n" d="M1359,2757.83s-3.75,2.84-5.45,1.85c0,0-.5-1,.31-1,2.24,0,2.43-.83,4.66-2.42C1358.5,2756.24,1360.07,2756.7,1359,2757.83Z" transform="translate(-1144.6 -2337.46)"/><path class="l" d="M1356.19,2763.8a1,1,0,0,0,1.34.36,1,1,0,0,0,.42-1.34,1,1,0,0,0-1.33-.35A1,1,0,0,0,1356.19,2763.8Z" transform="translate(-1144.6 -2337.46)"/><path class="m" d="M1356.38,2763.7a.75.75,0,0,0,1,.28.79.79,0,0,0,.34-1.06.76.76,0,0,0-1-.28A.79.79,0,0,0,1356.38,2763.7Z" transform="translate(-1144.6 -2337.46)"/><path class="n" d="M1357,2764.28s-3.87,2.36-5.44,1.16c0,0-.37-1.08.43-1,2.21.26,2.34-.51,4.73-1.82C1356.72,2762.64,1358.21,2763.28,1357,2764.28Z" transform="translate(-1144.6 -2337.46)"/><path class="l" d="M1353.68,2770a.93.93,0,0,0,1.24.57,1,1,0,0,0,.64-1.26.93.93,0,0,0-1.23-.57A1,1,0,0,0,1353.68,2770Z" transform="translate(-1144.6 -2337.46)"/><path class="m" d="M1353.87,2769.94a.74.74,0,0,0,1,.45.8.8,0,0,0,.52-1,.76.76,0,0,0-1-.46A.83.83,0,0,0,1353.87,2769.94Z" transform="translate(-1144.6 -2337.46)"/><path class="n" d="M1354.38,2770.62s-3.68,1.71-5,.26c0,0-.18-1.14.59-.91,2.11.64,1.86-.13,4.41-1C1354.38,2768.94,1355.73,2769.83,1354.38,2770.62Z" transform="translate(-1144.6 -2337.46)"/><path class="l" d="M1358.91,2753.81a1,1,0,0,0,1.49-1.35,1,1,0,0,0-1.49,1.35Z" transform="translate(-1144.6 -2337.46)"/><path class="m" d="M1359.06,2753.67a.8.8,0,0,0,1.19-1.07.8.8,0,0,0-1.19,1.07Z" transform="translate(-1144.6 -2337.46)"/><path class="l" d="M1355.65,2751.14s-1.89,2.47,1.71,2.78c2.24.19,2.44-.37,2.38-.77s0-.79-1.43-.52C1356.52,2753,1355.25,2751.68,1355.65,2751.14Z" transform="translate(-1144.6 -2337.46)"/><path class="l" d="M1357.3,2760.56a1,1,0,0,0,1.37.19,1,1,0,1,0-1.37-.19Z" transform="translate(-1144.6 -2337.46)"/><path class="m" d="M1357.47,2760.44a.77.77,0,0,0,1.08.15.77.77,0,0,0,.21-1.09.76.76,0,0,0-1.08-.15A.78.78,0,0,0,1357.47,2760.44Z" transform="translate(-1144.6 -2337.46)"/><path class="l" d="M1354.27,2757.41s-2,2.39,1.49,3.1c2.2.44,2.46-.11,2.44-.51s.14-.79-1.36-.68C1355,2759.45,1353.81,2757.89,1354.27,2757.41Z" transform="translate(-1144.6 -2337.46)"/><path class="l" d="M1355,2766.82a1,1,0,0,0,1.33.35,1,1,0,0,0,.43-1.34,1,1,0,0,0-1.33-.35A1,1,0,0,0,1355,2766.82Z" transform="translate(-1144.6 -2337.46)"/><path class="m" d="M1355.2,2766.71a.75.75,0,0,0,1,.28.81.81,0,0,0,.34-1.06.77.77,0,0,0-1.06-.28A.8.8,0,0,0,1355.2,2766.71Z" transform="translate(-1144.6 -2337.46)"/><path class="l" d="M1352.67,2763.41s-2.56,2.05.83,3.16c2.12.7,2.44.19,2.47-.22s.23-.76-1.26-.83C1352.91,2765.43,1352.15,2763.85,1352.67,2763.41Z" transform="translate(-1144.6 -2337.46)"/><path class="l" d="M1352,2772.8a.93.93,0,0,0,1.24.57,1,1,0,0,0,.65-1.25,1,1,0,0,0-1.24-.59A1,1,0,0,0,1352,2772.8Z" transform="translate(-1144.6 -2337.46)"/><path class="m" d="M1352.2,2772.73a.74.74,0,0,0,1,.45.8.8,0,0,0,.52-1,.74.74,0,0,0-1-.46A.81.81,0,0,0,1352.2,2772.73Z" transform="translate(-1144.6 -2337.46)"/><path class="l" d="M1350.61,2768.82s-3.15,1.79,0,3.48c1.94,1.06,2.35.6,2.45.21s.35-.73-1.09-1.05C1350.19,2771.06,1350,2769.16,1350.61,2768.82Z" transform="translate(-1144.6 -2337.46)"/><path class="n" d="M1356.13,2751.52s4.72-8.87-.28-10.13-1.45,7.86-.2,9.91l.38-.48s-2.63-5.66-1.65-7.59,2.17-.69,2.33.19a14.87,14.87,0,0,1-.13,6.58c0,.2-.66.75-.72,1S1356.23,2751.22,1356.13,2751.52Z" transform="translate(-1144.6 -2337.46)"/><path class="n" d="M1356,2749.94s-2.65-5.9-6.55-5.49-4.21,3.29,1.22,5.17l5.43,1.9.08-.88a33.23,33.23,0,0,1-5.76-2.19c-1.8-1-3.58-2.32-1.86-2.68s3-.39,5.07,2c1,1.15,1.58,2.43,2,2.91s.76.18.76.18Z" transform="translate(-1144.6 -2337.46)"/><path class="o" d="M1355.58,2751.59a10.55,10.55,0,0,1-2.09,2.92,7.47,7.47,0,0,0-1.58,5.35c.15.14-.3.68-.3.68s-.6,0-.91-1-.82-3.1,2-5.52,3.26-3.49,3.26-3.49S1357.17,2750.3,1355.58,2751.59Z" transform="translate(-1144.6 -2337.46)"/><path class="o" d="M1356.14,2750.23a46.51,46.51,0,0,1-2.15,5.29c-1,1.81-1.24,4.94-2,5.78s0,1.26,0,1.26.78-.12,1.61-4.06,2-4.91,2.38-6.12S1356.66,2750.73,1356.14,2750.23Z" transform="translate(-1144.6 -2337.46)"/><path class="p" d="M1403.89,2741.92a20.1,20.1,0,0,1-2.75-1.89,96.54,96.54,0,0,1-18.27,24.21c-4.41,4.26-11,11.7-16.34,16.39a185,185,0,0,1-16.38,12.91,65.12,65.12,0,0,1-10.32,5.43,2.76,2.76,0,0,1-3.27-.81c-1.07-1.22-2.47-2.09-2.19-.19.17,1.17,2,3.22,2.49,3.76.87.85,5.09-.31,9.84-2,5.76-2,15.18-7.22,28.2-19.46,8.89-8.35,15-13.75,20.42-18.36,15.26-13.12,13.09-15.53,10.92-17.93A12.28,12.28,0,0,0,1403.89,2741.92Z" transform="translate(-1144.6 -2337.46)"/><path class="q" d="M1401.65,2746.58s-7.38,10.62-11.42,14.25c-6.33,5.68-1.19,3.44,5.89-1.82C1408,2750.15,1405.59,2742.7,1401.65,2746.58Z" transform="translate(-1144.6 -2337.46)"/><path class="q" d="M1365.65,2787.11s-11.13,10.14-21.94,13c0,0,5-3.23,8.51-5.46C1365.05,2786.43,1364.39,2782.76,1365.65,2787.11Z" transform="translate(-1144.6 -2337.46)"/><path class="r" d="M1423.48,2587.05c-4.94,13.46-13.45,24.79-39.47,38.34-30.06,15.65-43.51,28.07-43.51,28.07L1304.77,2618l42.77-46.44,1.07-7.56,59.91-20.56S1428.42,2573.58,1423.48,2587.05Z" transform="translate(-1144.6 -2337.46)"/><path class="s" d="M1182.36,2548a31.35,31.35,0,0,0,8,1.13,3.73,3.73,0,0,0-.13-7.46c-1.21,0-28.82-.17-31-39.13l1-75.49a3.74,3.74,0,0,0-7.47-.1l-1,75.62v.25c1.32,24,11.64,35.36,20,40.63A37.5,37.5,0,0,0,1182.36,2548Z" transform="translate(-1144.6 -2337.46)"/><path class="t" d="M1154.61,2466.91a5.92,5.92,0,0,0,1.33.18,5.62,5.62,0,0,0,5.69-5.53l.48-34.47a5.6,5.6,0,0,0-11.2-.16l-.48,34.48A5.59,5.59,0,0,0,1154.61,2466.91Z" transform="translate(-1144.6 -2337.46)"/><polygon class="u" points="223.7 399.87 237.4 401.88 257.23 280.42 243.53 278.42 223.7 399.87"/><polygon class="u" points="53.9 378.57 78.25 387.84 55.31 201.55 35.03 187.01 53.9 378.57"/><path class="v" d="M1317.35,2768.33a51,51,0,1,0,51-51A51,51,0,0,0,1317.35,2768.33Z" transform="translate(-1144.6 -2337.46)"/><polygon class="v" points="166.59 492.51 273.49 493.14 212.45 381.12 167.31 381.12 166.59 492.51"/><path class="v" d="M1412,2794.8s-7.18,11.36-3.43,18.24-10.75,4.79-10.75,4.79-11.33-7.85-11.33-9-3-15-2.3-15.7.91-6.24,4.16-6.7S1407,2781.47,1412,2794.8Z" transform="translate(-1144.6 -2337.46)"/><path class="v" d="M1302.85,2746.41a69,69,0,1,1-68.94-69A68.95,68.95,0,0,1,1302.85,2746.41Z" transform="translate(-1144.6 -2337.46)"/><polygon class="v" points="166.59 492.3 21.98 493.38 104.61 341.7 227.83 381.12 166.59 492.3"/><path class="v" d="M1175,2782.2s9.72,15.36,4.65,24.65,14.54,6.49,14.54,6.49,15.3-10.62,15.3-12.18,4-20.3,3.11-21.23-1.25-8.44-5.62-9S1181.67,2764.19,1175,2782.2Z" transform="translate(-1144.6 -2337.46)"/><path class="v" d="M1166.11,2840.88a5,5,0,0,0,5,5h242.61a5,5,0,0,0,5-5V2833a5,5,0,0,0-5-5H1171.08a5,5,0,0,0-5,5Z" transform="translate(-1144.6 -2337.46)"/><path class="t" d="M1359.65,2600.18s19.92-1.59,48.57-4.25,32.63,27.16,21.58,35.68-16.89,3.2-27.54-3.72-22.91-8-36.22-12S1350.06,2604.45,1359.65,2600.18Z" transform="translate(-1144.6 -2337.46)"/><path class="t" d="M1361,2763.49a26.77,26.77,0,1,0-10.52,36.37A26.78,26.78,0,0,0,1361,2763.49Z" transform="translate(-1144.6 -2337.46)"/><path class="w" d="M1341.49,2774.27a4.45,4.45,0,1,0-1.75,6A4.44,4.44,0,0,0,1341.49,2774.27Z" transform="translate(-1144.6 -2337.46)"/><path class="w" d="M1339,2777.36a5.42,5.42,0,0,0-.11-4.08c-.88-2.1-2.92-3.78-6.07-5-6.7-2.58-35.24-13.32-35.53-13.43l-1.38,3.66c.29.1,28.81,10.85,35.5,13.43,2.05.79,3.43,1.81,3.86,2.84a1.7,1.7,0,0,1,.14,1Z" transform="translate(-1144.6 -2337.46)"/><path class="w" d="M1327.44,2749.27a4.74,4.74,0,0,0-5.61-3.72l-48.72,9.11a4.77,4.77,0,0,0-3.72,5.62h0A4.75,4.75,0,0,0,1275,2764l48.72-9.11a4.76,4.76,0,0,0,3.72-5.62Z" transform="translate(-1144.6 -2337.46)"/><path class="u" d="M1179.53,2548.57a31.36,31.36,0,0,0,7.55,2.82,3.73,3.73,0,1,0,1.48-7.31c-1.18-.25-28.1-6.39-21.83-44.9L1184,2425.7a3.73,3.73,0,1,0-7.27-1.71l-17.34,73.61c0,.08,0,.15,0,.24-3.9,23.75,3.72,37,10.8,44A37.92,37.92,0,0,0,1179.53,2548.57Z" transform="translate(-1144.6 -2337.46)"/><path class="t" d="M1168.43,2462.78a5.81,5.81,0,0,0,1.27.46,5.6,5.6,0,0,0,6.73-4.16l7.91-33.57a5.6,5.6,0,0,0-10.9-2.57l-7.91,33.57A5.62,5.62,0,0,0,1168.43,2462.78Z" transform="translate(-1144.6 -2337.46)"/><path class="x" d="M1212.12,2561.47l-26.09-17s-17.24-10.35-17.12-28c0-8,3.34-17.66,19.78-4.87S1251.08,2589.42,1212.12,2561.47Z" transform="translate(-1144.6 -2337.46)"/><path class="y" d="M1392.22,2476.08c-15.36-34.72-23.54-50.38-57.65-67.16-7.94-3.9-20.93,14.9-20.93,14.9a111.36,111.36,0,0,1,.27,18c-1.14,23.23,7.32,40,18.86,44.33,5.93,2.19,13.16,17.17,17.49,24.24,20.22,33,29.27,44,46.31,65.69,4,5.06,15.29-1.93,20.14-7.66-3.43-7.05,9-22.69,1.38-34.76C1405.25,2513.39,1407.42,2510.44,1392.22,2476.08Z" transform="translate(-1144.6 -2337.46)"/><g class="b"><path class="z" d="M1365.86,2507a17.27,17.27,0,0,1-2.46,2.94,12.24,12.24,0,0,1-3.1,2.09,21.31,21.31,0,0,1-3.86,1.26,7.8,7.8,0,0,0,4.37.29,8.41,8.41,0,0,0,4-2.12,10.24,10.24,0,0,0,2.5-3.7,9.58,9.58,0,0,0,.67-4.29C1367.28,2504.72,1366.6,2505.89,1365.86,2507Z" transform="translate(-1144.6 -2337.46)"/><path class="z" d="M1371.74,2510.78c-.68,1.13-1.3,2.16-2,3.12a16.5,16.5,0,0,1-2.2,2.59,11.53,11.53,0,0,1-2.73,1.88,20.5,20.5,0,0,1-3.43,1.21,6.73,6.73,0,0,0,3.93.34A7.47,7.47,0,0,0,1369,2518a8.77,8.77,0,0,0,2.23-3.35A8.19,8.19,0,0,0,1371.74,2510.78Z" transform="translate(-1144.6 -2337.46)"/><path class="z" d="M1372.14,2523.83a9.91,9.91,0,0,1-1.83,1.34,23.09,23.09,0,0,1-2.4,1.09,4.45,4.45,0,0,0,2.9.47,5.38,5.38,0,0,0,2.75-1.38,6,6,0,0,0,1.61-2.53,5.26,5.26,0,0,0,.18-2.89c-.6.78-1.11,1.49-1.63,2.14A15.14,15.14,0,0,1,1372.14,2523.83Z" transform="translate(-1144.6 -2337.46)"/><path class="z" d="M1362.11,2454.1c-.46-.64-.88-1.3-1.28-2a32.38,32.38,0,0,1-1.86-3.84,30.43,30.43,0,0,0-.71,3.49c.22.48.45,1,.71,1.43a23.83,23.83,0,0,0,1.29,2.17c.46.7,1,1.39,1.45,2a9.57,9.57,0,0,1,1.62,4.16,11.35,11.35,0,0,1-.44,4.7,22.63,22.63,0,0,1-5.47,8.88,37.25,37.25,0,0,1-8.74,6.85,28.94,28.94,0,0,1-10.37,3.69,16.37,16.37,0,0,1-5.28-.11,12.26,12.26,0,0,1-4.65-2,11.11,11.11,0,0,0,4.39,2.55,16,16,0,0,0,5.48.59,28.36,28.36,0,0,0,11.16-3.31,37.67,37.67,0,0,0,9.57-7,24.86,24.86,0,0,0,6.18-9.86,13.28,13.28,0,0,0,.46-5.54,11.12,11.12,0,0,0-2-4.91C1363.07,2455.31,1362.57,2454.75,1362.11,2454.1Z" transform="translate(-1144.6 -2337.46)"/><path class="z" d="M1369.17,2493.59a13.52,13.52,0,0,0,3.65-1.1,24.36,24.36,0,0,1-3.72.08c-1.24,0-2.47-.12-3.7-.21-2.45-.18-4.9-.44-7.37-.71a34.54,34.54,0,0,0-7.61-.12,20.48,20.48,0,0,0-3.79.74,11.54,11.54,0,0,0-1.79.72,5.35,5.35,0,0,0-1.57,1.12,7.41,7.41,0,0,1,1.76-.58,15.78,15.78,0,0,1,1.81-.26,29.61,29.61,0,0,1,3.65-.11c2.44.05,4.87.28,7.32.56a49,49,0,0,0,7.57.27A32.26,32.26,0,0,0,1369.17,2493.59Z" transform="translate(-1144.6 -2337.46)"/><path class="z" d="M1361.52,2484.21a24.88,24.88,0,0,1-3.88,1.52,8.5,8.5,0,0,0,4.45,0,9.89,9.89,0,0,0,4-2.15,11.16,11.16,0,0,0,2.74-3.6,9.93,9.93,0,0,0,1.06-4.3c-.81,1.24-1.6,2.38-2.45,3.44a20.78,20.78,0,0,1-2.72,2.89A15.37,15.37,0,0,1,1361.52,2484.21Z" transform="translate(-1144.6 -2337.46)"/><path class="z" d="M1358.6,2520.92q-2.07-3.26-4.34-6.37a73.41,73.41,0,0,0-4.84-6.06,73.44,73.44,0,0,0,3.47,6.93q1.88,3.38,4,6.62c1.38,2.17,2.82,4.29,4.34,6.37a73,73,0,0,0,4.84,6.06,74.59,74.59,0,0,0-3.46-6.93C1361.31,2525.28,1360,2523.08,1358.6,2520.92Z" transform="translate(-1144.6 -2337.46)"/></g><path class="y" d="M1308,2416.59s8.8,7.84,7.13,15.83,27.17-15.64,25.37-18.46-11.66-15.15-12.5-20.85C1328,2393.11,1319.57,2409.59,1308,2416.59Z" transform="translate(-1144.6 -2337.46)"/><path class="y" d="M1328.47,2369.92c6.43,16.61,13,25.25-7.15,38.62-7.22,4.79-17,11.54-21,13.79-6.84,3.79-13-3.81-23.7-21.26-8.55-14-10.37-33.74-10.37-33.74,2.85-9.63,18.76-15.28,28.08-18.89C1311.53,2341.78,1320.83,2350.17,1328.47,2369.92Z" transform="translate(-1144.6 -2337.46)"/><path class="y" d="M1270.34,2384.05s4.88,18.84,4.83,20.61.37,4.61,5,2.75c4.8-1.94,5.17-4.36,5.17-4.36Z" transform="translate(-1144.6 -2337.46)"/><path class="aa" d="M1305.08,2384.67s6.17,18.73-3.41,25.2c-.94.62-.57,3.14-1,4.25-3.5,8.58-10.66,4.52-10.66,4.52l-.77.38a12.74,12.74,0,0,0,2.74,2.74c2.2,1.83,3.41,2.89,5.15,2,19.55-9,21.92-18.41,22-21.29C1319.22,2397.65,1303.46,2376.69,1305.08,2384.67Z" transform="translate(-1144.6 -2337.46)"/><path class="aa" d="M1293.14,2404.11c-3.82,1.74-11.48,4-10.8,7,.35,1.41,2,2.61,2.45,2.52a67.18,67.18,0,0,0,7.11-4c2.39-1.53,5.45.27,6.91,4.05s2.08,2.35.07,4.18,1.64,1.48,1.64,1.48l2.69-4.95S1299.09,2401.4,1293.14,2404.11Z" transform="translate(-1144.6 -2337.46)"/><path class="aa" d="M1311.25,2403.4a20.43,20.43,0,0,0,.51-3.61l-.07-.86A43.44,43.44,0,0,1,1311.25,2403.4Z" transform="translate(-1144.6 -2337.46)"/><path class="aa" d="M1308.39,2362.61a27.82,27.82,0,0,0-3.67-5.53c-1.7-2.07-6.7-4.24-9.56-6.09-.33-.25-.66-.49-1-.71,0,0,0,0,0,0a6,6,0,0,0-1.4-.79,14.58,14.58,0,0,0-7.93-1.24l-.87.07c-.43-.05-.86-.1-1.3-.17a15.26,15.26,0,0,0-5.47.33,75.18,75.18,0,0,0-8.89.12,12.49,12.49,0,0,0-4.65,3.6,15.39,15.39,0,0,0-2.41,4.74,14,14,0,0,0-1,5.7,20.31,20.31,0,0,0,1.46,5.51c.83,2,2.22,3.55,3.33,5.41.93,1.56,1,3.4,2.52,4.61a12.13,12.13,0,0,0,1.35,1c.65,0,1.4.05,2.3,0,3.48-.07,4.18-1.36,5.74-3.47a16.23,16.23,0,0,0,2.06-1.95,32.53,32.53,0,0,1,3.29-3.25c16.57-9.22,23.83,19.09,24.57,22.59s3.29,7,2.62,2.36c0-.27,1.22.34.67-1.75,0,0-.06-.08,0,0,1.51,1.46,1.77,4,1.67,6.13.09,1.22.25,3.32.25,3.32a91.83,91.83,0,0,0,1.43-11.48c.19-4.35-1.77-17.29-3-22.47C1310.05,2365.8,1309.56,2364.06,1308.39,2362.61Z" transform="translate(-1144.6 -2337.46)"/><path class="aa" d="M1268.27,2348.58a34.63,34.63,0,0,1,10.57-4.66c5.74-1.3,5.15-3.05,8.75-4.45a41.42,41.42,0,0,1,14.49-2c15.46,1,17.84,7.56,20.82,9.75s8.56,7.18,8.84,11-.38,5.32,2.52,9.68,1.14,3.66,1,8,1,3.73,1,7.37,1.32,3.49-.08,6.12-.34,2.63-.92,4.64.24,2.32-1.5,4.06-7.46,10.49-14.54,7.6c-8.68-3.54-6.65-7.66-7.51-8.14s-3.28-13.86-3.28-13.86-1-9.33-1.66-10.16-2.47-6.8-4.82-8.94-19.61-9.76-20.36-9.93S1268.27,2348.58,1268.27,2348.58Z" transform="translate(-1144.6 -2337.46)"/><path class="y" d="M1303.14,2624c-4.61,1-16.09-28.09-9.1-32.57,14.93-7.71,91.32-55.13,107.59-38.69,0,0,36.6,23.7,5,44-23.22,14.95-61.67,17-75.27,20.94C1323.83,2619.87,1311,2623.19,1303.14,2624Z" transform="translate(-1144.6 -2337.46)"/><path class="y" d="M1320.29,2596.64c.61,2.68,2.45,21.62,4.51,24.79,6.53,10,8.69,37.22,5.46,55.61-2.7,15.42-2.66,41.42-2.66,41.42l-16.8,9.39s-5.72-29.48-12.19-63.13c-4.72-24.56-11.89-37.49-13.49-48.84C1286.15,2611.56,1318.21,2594,1320.29,2596.64Z" transform="translate(-1144.6 -2337.46)"/><path class="d" d="M1310,2727l-2.3-15.41s13.39,4.64,20.3.61l.42,8.45S1328,2728.64,1310,2727Z" transform="translate(-1144.6 -2337.46)"/><path class="y" d="M1323.85,2588.26s-20.43-.74-29.81,3.14-8.66,6.95-11,12.15c-3,6.73,4.2,22.66,4.2,22.66s16.18-24.86,16.62-25.17S1323.85,2588.26,1323.85,2588.26Z" transform="translate(-1144.6 -2337.46)"/><path class="e" d="M1346.44,2735.32c.81,3,1,6.12-17.91,10.8-6.87,1.7-15,3-26.48,6.86-16.92,5.73-27.92,5.77-34,5-5-.65-9.3-1.51-9.68-2.65-.06-.18-.1-.36-.14-.53.14.61.3,1.16.42,1.56.39,1.15,4.69,2,9.68,2.65,6.06.78,16.64.44,33.78-4.61,11.73-3.45,19.8-5.54,26.67-7.25,19.54-4.82,18.68-8,17.84-11.08Q1346.54,2735.73,1346.44,2735.32Z" transform="translate(-1144.6 -2337.46)"/><path class="f" d="M1336,2705.5c-.74-.09-1.38.78-1.65,2.27a9.44,9.44,0,0,0,.39,4.74l.09,0a6.4,6.4,0,0,0,.27,2.62l.94-.29a7.41,7.41,0,0,1,.25-4.57,18.09,18.09,0,0,0,.53-2.38C1337.08,2705.84,1336.33,2705.54,1336,2705.5Zm-.15,2.26a14.22,14.22,0,0,1-.51,2.25l-.09.36a8,8,0,0,1,.06-2.47,3.13,3.13,0,0,1,.52-1.38A3.23,3.23,0,0,1,1335.85,2707.76Z" transform="translate(-1144.6 -2337.46)"/><path class="g" d="M1328.77,2739.09c-4,1.11-7,2.8-12.69,5.14a189.73,189.73,0,0,1-21.08,7.5,178.88,178.88,0,0,1-21.11,3.65,59.56,59.56,0,0,1-14.78-.37l-1-1.75a5.91,5.91,0,0,1,1.46-2.9c1.21-1.25,4.2-2.77,12.13-7.47,10.16-6,13.34-8.43,17.86-13.75s10.43-10.63,12.42-10.59,5.78,1.36,12.84,1.75c13.83.77,7,2.51,15.57-3.1,3.85-2.52,2.79-7.42,3.38-6.48a11.34,11.34,0,0,0,3.69,6.28c3.68,2.86,6,8.5,6.77,14.89C1340.67,2735.22,1332.64,2738,1328.77,2739.09Z" transform="translate(-1144.6 -2337.46)"/><path class="h" d="M1309.56,2712.07c-1.74-1.38-2-3.26-4.29-4.17-1.21-.48-3.53,1.14-5.6,7.21-1.79,5.25-6.7,10.21-6.7,10.21l.29-.11a69.19,69.19,0,0,1-12.49,11.18l1,1.18c7.41-5.87,13.93-11.61,18.48-15.73,2.09-1.33,5.9-1,7.13-2C1311.13,2716.56,1310.69,2713,1309.56,2712.07Z" transform="translate(-1144.6 -2337.46)"/><path class="i" d="M1259.68,2753.75a3,3,0,0,0,2.77,1.68l1.13.08h0l1.23.08h0l1.34,0h0l1.37,0h1.57l1.5,0h.1q.72,0,1.44-.09h.13c.52,0,1-.08,1.53-.13a128.51,128.51,0,0,0,42.19-11.15c4.46-1.89,25.06-8.35,28.66-11.68-.06-.52-.89-2.34-1-2.85a38.77,38.77,0,0,1-3.21,3.5c-5.38,4.34-24.3,9.62-30.63,12.29a100.11,100.11,0,0,1-40.2,7.87s-9-.63-3.7-4.91c4.54-3.69,15.73-10.88,15.73-10.88l-.45-1.51c-15.83,11.51-17.71,8.45-21.35,12.18-.58.6-2.18,2.83-1.76,4.38C1258.51,2752.55,1259.25,2752.83,1259.68,2753.75Z" transform="translate(-1144.6 -2337.46)"/><path class="j" d="M1344,2730.1c-.9-5.9-3-10.39-6.51-13.1a4.72,4.72,0,0,1-.48-.41c-.86.38-1.16,1.17.5,2.77,2.92,2.84,5.1,9,5.8,11.3A4.32,4.32,0,0,1,1344,2730.1Z" transform="translate(-1144.6 -2337.46)"/><path class="i" d="M1281.57,2741.52s2.87-5.67-2.7-3c-2,1-18.42,10.94-16.35,13.28,1.35,1.53.88,1.8,5.09,2.5s22.55-2.09,19.08-2.13c-7.52-.08-6.94-3.1-3.31-7.77a45.9,45.9,0,0,1,5.3-6.07Z" transform="translate(-1144.6 -2337.46)"/><path class="k" d="M1286.74,2739.19s21.73,8.54,6.46,11.89c0,0,11.11-1.85,13-4.22s-2.53-8.18-13.61-12.67Z" transform="translate(-1144.6 -2337.46)"/><path class="k" d="M1293.89,2732.2s22.93,10.2,12.37,14.91c0,0,8.53-1.7,10-4.3,3-5.28-5.46-11.12-16.55-15.6Z" transform="translate(-1144.6 -2337.46)"/><path class="k" d="M1301.33,2725.79s27.31,12,15.66,17.59c0,0,10.66-2.1,12.15-4.7,1.88-3.29-13.16-10.81-1.76-18.83,2.28-1.6-17.55,2.44-21.71.77Z" transform="translate(-1144.6 -2337.46)"/><path class="g" d="M1339,2718.36a12.54,12.54,0,0,0-1.47-1.36c-.11-.08-.22-.18-.33-.27a16.25,16.25,0,0,1-2.61-5.92c-1.49-6.66-3.94-2.22-4-1.14-.09,2.37,1.09,7.43-9.16,9.47a34.45,34.45,0,0,1-16.52-.63c-3.24-1-4.44-.69-4.78-.5-4.32,3.4-4.56,5.14-7.92,9.37a93.61,93.61,0,0,1-14.41,12.78,7.45,7.45,0,0,0,7.87.44h0l.43-.25h0l.45-.29s0-.05.08-.06l.38-.28q.24-.18.48-.39c5.37-4.5,13.68-13.06,15.78-14.9s7.21-2.33,11-2.13c11,.55,11.9-2.62,18.82-2.24,2.41.13,5.92,2.1,9.33,7,.06.08-1.41-4.83-1.31-4.84s-3.28-2.84-3.26-2.85a.86.86,0,0,0,.23-.06h0a1.67,1.67,0,0,0,.24-.16l0,0a1.34,1.34,0,0,0,.2-.21s0,0,0,0h0A3.48,3.48,0,0,0,1339,2718.36Z" transform="translate(-1144.6 -2337.46)"/><path class="l" d="M1301.7,2720.36a1,1,0,1,0,.73-1.19A1,1,0,0,0,1301.7,2720.36Z" transform="translate(-1144.6 -2337.46)"/><path class="m" d="M1301.91,2720.31a.77.77,0,0,0,1,.52.78.78,0,0,0,.58-.94.77.77,0,0,0-1-.52A.76.76,0,0,0,1301.91,2720.31Z" transform="translate(-1144.6 -2337.46)"/><path class="n" d="M1302.38,2721s-4.51,1.32-5.78-.2c0,0-.11-1.14.65-.84,2.11.78,2.59.08,5.23-.6C1302.48,2719.37,1303.8,2720.34,1302.38,2721Z" transform="translate(-1144.6 -2337.46)"/><path class="l" d="M1297.51,2725.87a1,1,0,0,0,1.14.78,1,1,0,0,0,.86-1.11,1,1,0,0,0-1.15-.78A1,1,0,0,0,1297.51,2725.87Z" transform="translate(-1144.6 -2337.46)"/><path class="m" d="M1297.71,2725.83a.78.78,0,0,0,.91.63.81.81,0,0,0,.68-.88.78.78,0,0,0-.91-.62A.8.8,0,0,0,1297.71,2725.83Z" transform="translate(-1144.6 -2337.46)"/><path class="n" d="M1298.1,2726.59s-4.61.84-5.69-.81c0,0,0-1.14.73-.78,2,1,2.56.37,5.25,0C1298.39,2725,1299.59,2726.07,1298.1,2726.59Z" transform="translate(-1144.6 -2337.46)"/><path class="l" d="M1292.93,2730.67a1,1,0,0,0,1,.91,1,1,0,0,0,1-1,1,1,0,0,0-1-.91A1,1,0,0,0,1292.93,2730.67Z" transform="translate(-1144.6 -2337.46)"/><path class="m" d="M1293.14,2730.66a.75.75,0,0,0,.81.72.79.79,0,0,0,.78-.8.76.76,0,0,0-.81-.72A.8.8,0,0,0,1293.14,2730.66Z" transform="translate(-1144.6 -2337.46)"/><path class="n" d="M1293.43,2731.46s-4.52.35-5.37-1.42c0,0,.15-1.14.82-.69,1.85,1.22,2.32.61,5,.51C1293.92,2729.86,1295,2731.1,1293.43,2731.46Z" transform="translate(-1144.6 -2337.46)"/><path class="l" d="M1287.89,2735.07a.93.93,0,0,0,.84,1.07,1,1,0,0,0,1.14-.83.93.93,0,0,0-.84-1.07A1,1,0,0,0,1287.89,2735.07Z" transform="translate(-1144.6 -2337.46)"/><path class="m" d="M1288.1,2735.1a.72.72,0,0,0,.66.84.82.82,0,0,0,.91-.65.73.73,0,0,0-.67-.85A.8.8,0,0,0,1288.1,2735.1Z" transform="translate(-1144.6 -2337.46)"/><path class="n" d="M1288.24,2735.93s-4.06-.13-4.58-2c0,0,.36-1.1.93-.55,1.6,1.53,1.73.73,4.41,1.08C1289,2734.44,1289.8,2735.84,1288.24,2735.93Z" transform="translate(-1144.6 -2337.46)"/><path class="l" d="M1299.85,2723a1,1,0,0,0,1.23.66,1,1,0,0,0,.72-1.18,1,1,0,0,0-2,.52Z" transform="translate(-1144.6 -2337.46)"/><path class="m" d="M1300.06,2722.91a.8.8,0,0,0,1.54-.42.79.79,0,0,0-1-.52A.77.77,0,0,0,1300.06,2722.91Z" transform="translate(-1144.6 -2337.46)"/><path class="l" d="M1298.16,2719.12s-2.81,1.34.26,3.24c1.92,1.19,2.36.77,2.47.4s.41-.68-1-1.12C1298.1,2721.12,1297.55,2719.41,1298.16,2719.12Z" transform="translate(-1144.6 -2337.46)"/><path class="l" d="M1295.37,2728.27a1,1,0,0,0,1.14.79,1,1,0,0,0,.86-1.11,1,1,0,0,0-1.14-.78A1,1,0,0,0,1295.37,2728.27Z" transform="translate(-1144.6 -2337.46)"/><path class="m" d="M1295.58,2728.24a.78.78,0,0,0,.9.62.79.79,0,0,0,.68-.88.76.76,0,0,0-.9-.61A.78.78,0,0,0,1295.58,2728.24Z" transform="translate(-1144.6 -2337.46)"/><path class="l" d="M1294.09,2724.08s-2.89,1.23-.07,3.44c1.77,1.39,2.25,1,2.41.65s.48-.63-.9-1.22C1293.86,2726.25,1293.46,2724.31,1294.09,2724.08Z" transform="translate(-1144.6 -2337.46)"/><path class="l" d="M1290.52,2732.82a1,1,0,0,0,1,.91,1,1,0,0,0,1-1,1,1,0,0,0-1-.9A1,1,0,0,0,1290.52,2732.82Z" transform="translate(-1144.6 -2337.46)"/><path class="m" d="M1290.73,2732.81a.75.75,0,0,0,.81.72.8.8,0,0,0,.78-.79.75.75,0,0,0-.81-.72A.79.79,0,0,0,1290.73,2732.81Z" transform="translate(-1144.6 -2337.46)"/><path class="l" d="M1290,2728.72s-3.19.68-.68,3.2c1.58,1.58,2.1,1.27,2.31.92s.55-.57-.75-1.31C1289.27,2730.64,1289.3,2728.88,1290,2728.72Z" transform="translate(-1144.6 -2337.46)"/><path class="l" d="M1285.13,2736.8a.93.93,0,0,0,.85,1.07,1,1,0,0,0,1.14-.82.94.94,0,0,0-.85-1.08A1,1,0,0,0,1285.13,2736.8Z" transform="translate(-1144.6 -2337.46)"/><path class="m" d="M1285.33,2736.83a.75.75,0,0,0,.68.85.83.83,0,0,0,.91-.66.76.76,0,0,0-.67-.85A.83.83,0,0,0,1285.33,2736.83Z" transform="translate(-1144.6 -2337.46)"/><path class="l" d="M1285.68,2732.62s-3.61.18-1.61,3.09c1.26,1.83,1.84,1.59,2.1,1.29s.64-.48-.5-1.43C1284.3,2734.44,1285,2732.67,1285.68,2732.62Z" transform="translate(-1144.6 -2337.46)"/><path class="n" d="M1298.41,2719.67s8.21-5.78,4.32-9.17-4.85,6.36-4.65,8.76l.54-.26s.22-6.24,2-7.52,2.24.36,2,1.22a15,15,0,0,1-3.09,5.81c-.14.16-.92.38-1.07.54S1298.64,2719.45,1298.41,2719.67Z" transform="translate(-1144.6 -2337.46)"/><path class="n" d="M1299,2718.21s.3-6.45-3.37-7.85-5.24,1-1.25,5.17l4,4.14.46-.75a33.1,33.1,0,0,1-4.15-4.55c-1.13-1.74-2.14-3.69-.45-3.24s2.84,1,3.62,4.1c.37,1.48.3,2.88.48,3.5s.61.51.61.51Z" transform="translate(-1144.6 -2337.46)"/><path class="o" d="M1297.89,2719.49a10.7,10.7,0,0,1-3.19,1.66,7.46,7.46,0,0,0-3.82,4.07c.07.18-.57.46-.57.46s-.55-.24-.36-1.31.67-3.14,4.3-4,4.48-1.66,4.48-1.66S1299.88,2719.06,1297.89,2719.49Z" transform="translate(-1144.6 -2337.46)"/><path class="o" d="M1299,2718.53a46.75,46.75,0,0,1-4.3,3.75c-1.68,1.18-3.34,3.85-4.41,4.25s-.55,1.14-.55,1.14.75.24,3.27-2.9,4-3.47,4.88-4.39S1299.23,2719.21,1299,2718.53Z" transform="translate(-1144.6 -2337.46)"/><path class="p" d="M1345.37,2732.62a19,19,0,0,1-1.6-2.92,97,97,0,0,1-27.22,13.38c-5.86,1.81-15.14,5.46-22,7.26a183.07,183.07,0,0,1-20.43,4.15,65.51,65.51,0,0,1-11.66.19,2.76,2.76,0,0,1-2.55-2.2c-.4-1.56-1.27-3-1.87-1.15-.38,1.13.32,3.76.52,4.48.39,1.15,4.69,2,9.68,2.66,6.06.78,16.8.39,34-4.66,11.7-3.45,19.63-5.5,26.5-7.2,19.54-4.83,18.69-8,17.84-11.08A12.13,12.13,0,0,0,1345.37,2732.62Z" transform="translate(-1144.6 -2337.46)"/><path class="q" d="M1341.27,2735.78s-11.37,6.15-16.62,7.57c-8.21,2.22-2.61,2.54,6.08,1C1345.36,2741.85,1346.52,2734.09,1341.27,2735.78Z" transform="translate(-1144.6 -2337.46)"/><path class="q" d="M1290.87,2755.74s-14.52,4-25.44,1.7c0,0,5.93-.63,10.06-1.05C1290.64,2754.86,1291.7,2751.28,1290.87,2755.74Z" transform="translate(-1144.6 -2337.46)"/><path class="k" d="M1430.14,2594.79c-12.4,7.2-23.53,14.15-52.63,17.81-33.63,4.24-48.26,15.62-48.26,15.62l-21.18-45.64,56.24-28.68,3.62-6.71,61.19-13.57S1450.27,2583.09,1430.14,2594.79Z" transform="translate(-1144.6 -2337.46)"/><path class="ab" d="M1366,2539.48s26.09-3.24,58.61-14.65l4.56,8.79s-46.77,16.71-61.62,15.17Z" transform="translate(-1144.6 -2337.46)"/><path class="ac" d="M1348.88,2413.27c-4-1.13-16.37,3.8-19.55,6.12a16.58,16.58,0,0,0-3.06,2.52c-6.69,5.58-12.43,29-11.93,33.16,2,16.25,9.23,27.62,18.43,31,5.93,2.19,13.79,22.33,18.12,29.41,8.94,14.59,11.18,29.81,13.42,38.38,13-6.92,32.21-4,37.52-8.14,9.76-5,25.29-13.71,25.29-13.71-2.85-10.57-18.19-30.31-30.09-52.48C1371.15,2431.37,1368.29,2418.69,1348.88,2413.27Zm7.62,56.5c-15.43,8.56-39.77-24.84-23.27-44.17.73-1.23,1-.68,2.89-.84C1350.36,2421.66,1380.08,2448.24,1356.5,2469.77Z" transform="translate(-1144.6 -2337.46)"/><path class="ac" d="M1337.6,2409.78s10.27,7.85,13.33,9.06,20.86,21.24,20.86,21.24l-6.25-14.9S1350.14,2411.68,1337.6,2409.78Z" transform="translate(-1144.6 -2337.46)"/><path class="y" d="M1256.34,2464.41a15,15,0,0,0-3-2.13c-6-3.55-27.82-8.25-40.91-9.31a91.11,91.11,0,0,1-22.4-4.54l-2.53,15s9,1.21,25.67,8.61,30.45,9.42,40.64,8.84C1257.44,2480.48,1258.5,2466.18,1256.34,2464.41Z" transform="translate(-1144.6 -2337.46)"/><path class="y" d="M1201.11,2451.62s-6.73-1.33-11.13-4.09c-3.73-2.34-5.15-2.93-11.45-6.37-6.84-3.72-6.91-4.53-8.76-6.34s-7,1.1-1.86,6.06,7.21,5.56,7.21,5.56-10.06-4.12-15.4-5.85-8.65-3-9.13-.29c-.25,1.37.29,2.13,7.31,4.77s14.91,5.73,14.91,5.73-26.1-9.09-27.11-6c-.66,2,.29,3.09,8.82,5.74s16.79,4.76,16.79,4.76-22.64-4.77-24.52-4.45c-1.12.2-5.78,2.47,3.3,4.32l21,4.28s-19.31-3.2-19.61-.56,8.26,3.29,20.14,4.89,11.76.51,15.07-.11,12,2.86,12,2.86Z" transform="translate(-1144.6 -2337.46)"/><path class="y" d="M1247.54,2469.49c1.44,0-1.41-7.7-1.41-7.7s32.59-16.18,42.25-15.05c0,0,18.48-13.81,27.88-14.32,23.49-13.5,38-4.64,40.75,10.42,2.61,14.16-13,22.16-29.53,23.29-19.73,1.35-23.35,2.68-31.19,5.76-10.56,4.15-38.29,7.44-43.06,7.46C1251.31,2472.72,1245.77,2476.14,1247.54,2469.49Z" transform="translate(-1144.6 -2337.46)"/><g class="b"><path class="z" d="M1317.7,2464.25c-3.52-.5-7-.78-10.52-1.12-1.75-.16-3.5-.34-5.24-.53s-3.48-.42-5.23-.72a23.86,23.86,0,0,0,5.09,1.59,47.16,47.16,0,0,0,5.27.78c1.77.15,3.54.26,5.31.26A43.08,43.08,0,0,0,1317.7,2464.25Z" transform="translate(-1144.6 -2337.46)"/><path class="z" d="M1265.15,2476.25a18.49,18.49,0,0,0-2.71-2.24l-1.39-1c-.47-.33-.91-.66-1.4-1.06a3.6,3.6,0,0,0,.79,1.7,5.88,5.88,0,0,0,1.34,1.25,7.74,7.74,0,0,0,1.59.88A5.76,5.76,0,0,0,1265.15,2476.25Z" transform="translate(-1144.6 -2337.46)"/></g></svg>