<svg id="Layer_1" data-name="Layer 1" xmlns="http://www.w3.org/2000/svg" viewBox="0 0 484 600.03"><defs><style>.cls-1{fill:#efa986;}.cls-2{fill:#304664;}.cls-3{fill:#265d82;}.cls-4{fill:#444;}.cls-5{fill:#a77961;}.cls-6{fill:#74a1d5;}</style></defs><path class="cls-1" d="M310.8,239.32s-6.39-7.55-3.52-11,27.39-25.37,35.2-26.4c19.36-2.53,51.11-21.46,56.07-26.17s78.73-31.2,82.85-32.87l5.17,12s-58.75,38.85-68.32,43.26-47.06,33.94-50,34.47S310.8,239.32,310.8,239.32Z" transform="translate(-55.57 -124.62)"/><path class="cls-1" d="M486.57,154.85s6.06-3.15,9.76-1.46,15.5,6.43,17.28,5.29,1.32-3.17-.64-4.07-11.05-5.1-10.56-6.25C506,140.09,538,135.77,539,134.14a3.22,3.22,0,0,0-1.18-4.73,115.11,115.11,0,0,0-27.31,1c-14.64,2.35-29.12,12.41-29.12,12.41Z" transform="translate(-55.57 -124.62)"/><path class="cls-2" d="M260.47,391.38s-3.49,10.14-5,13.38S221.2,476,218.4,492s-13.5,53.83-16.3,58.42-11.94,34.05-16.51,58.36-14.23,65.93-16.26,71.06,17.52,5.41,17.52,5.41,28.46-61.61,34.81-73,12.2-30.8,13-43.23,8.89-18.91,16-28.37,41.41-81,47.76-87.54,10.29-6,10.29-6V395.23Z" transform="translate(-55.57 -124.62)"/><path class="cls-2" d="M354.75,391.38s3.5,10.14,5,13.38,37.92,75.43,40.71,91.37,9.85,49.67,12.65,54.26,11.94,34.05,16.51,58.36,14.23,65.93,16.26,71.06-17.53,5.41-17.53,5.41-28.45-61.61-34.81-73-12.19-30.8-12.95-43.23-8.9-18.91-16-28.37-41.41-81-47.77-87.54-10.41-6-10.41-6l.13-51.92Z" transform="translate(-55.57 -124.62)"/><path class="cls-1" d="M250.26,244.6s-4.2-9-8.58-7.82S203.72,259,199,264.12c-13.35,14.24-36.79,31.1-43.15,33.64s-61.23,58.5-64.47,61.55L100.1,369s59.83-37.16,67.84-44,50.49-28.58,52.21-31.06S250.26,244.6,250.26,244.6Z" transform="translate(-55.57 -124.62)"/><path class="cls-3" d="M257.05,220.79s-17.1,9.62-20.82,12.05C223.46,241.23,214,249.61,199,264.12c0,0,8.49,27,16.68,38.21,0,0,21.78-11.37,23.3-11.18s18.37,31.64,19.89,43.64c1.06,8.31,2.22,51.83,1.65,56.59s73.94,16.73,95.47,3.39c0,0,1.78-51.59,2-59.22s-2.1-69.68-2.29-73.87,20.83-16.2,20.83-16.2-4.82-41.17-15.3-49.17c0,0-24.69,4.85-28.31,4.85s-31.34,2.72-39.91,6.53S257.05,220.79,257.05,220.79Z" transform="translate(-55.57 -124.62)"/><path class="cls-1" d="M100.1,369s-5.4,4.19-5.4,8.26-.64,16.76-2.41,17.91-3.43-.13-3.43-2.29,0-12.38-1.27-12.19c-10.86,1.61-26.3,27-28.21,27.31a3.23,3.23,0,0,1-3.81-3A115.36,115.36,0,0,1,67.9,380.59c8.25-12.32,23.43-21.28,23.43-21.28Z" transform="translate(-55.57 -124.62)"/><path class="cls-1" d="M251.55,203.64s6.76,10.56,6.38,19.82c0,0,3.81,19.65,22.73,12.84s12.51-23.65,12.51-23.65-6.9-4.14-10.6-21.61S251.55,203.64,251.55,203.64Z" transform="translate(-55.57 -124.62)"/><path class="cls-1" d="M235.77,133s-22.22,13.6-3,50.22,39,24.89,40.36,24.27,21.36-8,3.8-55.11C277,152.41,263.52,117.73,235.77,133Z" transform="translate(-55.57 -124.62)"/><path class="cls-1" d="M228,172.64s-3.77-1.78-3.54,1.5,9.67,13.91,10.42,14.82c0,0,.94.93,1.31,0S228,172.64,228,172.64Z" transform="translate(-55.57 -124.62)"/><path class="cls-1" d="M276.25,152.28s1.36-3.94,3.55-1.49,3.34,17.24,3.33,17.82c0,0,0,1.31-.88,1S276.25,152.28,276.25,152.28Z" transform="translate(-55.57 -124.62)"/><path class="cls-4" d="M230.44,178.48l5.32,3.27s-4.29-10.19-4.4-12-3.6-6.92-3.61-8.26,17.56-3.54,42.4-16.82c0,0,.9,10.39,2.86,10.35s5.77,11.61,5.77,11.61l1.48-4.38s-4.78-20.63-6.41-23.73c-2.17-4.13-9-24.78-44-6.36a23.81,23.81,0,0,0-9.67,9.26c-2.55,4.46-4.53,10.61-1.6,16.74C222.43,166.26,230.44,178.48,230.44,178.48Z" transform="translate(-55.57 -124.62)"/><path class="cls-5" d="M283.06,196.31s-5.51,16.71-27.4,11.25c0,0,8.56,7.44,18.54,3.6S283.06,196.31,283.06,196.31Z" transform="translate(-55.57 -124.62)"/><path class="cls-6" d="M168.09,677.09s-7,11.62-12.55,14.86-25.79,12.32-29.09,19.82c-2.32,5.25.85,15.62,20.34,12.19s26.15-14.86,32.06-16.19,12.31-6.3,12.7-15.71-2.37-7.56-1.61-11S168.09,677.09,168.09,677.09Z" transform="translate(-55.57 -124.62)"/><path class="cls-6" d="M446.34,677.09s7,11.62,12.55,14.86,25.79,12.32,29.09,19.82c2.32,5.25-.85,15.62-20.34,12.19s-26.15-14.86-32.06-16.19-12.32-6.3-12.7-15.71,3.18-7.73,2.41-11.16S446.34,677.09,446.34,677.09Z" transform="translate(-55.57 -124.62)"/></svg>