<svg id="Layer_1" data-name="Layer 1" xmlns="http://www.w3.org/2000/svg" viewBox="0 0 169.01 576.79"><defs><style>.cls-1{fill:#efaa87;}.cls-2{fill:#efa986;}.cls-3{fill:#295274;}.cls-4{fill:#0e2d3d;}.cls-5{fill:#a77961;}.cls-6{fill:#eddad3;}.cls-7{fill:#20425d;}</style></defs><path class="cls-1" d="M307.16,714.2c7.79-.15,29.87-1.29,42.13,0s17-.58,16.16-9.38c-.05-.48-.1-1-.17-1.45-1.1-8.61-4.54-19.42-4.78-23-.25-3.81-15.77-1.69-15.77-1.69s-8.14,12-12.61,14.48-18,7.45-23.2,9.75c-.39.18-.8.33-1.23.48h0c-5.49,1.86-14.77,2.12-16.11,5.06C290.14,711.6,299.37,714.34,307.16,714.2Z" transform="translate(-209 -137.78)"/><path class="cls-2" d="M252.93,442.35s16.57-2.5,16.76,13.83c.06,5.92-6.34,10.58-6.63,17-.4,8.77-3.2,34.32-2.67,37s-1.74,6.68-4.54,4.41-3.63-9.68-5.35-12.72-11.85-49.12-11.93-58.45S252.93,442.35,252.93,442.35Z" transform="translate(-209 -137.78)"/><path class="cls-3" d="M371.19,432.65c-12.69,27.05-43.74,19.09-55,10.23-13.47-10.63-47.64-40.17-55.48-56.86,0,0-5.65,46.86-6.08,56.2l-19.42,3.3s-1.29-38.35-9.9-65.34-10.4-65.47-6.13-71.66,17-12.25,24.07-8.86,35.45,19.85,53.15,44.06,33.48,43.83,33.48,43.83l37.44-3.07A47.83,47.83,0,0,1,371.19,432.65Z" transform="translate(-209 -137.78)"/><path class="cls-3" d="M374.08,395.69s12.2,25.61-6.4,58.43c0,0-1.5,20.6-1.72,28.32s-4.51,36.7-1.5,50.65,12.23,34.77,9.44,54.94-16.31,78.54-13.09,93.35l-21.77-1s-3.55-121.79-5.48-126.08-9.45-13.52-9-32.62-26.4-92.28-26.82-114S374.08,395.69,374.08,395.69Z" transform="translate(-209 -137.78)"/><path class="cls-2" d="M338.41,141.87c-9.6-1-31.24,2.54-36.05,27.86a79.91,79.91,0,0,0,1.72,12.43c1.35,5.5-4.44,21.15-3.23,22s6.38,2.18,6.38,2.18,4.59,17.74,10.71,18,29.54-3.2,41.72-24.21S377.18,146.05,338.41,141.87Z" transform="translate(-209 -137.78)"/><path class="cls-4" d="M302.36,169.73s15,11.58,30.39,14.66,24.35,19.67,24.35,19.67,25.37-28.24,7.75-53.34S300.75,139.79,302.36,169.73Z" transform="translate(-209 -137.78)"/><path class="cls-2" d="M350.54,227.17S332,241.91,325,248.62,294.66,279.79,292,287.53s4,19.83,8.73,25.75c4.34,5.45-.6,16.75-.54,23.44s-4.31,55.69-1.38,77.53c.94,7,54.73,9.41,77.44-11.22,0,0-1.58-7.28-13-37.22-3.53-9.24,4.86-63.86,9.7-74.86S375,228.88,350.54,227.17Z" transform="translate(-209 -137.78)"/><path class="cls-2" d="M352.24,227.31c-.79-8.05,1.7-19.35,1.7-19.35s-30.1,10.83-25.41,14.9a9.14,9.14,0,0,1,2.4,5.18c1.22,6.32-.07,15.32-.07,15.32L320.26,254C310.77,264.83,352.63,231.22,352.24,227.31Z" transform="translate(-209 -137.78)"/><path class="cls-2" d="M352.24,227.31a.13.13,0,0,1,0,.06c0,4.19-41.43,37.41-32,26.58l10.6-10.59s.21-1.45.38-3.59a47.71,47.71,0,0,0-.31-11.73,9.14,9.14,0,0,0-2.4-5.18c-4.69-4.07,25.41-14.9,25.41-14.9s-2.32,10.51-1.77,18.48C352.19,226.73,352.22,227,352.24,227.31Z" transform="translate(-209 -137.78)"/><path class="cls-2" d="M339.24,184.05c.26-3,3.87-7.3,8.55-2.91s-2.79,18.29-6.74,16.65S339,187.15,339.24,184.05Z" transform="translate(-209 -137.78)"/><path class="cls-5" d="M328.53,222.86c1.22,1.06,2.1,3.63,2.53,5.86a47.7,47.7,0,0,0,18.27-16.32C342.55,219.41,328.53,222.86,328.53,222.86Z" transform="translate(-209 -137.78)"/><path class="cls-4" d="M335.33,185s5.53,39.76-7.53,46.23c0,0,26.95-4.81,40.24-19,0,0,18.76-62-21.77-72.67C306.21,129.1,335.33,185,335.33,185Z" transform="translate(-209 -137.78)"/><path class="cls-2" d="M217.51,323.32s-5.16-.11-6.74-.33-.51,3.13,1.33,3.76S217.51,323.32,217.51,323.32Z" transform="translate(-209 -137.78)"/><path class="cls-2" d="M214.66,348a10.56,10.56,0,0,0,3.36.28s2-.61,3.39-.95a8.17,8.17,0,0,1,1.11-.22,19.38,19.38,0,0,0,6.07-1.07c2.54-1,11.17-5.51,11.17-5.51l-2.53-8-1.91-6.36s-14.65-3.79-17.13-3.12a5.21,5.21,0,0,0-.7.23c-2,.77-3.24,2.2-4.27,2.73-.37.2-4,2.4-4.16,3.65a4.13,4.13,0,0,0,1.17,3.83s-.34,3.42.94,5.35a6.12,6.12,0,0,0,1.85,5.08S213,347.1,214.66,348Z" transform="translate(-209 -137.78)"/><path class="cls-6" d="M373,291c-2.25,5.11-5.26,19.62-7.49,34.62h0c-35.05,1.38-64.56,5.35-64.56,5.35,1.17-6.24,3.1-13.58-.14-17.65-4.72-5.92-11.34-18-8.73-25.75s25.88-32.2,32.92-38.91c1.53-1.45,3.6-3.29,5.9-5.26,0,0,.21-1.45.38-3.59h0l17.39-11.08h0L351,227.2l1.2-.76c0,.29.05.58.07.87a.13.13,0,0,1,0,.06C375.08,231.28,377.69,280.22,373,291Z" transform="translate(-209 -137.78)"/><path class="cls-3" d="M364.46,533.09c3,13.95,12.23,34.77,9.44,54.94s-16.31,78.54-13.09,93.35l-21.77-1s-3.55-121.79-5.48-126.08-9.45-13.52-9-32.62c.4-17.54-22.19-80.67-26.22-107.66a.13.13,0,0,0,0-.06c-1-7.36-1.22-24.94-.59-25.3,0,0,41,.22,71.36-7.34,2.32,6.39,3.92,11,5,14.34v0c.41.89,11.86,26.17-6.41,58.4,0,0-1.5,20.6-1.72,28.32S361.45,519.14,364.46,533.09Z" transform="translate(-209 -137.78)"/><path class="cls-2" d="M366.9,245.35s-9.13-8.27-19.79-1.53-12.9,16-16.32,20.22-23.18,35.18-25,35.76-16.21,4.69-33,11.44c-16.47,6.63-37.44,14.87-37.44,14.87l-1.25,7.75,5.69,6.64s65.54-15.51,81-24.81c15.11-9.08,36.79-34.43,36.79-34.43S380.3,258.54,366.9,245.35Z" transform="translate(-209 -137.78)"/><path class="cls-7" d="M260.74,386s1-21.75-1.6-28.52a152.7,152.7,0,0,1,9.08,39.82A59.91,59.91,0,0,1,260.74,386Z" transform="translate(-209 -137.78)"/></svg>