<svg xmlns="http://www.w3.org/2000/svg" viewBox="0 0 185.52 529.79"><defs><style>.a{fill:#e4ae84;}.b{fill:#0d0b42;}.b,.d,.f,.g,.h,.i,.k,.l,.m,.o{fill-rule:evenodd;}.c,.g{fill:#404fa2;}.d,.n{fill:#fff;}.e,.h{fill:#d3d5d6;}.f{fill:#000007;}.i{fill:#252b67;}.j{fill:#20245e;}.k{fill:#00002d;}.l{fill:#231f20;}.m{fill:#bcbec0;}.o{fill:#d1d3d4;}.p{fill:#502919;}.q{fill:#333d83;}.r{opacity:0.26;}.s{fill:#511d06;}.t{fill:#00bab6;}</style></defs><path class="a" d="M1320,2582.08c26.55-12,44.9-51.32,44-52.14l-.47-.43a54.93,54.93,0,0,1-8-9.7c-4.22-6.45-14.31-10.81-14.31-10.81l-14.75-9.09s-8.21-6.92-15.72-7.7a52.55,52.55,0,0,1-12-2.64l-.58-.22-28.76,7.72s-3.69,28.61-4.92,31.54c-12.62,30.2-32,59.92-36,93.74-.65,5.56,28.42-6.28,26.56.6,0,0,3.19,2.16,4.09,2.56.8.65,4.24,2.57,4.24,2.57,5.35-4.73,24.18,16.58,27.86,12.34C1301.89,2628.21,1290.2,2595.56,1320,2582.08Z" transform="translate(-1202.9 -2327.94)"/><path class="b" d="M1227.08,2824.07a35.71,35.71,0,0,0-18.74-.44c-.39.11-.35,16.36.37,16.33s16.25-5.79,16.56-6.19S1227.08,2824.07,1227.08,2824.07Z" transform="translate(-1202.9 -2327.94)"/><path class="a" d="M1218,2730.79c-.59,2.32.16,9.66-.69,12.85-4.65,17.31-5.7,27.88-5.7,46.11,0,18.64,0,29.73,0,29.73l13.93,1.39s8.55-27,11-46.25c3.19-24.42,3.86-27.93,5.46-37.79C1241.18,2733,1219.86,2728.48,1218,2730.79Z" transform="translate(-1202.9 -2327.94)"/><path class="a" d="M1218.53,2738.91c.45,4.08,21.64,4.81,23.5-2.19,2.4-14.46,31-90.27,12.43-99.28,0,0-19.55-33.67-28-2-6.24,23.28-8.1,70.59-8.84,80.46C1217.07,2722.73,1217,2732.18,1218.53,2738.91Z" transform="translate(-1202.9 -2327.94)"/><path class="a" d="M1225.56,2834.53c.47-3.08,1.41-3.25.31-7s.44-14.73.44-14.73l-13,.16a65.16,65.16,0,0,1-7.31,19.34Z" transform="translate(-1202.9 -2327.94)"/><path class="c" d="M1228.73,2627.63s-7.2,16.53-12.58,50.48l-6.08,53.79,46.51.76,9.37-68.74.93-10.84-1.27-20.72Z" transform="translate(-1202.9 -2327.94)"/><path class="d" d="M1210.07,2823.17l1-3.75,14.75,1.67-.13,4.4S1210.6,2828.3,1210.07,2823.17Z" transform="translate(-1202.9 -2327.94)"/><path class="e" d="M1203.33,2841.72s-.87,5.61-.12,8.4,2.65,8.09,14.51,7.57l.19-2.46S1203.27,2842.15,1203.33,2841.72Z" transform="translate(-1202.9 -2327.94)"/><path class="e" d="M1231.18,2841.72s.87,5.61.11,8.4-2.65,8.09-14.51,7.57l-.18-2.46S1231.23,2842.15,1231.18,2841.72Z" transform="translate(-1202.9 -2327.94)"/><path class="f" d="M1208.51,2825.78a34.33,34.33,0,0,1,17-.09s-1.29,5.06-2.61,6.12-9.7,2-9.95,1.87S1208.51,2825.78,1208.51,2825.78Z" transform="translate(-1202.9 -2327.94)"/><path class="g" d="M1227.73,2828.49c.12-9.67-4.06-2.08-4.39-1.22-.58,1.47-11.56,1.47-12.14,0-.32-.86-3.91-9.32-4.64,1.58,0,0-3.77,14.65-3,19.19,1.8,6.78,3,7.56,13.69,7.56s12.75-1.21,13.69-7.56C1231.75,2843.5,1227.73,2828.49,1227.73,2828.49Z" transform="translate(-1202.9 -2327.94)"/><path class="h" d="M1221.53,2855.43c0,1-1.51,1-3.37,1s-3.38,0-3.38-1,1.51-1.82,3.38-1.82S1221.53,2854.42,1221.53,2855.43Z" transform="translate(-1202.9 -2327.94)"/><path class="i" d="M1231,2848a22.25,22.25,0,0,0-.35-6.22,18.27,18.27,0,0,0-1.86-.82c-3.39-1.35-9.53-5.24-7.22,1.22,0,0,8.38,4.32,5.69,12.25C1229.61,2853.43,1230.45,2851.5,1231,2848Z" transform="translate(-1202.9 -2327.94)"/><path class="i" d="M1204,2841.14a12.22,12.22,0,0,1,7.93-6.21l-.14-2.19c-3,.37-5.34,2.41-7,4.35a9.67,9.67,0,0,1,6.88-5.7l-.13-2.54a14.9,14.9,0,0,0-5.94,3.86c-.54,2.38-1.2,5.52-1.64,8.43Z" transform="translate(-1202.9 -2327.94)"/><path class="i" d="M1222.84,2831.39a9.68,9.68,0,0,1,6.89,5.7c-1.62-1.94-4-4-7-4.35l-.14,2.19a12.2,12.2,0,0,1,7.85,6.06c-.48-2.92-1.17-6-1.74-8.45a14.64,14.64,0,0,0-5.77-3.69Z" transform="translate(-1202.9 -2327.94)"/><path class="i" d="M1213,2842.22c3.5-7.29-3.83-2.57-7.23-1.22a19.13,19.13,0,0,0-1.91.85,23.2,23.2,0,0,0-.3,6.19c.94,3.53,1.71,5.43,3.74,6.44C1203.48,2846.17,1213,2842.22,1213,2842.22Z" transform="translate(-1202.9 -2327.94)"/><path class="j" d="M1212.16,2826.36s1.42,17.51,3.54,19.48,3.88-.24,5.23-6.69,2.52-13.06,2.52-13.06.73-2.31-3-3.17C1216.39,2822,1210.81,2823.37,1212.16,2826.36Z" transform="translate(-1202.9 -2327.94)"/><path class="k" d="M1214.88,2828.06s-.46-1.08-3.31-.77c0,0,.13,10.87,1.45,14.93s2,6.05,5.43,5.68,4.26-5.93,5.19-10.44a64.22,64.22,0,0,0,1-10s-2.32-.68-3.68.57c0,0-.58,18.33-3.06,18.74S1214.34,2832.22,1214.88,2828.06Z" transform="translate(-1202.9 -2327.94)"/><path class="d" d="M1220.84,2830.52a1.6,1.6,0,0,0,1.43-.21c.29-.28.12-.63-.38-.79a1.57,1.57,0,0,0-1.43.21C1220.17,2830,1220.34,2830.36,1220.84,2830.52Z" transform="translate(-1202.9 -2327.94)"/><path class="l" d="M1221,2830.42a1.3,1.3,0,0,0,1.13-.17c.23-.22.09-.51-.3-.63a1.24,1.24,0,0,0-1.13.17C1220.42,2830,1220.56,2830.29,1221,2830.42Z" transform="translate(-1202.9 -2327.94)"/><path class="d" d="M1220.35,2834.51a1.66,1.66,0,0,0,1.47-.12c.34-.25.24-.61-.22-.8a1.64,1.64,0,0,0-1.46.11C1219.79,2834,1219.89,2834.33,1220.35,2834.51Z" transform="translate(-1202.9 -2327.94)"/><path class="l" d="M1220.48,2834.42a1.33,1.33,0,0,0,1.16-.09c.27-.21.19-.5-.17-.65a1.33,1.33,0,0,0-1.16.1C1220,2834,1220.12,2834.27,1220.48,2834.42Z" transform="translate(-1202.9 -2327.94)"/><path class="d" d="M1219.51,2838.37a1.68,1.68,0,0,0,1.47,0c.4-.23.38-.59,0-.81a1.67,1.67,0,0,0-1.48,0C1219.07,2837.78,1219.09,2838.15,1219.51,2838.37Z" transform="translate(-1202.9 -2327.94)"/><path class="l" d="M1219.65,2838.28a1.32,1.32,0,0,0,1.18,0c.31-.18.29-.48,0-.64a1.33,1.33,0,0,0-1.17,0C1219.31,2837.82,1219.32,2838.11,1219.65,2838.28Z" transform="translate(-1202.9 -2327.94)"/><path class="d" d="M1219.15,2842.23a1.61,1.61,0,0,0,1.46.12c.47-.19.56-.55.22-.8a1.63,1.63,0,0,0-1.47-.12C1218.9,2841.62,1218.81,2842,1219.15,2842.23Z" transform="translate(-1202.9 -2327.94)"/><path class="l" d="M1219.33,2842.16a1.25,1.25,0,0,0,1.15.09c.37-.14.44-.43.18-.63a1.39,1.39,0,0,0-1.17-.1C1219.12,2841.68,1219.05,2842,1219.33,2842.16Z" transform="translate(-1202.9 -2327.94)"/><path class="d" d="M1220.79,2832.35a1.49,1.49,0,0,0,1.42-.21c.3-.27.12-.63-.38-.78a1.56,1.56,0,0,0-1.42.21C1220.12,2831.84,1220.29,2832.2,1220.79,2832.35Z" transform="translate(-1202.9 -2327.94)"/><path class="l" d="M1220.9,2832.25a1.27,1.27,0,0,0,1.13-.16c.23-.23.09-.5-.3-.63a1.27,1.27,0,0,0-1.13.16C1220.37,2831.85,1220.5,2832.12,1220.9,2832.25Z" transform="translate(-1202.9 -2327.94)"/><path class="d" d="M1220.13,2836.38a1.64,1.64,0,0,0,1.46-.12c.34-.26.24-.62-.22-.81a1.64,1.64,0,0,0-1.46.13C1219.57,2835.83,1219.66,2836.19,1220.13,2836.38Z" transform="translate(-1202.9 -2327.94)"/><path class="l" d="M1220.26,2836.28a1.3,1.3,0,0,0,1.16-.09c.26-.2.19-.49-.18-.64a1.31,1.31,0,0,0-1.15.09C1219.82,2835.84,1219.89,2836.13,1220.26,2836.28Z" transform="translate(-1202.9 -2327.94)"/><path class="d" d="M1219.37,2840.24a1.67,1.67,0,0,0,1.48,0c.4-.23.37-.59,0-.81a1.71,1.71,0,0,0-1.48,0C1218.94,2839.65,1219,2840,1219.37,2840.24Z" transform="translate(-1202.9 -2327.94)"/><path class="l" d="M1219.52,2840.15a1.37,1.37,0,0,0,1.17,0c.32-.18.3-.47,0-.64a1.3,1.3,0,0,0-1.17,0C1219.18,2839.69,1219.19,2840,1219.52,2840.15Z" transform="translate(-1202.9 -2327.94)"/><path class="d" d="M1218.44,2844.07a1.68,1.68,0,0,0,1.46.11c.46-.19.56-.55.21-.81a1.67,1.67,0,0,0-1.46-.11C1218.19,2843.45,1218.09,2843.81,1218.44,2844.07Z" transform="translate(-1202.9 -2327.94)"/><path class="l" d="M1218.61,2844a1.34,1.34,0,0,0,1.16.09c.37-.15.45-.44.17-.64a1.27,1.27,0,0,0-1.16-.09C1218.42,2843.5,1218.34,2843.79,1218.61,2844Z" transform="translate(-1202.9 -2327.94)"/><path class="d" d="M1214.14,2830.52a1.6,1.6,0,0,1-1.43-.21c-.29-.28-.12-.63.38-.79a1.55,1.55,0,0,1,1.42.21C1214.8,2830,1214.64,2830.36,1214.14,2830.52Z" transform="translate(-1202.9 -2327.94)"/><path class="l" d="M1214,2830.42a1.3,1.3,0,0,1-1.13-.17c-.23-.22-.1-.51.3-.63a1.24,1.24,0,0,1,1.13.17C1214.56,2830,1214.42,2830.29,1214,2830.42Z" transform="translate(-1202.9 -2327.94)"/><path class="m" d="M1221.4,2831.85c-.23-.23-.2-.37-1.64,0-2.87.63-4.39-1-5.43-2,0,0-1.75-.11-1.21.73,0,0,2.35,2.35,4.48,2.22l0,0a8.28,8.28,0,0,0,1.61,0C1221.61,2832.41,1221.61,2832.06,1221.4,2831.85Z" transform="translate(-1202.9 -2327.94)"/><path class="d" d="M1214.62,2834.51a1.64,1.64,0,0,1-1.46-.12c-.34-.25-.24-.61.22-.8a1.64,1.64,0,0,1,1.46.11C1215.19,2834,1215.09,2834.33,1214.62,2834.51Z" transform="translate(-1202.9 -2327.94)"/><path class="l" d="M1214.49,2834.42a1.33,1.33,0,0,1-1.16-.09c-.27-.21-.19-.5.18-.65a1.33,1.33,0,0,1,1.16.1C1214.94,2834,1214.86,2834.27,1214.49,2834.42Z" transform="translate(-1202.9 -2327.94)"/><path class="m" d="M1220.84,2835.91c-.18-.24-.13-.45-1.62-.15a5.63,5.63,0,0,1-.81.11c-2.12-.38-2.08-.88-3.74-2.09,0,0-1.76,0-1.06.81a13.21,13.21,0,0,0,2.17,1.31c.16.4.79.8,2.76.7C1220.94,2836.49,1221,2836.14,1220.84,2835.91Z" transform="translate(-1202.9 -2327.94)"/><path class="d" d="M1215.47,2838.37a1.71,1.71,0,0,1-1.48,0c-.39-.23-.37-.59,0-.81a1.67,1.67,0,0,1,1.48,0C1215.91,2837.78,1215.89,2838.15,1215.47,2838.37Z" transform="translate(-1202.9 -2327.94)"/><path class="l" d="M1215.32,2838.28a1.3,1.3,0,0,1-1.17,0c-.31-.18-.3-.48,0-.64a1.33,1.33,0,0,1,1.17,0C1215.67,2837.82,1215.65,2838.11,1215.32,2838.28Z" transform="translate(-1202.9 -2327.94)"/><path class="m" d="M1220.19,2839.82c-.08-.15-.09-.28-.37-.32a.73.73,0,0,0-.3-.08c-2.34-.22-2.21-.66-4.16-1.78,0,0-1.75.1-.87.86,0,0,.39.25,1,.55C1218.94,2840.91,1220.3,2840.05,1220.19,2839.82Z" transform="translate(-1202.9 -2327.94)"/><path class="d" d="M1215.82,2842.23a1.61,1.61,0,0,1-1.46.12c-.46-.19-.55-.55-.21-.8a1.62,1.62,0,0,1,1.46-.12C1216.08,2841.62,1216.17,2842,1215.82,2842.23Z" transform="translate(-1202.9 -2327.94)"/><path class="l" d="M1215.65,2842.16a1.27,1.27,0,0,1-1.16.09c-.37-.14-.44-.43-.16-.63a1.34,1.34,0,0,1,1.15-.1C1215.85,2841.68,1215.92,2842,1215.65,2842.16Z" transform="translate(-1202.9 -2327.94)"/><path class="m" d="M1219.4,2843.29c-2-.33-1.68-.78-3.92-1.77,0,0-1.68.28-.58.94a10.41,10.41,0,0,0,4.22,1.54,2.55,2.55,0,0,0,.55-.11S1220.24,2843.43,1219.4,2843.29Z" transform="translate(-1202.9 -2327.94)"/><path class="d" d="M1214.19,2832.35a1.52,1.52,0,0,1-1.43-.21c-.29-.27-.12-.63.38-.78a1.57,1.57,0,0,1,1.43.21C1214.86,2831.84,1214.69,2832.2,1214.19,2832.35Z" transform="translate(-1202.9 -2327.94)"/><path class="l" d="M1214.08,2832.25a1.27,1.27,0,0,1-1.13-.16c-.23-.23-.1-.5.3-.63a1.27,1.27,0,0,1,1.13.16C1214.61,2831.85,1214.48,2832.12,1214.08,2832.25Z" transform="translate(-1202.9 -2327.94)"/><path class="d" d="M1220.65,2829.79c-1,1-1.24,1.49-2.09,1.9a4.15,4.15,0,0,1-3.34.11c-1.42-.4-1.41-.18-1.65,0s-.18.47,2.16.82a6.71,6.71,0,0,0,6.12-2.15C1222.39,2829.68,1220.65,2829.79,1220.65,2829.79Z" transform="translate(-1202.9 -2327.94)"/><path class="d" d="M1214.85,2836.38a1.64,1.64,0,0,1-1.46-.12c-.34-.26-.25-.62.22-.81a1.65,1.65,0,0,1,1.46.13C1215.41,2835.83,1215.32,2836.19,1214.85,2836.38Z" transform="translate(-1202.9 -2327.94)"/><path class="l" d="M1214.72,2836.28a1.3,1.3,0,0,1-1.16-.09c-.27-.2-.19-.49.17-.64a1.33,1.33,0,0,1,1.16.09C1215.16,2835.84,1215.09,2836.13,1214.72,2836.28Z" transform="translate(-1202.9 -2327.94)"/><path class="n" d="M1221.36,2834.59c.7-.81-1-.81-1-.81-1.69,1.23-1.21,1.67-3.61,2.06a3.12,3.12,0,0,1-.94-.08c-1.49-.3-1.44-.09-1.63.15s-.09.58,2.31.69A6.22,6.22,0,0,0,1221.36,2834.59Z" transform="translate(-1202.9 -2327.94)"/><path class="n" d="M1219.91,2835.58a.31.31,0,0,1,0,.09A.06.06,0,0,0,1219.91,2835.58Z" transform="translate(-1202.9 -2327.94)"/><path class="d" d="M1215.61,2840.24a1.69,1.69,0,0,1-1.49,0c-.39-.23-.37-.59.05-.81a1.71,1.71,0,0,1,1.48,0C1216,2839.65,1216,2840,1215.61,2840.24Z" transform="translate(-1202.9 -2327.94)"/><path class="l" d="M1215.45,2840.15a1.35,1.35,0,0,1-1.16,0c-.32-.18-.31-.47,0-.64a1.3,1.3,0,0,1,1.17,0C1215.8,2839.69,1215.79,2840,1215.45,2840.15Z" transform="translate(-1202.9 -2327.94)"/><path class="d" d="M1219.62,2837.64c-2,1.12-1.82,1.56-4.16,1.78a.85.85,0,0,0-.31.08c-.28,0-.28.17-.35.32s.9.62,4.69-.77c.6-.3,1-.55,1-.55C1221.37,2837.74,1219.62,2837.64,1219.62,2837.64Z" transform="translate(-1202.9 -2327.94)"/><path class="d" d="M1216.54,2844.07a1.68,1.68,0,0,1-1.46.11c-.47-.19-.56-.55-.22-.81a1.7,1.7,0,0,1,1.47-.11C1216.79,2843.45,1216.88,2843.81,1216.54,2844.07Z" transform="translate(-1202.9 -2327.94)"/><path class="l" d="M1216.36,2844a1.31,1.31,0,0,1-1.15.09c-.37-.15-.45-.44-.18-.64a1.29,1.29,0,0,1,1.17-.09C1216.56,2843.5,1216.64,2843.79,1216.36,2844Z" transform="translate(-1202.9 -2327.94)"/><path class="d" d="M1219.49,2841.52a19.2,19.2,0,0,1-3.85,2,1.06,1.06,0,0,0,0,.2c0,.23.19.83,4.32-1.21l.15-.07C1221.18,2841.8,1219.49,2841.52,1219.49,2841.52Z" transform="translate(-1202.9 -2327.94)"/><path class="m" d="M1217.94,2829.44s10.46-.43,9.14-5.67-7.92,2.87-9.17,5.11l.61.09s3.9-5.42,6.15-5.56,1.7,1.6,1,2.23a16.3,16.3,0,0,1-6.09,3.39c-.21.07-1-.2-1.24-.14S1218.27,2829.38,1217.94,2829.44Z" transform="translate(-1202.9 -2327.94)"/><path class="m" d="M1218.55,2828.23s-3.12-6.12-7.23-5.73-4.29,3.39,1.57,5.38l5.86,2,0-.9a38.39,38.39,0,0,1-6.23-2.3c-2-1.11-3.92-2.43-2.12-2.8s3.15-.39,5.49,2.12c1.12,1.2,1.8,2.54,2.29,3s.83.2.83.2Z" transform="translate(-1202.9 -2327.94)"/><path class="o" d="M1217.86,2829.94a10.44,10.44,0,0,1-2.07,3,7.38,7.38,0,0,0-1.39,5.54c.16.14-.28.7-.28.7s-.64,0-1-1.05-1-3.23,1.87-5.73,3.26-3.6,3.26-3.6S1219.46,2828.62,1217.86,2829.94Z" transform="translate(-1202.9 -2327.94)"/><path class="o" d="M1218.16,2828.57a46.17,46.17,0,0,1,1.33,5.65c.23,2.06,1.92,4.88,1.74,6s.8,1.06.8,1.06.62-.53-1-4.33-1.21-5.28-1.64-6.5S1218.93,2828.71,1218.16,2828.57Z" transform="translate(-1202.9 -2327.94)"/><path class="b" d="M1303,2824.07a35.71,35.71,0,0,1,18.74-.44c.39.11.35,16.36-.37,16.33s-16.25-5.79-16.56-6.19S1303,2824.07,1303,2824.07Z" transform="translate(-1202.9 -2327.94)"/><path class="a" d="M1312.17,2730.79c.58,2.32-.17,9.66.68,12.85,4.65,17.31,5.7,27.88,5.7,46.11,0,18.64,0,29.73,0,29.73l-13.93,1.39s-8.55-27-11-46.25c-3.19-24.42-3.86-27.93-5.46-37.79C1289,2733,1310.27,2728.48,1312.17,2730.79Z" transform="translate(-1202.9 -2327.94)"/><path class="a" d="M1304.56,2834.53c-.47-3.08-1.41-3.25-.31-7s-.43-14.73-.43-14.73l13,.16a64.83,64.83,0,0,0,7.31,19.34Z" transform="translate(-1202.9 -2327.94)"/><path class="d" d="M1320.05,2823.17l-1-3.75-14.75,1.67.13,4.4S1319.52,2828.3,1320.05,2823.17Z" transform="translate(-1202.9 -2327.94)"/><path class="e" d="M1326.79,2841.72s.87,5.61.13,8.4-2.66,8.09-14.52,7.57l-.19-2.46S1326.85,2842.15,1326.79,2841.72Z" transform="translate(-1202.9 -2327.94)"/><path class="e" d="M1299,2841.72s-.87,5.61-.12,8.4,2.65,8.09,14.51,7.57l.19-2.46S1298.89,2842.15,1299,2841.72Z" transform="translate(-1202.9 -2327.94)"/><path class="f" d="M1321.61,2825.78a34.33,34.33,0,0,0-17-.09s1.29,5.06,2.61,6.12,9.7,2,10,1.87S1321.61,2825.78,1321.61,2825.78Z" transform="translate(-1202.9 -2327.94)"/><path class="g" d="M1302.39,2828.49c-.12-9.67,4.06-2.08,4.4-1.22.57,1.47,11.56,1.47,12.13,0,.33-.86,3.91-9.32,4.64,1.58,0,0,3.78,14.65,3,19.19-1.8,6.78-3,7.56-13.69,7.56s-12.75-1.21-13.68-7.56C1298.36,2843.5,1302.39,2828.49,1302.39,2828.49Z" transform="translate(-1202.9 -2327.94)"/><path class="h" d="M1308.59,2855.43c0,1,1.52,1,3.38,1s3.37,0,3.37-1-1.51-1.82-3.37-1.82S1308.59,2854.42,1308.59,2855.43Z" transform="translate(-1202.9 -2327.94)"/><path class="i" d="M1299.17,2848a22.17,22.17,0,0,1,.34-6.22c.64-.32,1.28-.6,1.86-.82,3.39-1.35,9.53-5.24,7.22,1.22,0,0-8.38,4.32-5.69,12.25C1300.51,2853.43,1299.67,2851.5,1299.17,2848Z" transform="translate(-1202.9 -2327.94)"/><path class="i" d="M1326.14,2841.14a12.22,12.22,0,0,0-7.93-6.21l.14-2.19c3,.37,5.33,2.41,7,4.35a9.7,9.7,0,0,0-6.89-5.7l.13-2.54a14.9,14.9,0,0,1,5.94,3.86c.54,2.38,1.2,5.52,1.65,8.43Z" transform="translate(-1202.9 -2327.94)"/><path class="i" d="M1307.28,2831.39a9.7,9.7,0,0,0-6.89,5.7c1.62-1.94,4-4,7-4.35l.15,2.19a12.21,12.21,0,0,0-7.86,6.06c.48-2.92,1.17-6,1.74-8.45a14.71,14.71,0,0,1,5.77-3.69Z" transform="translate(-1202.9 -2327.94)"/><path class="i" d="M1317.1,2842.22c-3.51-7.29,3.83-2.57,7.23-1.22a18.17,18.17,0,0,1,1.91.85,23.2,23.2,0,0,1,.3,6.19c-.93,3.53-1.71,5.43-3.73,6.44C1326.64,2846.17,1317.1,2842.22,1317.1,2842.22Z" transform="translate(-1202.9 -2327.94)"/><path class="j" d="M1318,2826.36s-1.42,17.51-3.53,19.48-3.89-.24-5.24-6.69-2.52-13.06-2.52-13.06-.74-2.31,3-3.17C1313.73,2822,1319.31,2823.37,1318,2826.36Z" transform="translate(-1202.9 -2327.94)"/><path class="k" d="M1315.23,2828.06s.47-1.08,3.32-.77c0,0-.13,10.87-1.45,14.93s-2,6.05-5.42,5.68-4.27-5.93-5.19-10.44a64.22,64.22,0,0,1-1-10s2.31-.68,3.67.57c0,0,.59,18.33,3.06,18.74S1315.78,2832.22,1315.23,2828.06Z" transform="translate(-1202.9 -2327.94)"/><path class="d" d="M1309.28,2830.52a1.61,1.61,0,0,1-1.43-.21c-.29-.28-.12-.63.39-.79a1.56,1.56,0,0,1,1.42.21C1310,2830,1309.78,2830.36,1309.28,2830.52Z" transform="translate(-1202.9 -2327.94)"/><path class="l" d="M1309.18,2830.42a1.32,1.32,0,0,1-1.14-.17c-.23-.22-.09-.51.3-.63a1.24,1.24,0,0,1,1.13.17C1309.7,2830,1309.57,2830.29,1309.18,2830.42Z" transform="translate(-1202.9 -2327.94)"/><path class="d" d="M1309.77,2834.51a1.64,1.64,0,0,1-1.46-.12c-.35-.25-.25-.61.21-.8a1.64,1.64,0,0,1,1.46.11C1310.33,2834,1310.23,2834.33,1309.77,2834.51Z" transform="translate(-1202.9 -2327.94)"/><path class="l" d="M1309.64,2834.42a1.33,1.33,0,0,1-1.16-.09c-.27-.21-.19-.5.17-.65a1.33,1.33,0,0,1,1.16.1C1310.09,2834,1310,2834.27,1309.64,2834.42Z" transform="translate(-1202.9 -2327.94)"/><path class="d" d="M1310.61,2838.37a1.69,1.69,0,0,1-1.47,0c-.39-.23-.38-.59,0-.81a1.67,1.67,0,0,1,1.48,0C1311.05,2837.78,1311,2838.15,1310.61,2838.37Z" transform="translate(-1202.9 -2327.94)"/><path class="l" d="M1310.47,2838.28a1.3,1.3,0,0,1-1.17,0c-.32-.18-.3-.48,0-.64a1.36,1.36,0,0,1,1.18,0C1310.82,2837.82,1310.8,2838.11,1310.47,2838.28Z" transform="translate(-1202.9 -2327.94)"/><path class="d" d="M1311,2842.23a1.62,1.62,0,0,1-1.46.12c-.46-.19-.56-.55-.22-.8a1.64,1.64,0,0,1,1.47-.12C1311.22,2841.62,1311.32,2842,1311,2842.23Z" transform="translate(-1202.9 -2327.94)"/><path class="l" d="M1310.79,2842.16a1.25,1.25,0,0,1-1.15.09c-.37-.14-.44-.43-.17-.63a1.36,1.36,0,0,1,1.16-.1C1311,2841.68,1311.07,2842,1310.79,2842.16Z" transform="translate(-1202.9 -2327.94)"/><path class="d" d="M1309.33,2832.35a1.5,1.5,0,0,1-1.42-.21c-.29-.27-.12-.63.38-.78a1.55,1.55,0,0,1,1.42.21C1310,2831.84,1309.84,2832.2,1309.33,2832.35Z" transform="translate(-1202.9 -2327.94)"/><path class="l" d="M1309.23,2832.25a1.29,1.29,0,0,1-1.14-.16c-.22-.23-.09-.5.3-.63a1.29,1.29,0,0,1,1.14.16C1309.75,2831.85,1309.62,2832.12,1309.23,2832.25Z" transform="translate(-1202.9 -2327.94)"/><path class="d" d="M1310,2836.38a1.67,1.67,0,0,1-1.47-.12c-.34-.26-.24-.62.22-.81a1.67,1.67,0,0,1,1.47.13C1310.56,2835.83,1310.46,2836.19,1310,2836.38Z" transform="translate(-1202.9 -2327.94)"/><path class="l" d="M1309.87,2836.28a1.29,1.29,0,0,1-1.16-.09c-.28-.2-.2-.49.17-.64a1.33,1.33,0,0,1,1.16.09C1310.31,2835.84,1310.23,2836.13,1309.87,2836.28Z" transform="translate(-1202.9 -2327.94)"/><path class="d" d="M1310.75,2840.24a1.67,1.67,0,0,1-1.48,0c-.39-.23-.38-.59,0-.81a1.68,1.68,0,0,1,1.47,0C1311.19,2839.65,1311.17,2840,1310.75,2840.24Z" transform="translate(-1202.9 -2327.94)"/><path class="l" d="M1310.6,2840.15a1.37,1.37,0,0,1-1.17,0c-.32-.18-.3-.47,0-.64a1.32,1.32,0,0,1,1.18,0C1311,2839.69,1310.93,2840,1310.6,2840.15Z" transform="translate(-1202.9 -2327.94)"/><path class="d" d="M1311.68,2844.07a1.68,1.68,0,0,1-1.46.11c-.46-.19-.55-.55-.21-.81a1.68,1.68,0,0,1,1.46-.11C1311.93,2843.45,1312,2843.81,1311.68,2844.07Z" transform="translate(-1202.9 -2327.94)"/><path class="l" d="M1311.51,2844a1.34,1.34,0,0,1-1.16.09c-.37-.15-.44-.44-.17-.64a1.27,1.27,0,0,1,1.16-.09C1311.7,2843.5,1311.78,2843.79,1311.51,2844Z" transform="translate(-1202.9 -2327.94)"/><path class="d" d="M1316,2830.52a1.6,1.6,0,0,0,1.43-.21c.29-.28.12-.63-.38-.79a1.56,1.56,0,0,0-1.42.21C1315.31,2830,1315.49,2830.36,1316,2830.52Z" transform="translate(-1202.9 -2327.94)"/><path class="l" d="M1316.09,2830.42a1.32,1.32,0,0,0,1.14-.17c.23-.22.09-.51-.31-.63a1.24,1.24,0,0,0-1.13.17C1315.56,2830,1315.7,2830.29,1316.09,2830.42Z" transform="translate(-1202.9 -2327.94)"/><path class="m" d="M1308.71,2831.85c.24-.23.21-.37,1.65,0,2.87.63,4.39-1,5.43-2,0,0,1.75-.11,1.21.73,0,0-2.35,2.35-4.48,2.22l0,0a8.37,8.37,0,0,1-1.62,0C1308.51,2832.41,1308.51,2832.06,1308.71,2831.85Z" transform="translate(-1202.9 -2327.94)"/><path class="d" d="M1315.5,2834.51a1.64,1.64,0,0,0,1.46-.12c.35-.25.24-.61-.22-.8a1.65,1.65,0,0,0-1.46.11C1314.94,2834,1315,2834.33,1315.5,2834.51Z" transform="translate(-1202.9 -2327.94)"/><path class="l" d="M1315.63,2834.42a1.33,1.33,0,0,0,1.16-.09c.27-.21.19-.5-.18-.65a1.31,1.31,0,0,0-1.15.1C1315.18,2834,1315.26,2834.27,1315.63,2834.42Z" transform="translate(-1202.9 -2327.94)"/><path class="m" d="M1309.28,2835.91c.19-.24.14-.45,1.62-.15a5.63,5.63,0,0,0,.81.11c2.13-.38,2.08-.88,3.75-2.09,0,0,1.75,0,1,.81a13.21,13.21,0,0,1-2.17,1.31c-.15.4-.79.8-2.75.7C1309.19,2836.49,1309.11,2836.14,1309.28,2835.91Z" transform="translate(-1202.9 -2327.94)"/><path class="d" d="M1314.65,2838.37a1.71,1.71,0,0,0,1.48,0c.4-.23.37-.59-.05-.81a1.65,1.65,0,0,0-1.47,0C1314.22,2837.78,1314.23,2838.15,1314.65,2838.37Z" transform="translate(-1202.9 -2327.94)"/><path class="l" d="M1314.8,2838.28a1.3,1.3,0,0,0,1.17,0c.32-.18.3-.48,0-.64a1.31,1.31,0,0,0-1.16,0C1314.45,2837.82,1314.47,2838.11,1314.8,2838.28Z" transform="translate(-1202.9 -2327.94)"/><path class="m" d="M1309.94,2839.82c.07-.15.07-.28.36-.32a.79.79,0,0,1,.3-.08c2.34-.22,2.2-.66,4.17-1.78,0,0,1.74.1.87.86,0,0-.4.25-1,.55C1311.18,2840.91,1309.83,2840.05,1309.94,2839.82Z" transform="translate(-1202.9 -2327.94)"/><path class="d" d="M1314.3,2842.23a1.61,1.61,0,0,0,1.46.12c.46-.19.56-.55.21-.8a1.61,1.61,0,0,0-1.46-.12C1314.05,2841.62,1314,2842,1314.3,2842.23Z" transform="translate(-1202.9 -2327.94)"/><path class="l" d="M1314.48,2842.16a1.25,1.25,0,0,0,1.15.09c.37-.14.44-.43.16-.63a1.34,1.34,0,0,0-1.15-.1C1314.27,2841.68,1314.2,2842,1314.48,2842.16Z" transform="translate(-1202.9 -2327.94)"/><path class="m" d="M1310.45,2843.89a2.44,2.44,0,0,0,.55.11,10.48,10.48,0,0,0,4.23-1.54c1.09-.66-.59-.94-.59-.94-2.23,1-2,1.44-3.92,1.77C1309.88,2843.43,1310.45,2843.89,1310.45,2843.89Z" transform="translate(-1202.9 -2327.94)"/><path class="d" d="M1315.93,2832.35a1.52,1.52,0,0,0,1.43-.21c.29-.27.12-.63-.38-.78a1.55,1.55,0,0,0-1.42.21C1315.26,2831.84,1315.43,2832.2,1315.93,2832.35Z" transform="translate(-1202.9 -2327.94)"/><path class="l" d="M1316,2832.25a1.29,1.29,0,0,0,1.14-.16c.22-.23.09-.5-.3-.63a1.29,1.29,0,0,0-1.14.16C1315.51,2831.85,1315.65,2832.12,1316,2832.25Z" transform="translate(-1202.9 -2327.94)"/><path class="d" d="M1309.47,2829.79c1,1,1.24,1.49,2.09,1.9a4.18,4.18,0,0,0,3.35.11c1.41-.4,1.41-.18,1.64,0s.19.47-2.16.82a6.71,6.71,0,0,1-6.12-2.15C1307.73,2829.68,1309.47,2829.79,1309.47,2829.79Z" transform="translate(-1202.9 -2327.94)"/><path class="d" d="M1315.27,2836.38a1.64,1.64,0,0,0,1.46-.12c.35-.26.25-.62-.21-.81a1.67,1.67,0,0,0-1.47.13C1314.71,2835.83,1314.81,2836.19,1315.27,2836.38Z" transform="translate(-1202.9 -2327.94)"/><path class="l" d="M1315.4,2836.28a1.3,1.3,0,0,0,1.16-.09c.28-.2.2-.49-.17-.64a1.33,1.33,0,0,0-1.16.09C1315,2835.84,1315,2836.13,1315.4,2836.28Z" transform="translate(-1202.9 -2327.94)"/><path class="n" d="M1308.76,2834.59c-.7-.81,1-.81,1-.81,1.69,1.23,1.21,1.67,3.61,2.06a3.08,3.08,0,0,0,.94-.08c1.49-.3,1.44-.09,1.63.15s.09.58-2.31.69A6.22,6.22,0,0,1,1308.76,2834.59Z" transform="translate(-1202.9 -2327.94)"/><path class="n" d="M1310.22,2835.58a.17.17,0,0,0,0,.09S1310.19,2835.61,1310.22,2835.58Z" transform="translate(-1202.9 -2327.94)"/><path class="d" d="M1314.52,2840.24a1.67,1.67,0,0,0,1.48,0c.39-.23.37-.59,0-.81a1.68,1.68,0,0,0-1.47,0C1314.08,2839.65,1314.1,2840,1314.52,2840.24Z" transform="translate(-1202.9 -2327.94)"/><path class="l" d="M1314.67,2840.15a1.37,1.37,0,0,0,1.17,0c.31-.18.3-.47,0-.64a1.3,1.3,0,0,0-1.17,0C1314.32,2839.69,1314.34,2840,1314.67,2840.15Z" transform="translate(-1202.9 -2327.94)"/><path class="d" d="M1310.51,2837.64c2,1.12,1.82,1.56,4.16,1.78a.79.79,0,0,1,.3.08c.28,0,.29.17.36.32s-.91.62-4.7-.77c-.6-.3-1-.55-1-.55C1308.76,2837.74,1310.51,2837.64,1310.51,2837.64Z" transform="translate(-1202.9 -2327.94)"/><path class="d" d="M1313.58,2844.07a1.7,1.7,0,0,0,1.47.11c.46-.19.55-.55.21-.81a1.7,1.7,0,0,0-1.47-.11C1313.34,2843.45,1313.24,2843.81,1313.58,2844.07Z" transform="translate(-1202.9 -2327.94)"/><path class="l" d="M1313.76,2844a1.33,1.33,0,0,0,1.16.09c.37-.15.44-.44.17-.64a1.27,1.27,0,0,0-1.16-.09C1313.56,2843.5,1313.49,2843.79,1313.76,2844Z" transform="translate(-1202.9 -2327.94)"/><path class="d" d="M1310,2842.46l.15.07c4.13,2,4.37,1.44,4.33,1.21,0-.08,0-.14,0-.2a19.2,19.2,0,0,1-3.85-2S1308.94,2841.8,1310,2842.46Z" transform="translate(-1202.9 -2327.94)"/><path class="m" d="M1312.18,2829.44s-10.46-.43-9.14-5.67,7.92,2.87,9.17,5.11l-.61.09s-3.9-5.42-6.15-5.56-1.7,1.6-1,2.23a16.39,16.39,0,0,0,6.09,3.39c.22.07,1-.2,1.25-.14S1311.85,2829.38,1312.18,2829.44Z" transform="translate(-1202.9 -2327.94)"/><path class="m" d="M1311.57,2828.23s3.12-6.12,7.23-5.73,4.29,3.39-1.57,5.38l-5.86,2,0-.9a38.74,38.74,0,0,0,6.23-2.3c2-1.11,3.91-2.43,2.11-2.8s-3.15-.39-5.49,2.12c-1.12,1.2-1.8,2.54-2.28,3s-.83.2-.83.2Z" transform="translate(-1202.9 -2327.94)"/><path class="o" d="M1312.27,2829.94a10.16,10.16,0,0,0,2.07,3,7.48,7.48,0,0,1,1.39,5.54c-.17.14.28.7.28.7s.63,0,1-1.05,1-3.23-1.86-5.73-3.26-3.6-3.26-3.6S1310.66,2828.62,1312.27,2829.94Z" transform="translate(-1202.9 -2327.94)"/><path class="o" d="M1312,2828.57a44.28,44.28,0,0,0-1.33,5.65c-.24,2.06-1.93,4.88-1.75,6s-.8,1.06-.8,1.06-.62-.53,1.06-4.33,1.21-5.28,1.63-6.5S1311.19,2828.71,1312,2828.57Z" transform="translate(-1202.9 -2327.94)"/><path class="a" d="M1311.58,2738.91c-.45,4.08-21.63,4.81-23.5-2.19-2.39-14.46-31-90.27-12.43-99.28,0,0,19.56-33.67,28-2,6.25,23.28,8.1,70.59,8.84,80.46C1313.05,2722.73,1313.11,2732.18,1311.58,2738.91Z" transform="translate(-1202.9 -2327.94)"/><path class="c" d="M1301.38,2627.63s7.2,16.53,12.59,50.48l6.07,53.79h-46.45l-8.57-67.43-.51-12.48v-19.63Z" transform="translate(-1202.9 -2327.94)"/><path class="a" d="M1326.11,2486.21s-1.64,10.49-9.2,11.8,24.83,18.73,26.36,16.24,2.13-10.78,6.56-13.42C1349.83,2500.83,1337.55,2493.61,1326.11,2486.21Z" transform="translate(-1202.9 -2327.94)"/><path class="a" d="M1372.91,2485.29c-8.2,13.31-24.28,18.3-35.9,11.14s-14.4-23.77-6.19-37.08,24.27-18.31,35.9-11.14S1381.12,2472,1372.91,2485.29Z" transform="translate(-1202.9 -2327.94)"/><path class="a" d="M1297,2374.05s2.5-5.19,5.68-8.17c2.69-2.53,3.47-3.57,7.59-8,4.47-4.77,5.14-4.64,7-5.77s.59-6-4.53-2.79-6,4.68-6,4.68,5.47-7.3,8-11.27,4.28-6.38,2.18-7.35c-1.07-.49-1.8-.22-5.43,4.93s-7.79,10.89-7.79,10.89,12.9-19.26,10.6-20.74c-1.47-.95-2.57-.42-6.52,5.95s-7.42,12.63-7.42,12.63,8.67-17.38,8.8-19c.07-1-.79-5.23-4.21,1.76S1297,2348,1297,2348s6.7-15,4.61-15.8-4.42,6-8.23,15.31-2.91,9.44-3.1,12.26-3.62,10.07-3.62,10.07Z" transform="translate(-1202.9 -2327.94)"/><path class="p" d="M1364.09,2492.12s-7.89,5.45-15.41,5.22c-1,0-1.13-1.56-2.14-1.29-7.79,2.09-6.22-3.55-6.22-3.55l-1-.58-1.38-1s-3.67,3.43-5.71-3.3c-.18-.59-1-.14-1.34-.64-4.61-6.82-3.09-16.79-3.09-16.79,2.65-6.57,1.75-15.84-1.88-4.87-2.8,8.9-4.84,23,9.68,32,17.39,10.71,30-3.16,32.11-4.67C1371.09,2490.2,1368.77,2486.79,1364.09,2492.12Z" transform="translate(-1202.9 -2327.94)"/><path class="p" d="M1349.05,2487.36c-3.22-1.73-4.74-2.65-6.1-1.38.4-1.57-1.14-2.67-4.5-4.76-5-3.07-8.33,5.92-8.33,5.92l.64,5.18s4,.36,2.52-1.53-1.94-2-.09-5,3.19-3,5.48-.12a9.44,9.44,0,0,0,6.17,3.79c3.6.77,4.51,2.15,2.66,5.15s-2.16,2.59-4.48,2.16-.17,1.93-.17,1.93l4.85-.75S1354.06,2490.07,1349.05,2487.36Z" transform="translate(-1202.9 -2327.94)"/><path class="p" d="M1324.39,2482.18s0-2.12.08-5C1323.6,2480.58,1324.39,2482.18,1324.39,2482.18Z" transform="translate(-1202.9 -2327.94)"/><path class="p" d="M1386.37,2474.28a24.5,24.5,0,0,0,1.91-5.45c.53-2.28-.59-6.89-.81-9.85,0-.36,0-.71,0-1.07v0a4.82,4.82,0,0,0-.19-1.4,12.69,12.69,0,0,0-3.32-6.15l-.5-.57c-.19-.32-.39-.65-.57-1a13.25,13.25,0,0,0-3.11-3.63c-3.39-4.59-5.65-8.21-10.22-9.58l-.51-.19a9,9,0,0,0-.82-.61c-2-1.21-3.92-1-7.71-2.1s-5.63-.72-10.17,0a13.75,13.75,0,0,0-4.45,1.28,18.12,18.12,0,0,0-4.18,2.18c-10.71,7.56-14,22.83-15.67,28.06-.63,1.91-1.51,12.36-1.54,13a26.74,26.74,0,0,1,3.7-7.79c.25-.38.6-1,1-1.78,10.61-23.22,18.89-19.13,24.64-12.38a2.65,2.65,0,0,0,.2.22c.33.49.74,1.05,1.25,1.69,1.88,2.38,3.15,2.18,5.43,2.16a14.08,14.08,0,0,0,2.45.4,26.64,26.64,0,0,1,4,.58c15.11,6.63,3,22.95,1,25.31s-6.83,9.6-4,6.69c.17-.16.41,1,1.58-.47,0,.16,0-.14,0,0-.43,3.52-6.15,5.94-6.15,5.94a37.94,37.94,0,0,0,3.33-2.05l-2.73,2.42a80.93,80.93,0,0,0,8.73-5.06c3.12-2.15,11-10.32,14-13.93C1385,2477.12,1386,2475.86,1386.37,2474.28Z" transform="translate(-1202.9 -2327.94)"/><path class="q" d="M1228.51,2622.35s30.77,3,73,0l.9,8.51s-57.43,4-74.77-.32Z" transform="translate(-1202.9 -2327.94)"/><g class="r"><path class="s" d="M1300.8,2548.77a18.14,18.14,0,0,1-4.34-.46,23.79,23.79,0,0,1-4.14-1.33,24.21,24.21,0,0,1-7.24-4.7,15,15,0,0,1-4.43-7.07,9.85,9.85,0,0,1-.17-4.08,11.07,11.07,0,0,1,1.48-3.85,34.86,34.86,0,0,0,2.11-4.24,32.68,32.68,0,0,0,.39-4.4c0-.3,0-.61,0-.93-.08.25-.15.49-.24.73a40.07,40.07,0,0,1-3.72,7.95,12.15,12.15,0,0,0-1.77,4.44,11.52,11.52,0,0,0,.16,4.82,14.42,14.42,0,0,0,1.95,4.34,19.26,19.26,0,0,0,3.05,3.56,23.38,23.38,0,0,0,3.74,2.75,22.79,22.79,0,0,0,4.16,2,21.28,21.28,0,0,0,9,1.37,14.74,14.74,0,0,0,4.45-1.09,11.14,11.14,0,0,0,3.7-2.57A12.86,12.86,0,0,1,1300.8,2548.77Z" transform="translate(-1202.9 -2327.94)"/><path class="s" d="M1298.19,2557a11.16,11.16,0,0,0-1.58-.6,17.73,17.73,0,0,0-3.3-.6,31.3,31.3,0,0,0-6.64.22c-2.14.27-4.27.53-6.41.73-1.07.09-2.14.2-3.21.24a22.05,22.05,0,0,1-3.25,0,11.84,11.84,0,0,0,3.2.91,28.27,28.27,0,0,0,3.31.3,43.9,43.9,0,0,0,6.59-.35c2.13-.28,4.24-.51,6.37-.59a27.91,27.91,0,0,1,3.17,0,13.65,13.65,0,0,1,1.58.21,5.77,5.77,0,0,1,1.55.47A4.54,4.54,0,0,0,1298.19,2557Z" transform="translate(-1202.9 -2327.94)"/><path class="s" d="M1283.05,2550.94a7.4,7.4,0,0,0,3.88-.07,23.92,23.92,0,0,1-3.41-1.27,14,14,0,0,1-2.85-1.86,18.27,18.27,0,0,1-2.41-2.48c-.75-.92-1.46-1.9-2.18-3a8.58,8.58,0,0,0,1,3.74,9.72,9.72,0,0,0,2.43,3.1A8.57,8.57,0,0,0,1283.05,2550.94Z" transform="translate(-1202.9 -2327.94)"/><path class="s" d="M1288.69,2575a17.75,17.75,0,0,1-3.37-1,10.26,10.26,0,0,1-2.73-1.77,14.92,14.92,0,0,1-2.19-2.53c-.66-.94-1.27-1.95-1.89-3a8.1,8.1,0,0,0,.65,3.72,8.82,8.82,0,0,0,2.21,3.2,7.47,7.47,0,0,0,3.52,1.78A6.7,6.7,0,0,0,1288.69,2575Z" transform="translate(-1202.9 -2327.94)"/><path class="s" d="M1284.46,2580.61a16.63,16.63,0,0,1-3-1,9.42,9.42,0,0,1-2.41-1.59,14.07,14.07,0,0,1-2-2.22c-.6-.83-1.17-1.72-1.76-2.69a6.93,6.93,0,0,0,.51,3.36,7.76,7.76,0,0,0,2,2.9,6.5,6.5,0,0,0,3.19,1.6A5.83,5.83,0,0,0,1284.46,2580.61Z" transform="translate(-1202.9 -2327.94)"/><path class="s" d="M1275.17,2584.47a12.76,12.76,0,0,1-1.4-1.51c-.46-.56-.92-1.17-1.45-1.84a4.6,4.6,0,0,0,.19,2.52,5.33,5.33,0,0,0,1.45,2.18,4.53,4.53,0,0,0,2.41,1.15,3.9,3.9,0,0,0,2.52-.44,18.49,18.49,0,0,1-2.1-.92A7.85,7.85,0,0,1,1275.17,2584.47Z" transform="translate(-1202.9 -2327.94)"/><path class="s" d="M1301.93,2583a14.71,14.71,0,0,1-3.23-.82,10.34,10.34,0,0,1-2.81-1.64,17.5,17.5,0,0,1-2.45-2.54,6.73,6.73,0,0,0,1.42,3.53,7.41,7.41,0,0,0,3.18,2.34,9,9,0,0,0,3.85.55,8.17,8.17,0,0,0,3.62-1.09C1304.25,2583.23,1303.08,2583.14,1301.93,2583Z" transform="translate(-1202.9 -2327.94)"/><path class="s" d="M1301.19,2589c-1.14-.1-2.19-.2-3.21-.37a13.63,13.63,0,0,1-2.86-.74,9.58,9.58,0,0,1-2.5-1.43,18.9,18.9,0,0,1-2.26-2.23,6,6,0,0,0,1.23,3.22,6.63,6.63,0,0,0,2.87,2.13,7.72,7.72,0,0,0,3.48.47A7.17,7.17,0,0,0,1301.19,2589Z" transform="translate(-1202.9 -2327.94)"/><path class="s" d="M1291.1,2594.28a8.21,8.21,0,0,1-1.75-.93,17.32,17.32,0,0,1-1.76-1.47,3.82,3.82,0,0,0,.74,2.46,4.54,4.54,0,0,0,2.11,1.63,5.27,5.27,0,0,0,2.59.31,4.65,4.65,0,0,0,2.34-1c-.84-.18-1.58-.31-2.29-.47A13.91,13.91,0,0,1,1291.1,2594.28Z" transform="translate(-1202.9 -2327.94)"/><path class="s" d="M1342.07,2560c.33-.6.69-1.18,1.07-1.75a33.77,33.77,0,0,1,2.25-3,26.36,26.36,0,0,0-2.72.93c-.29.37-.57.73-.84,1.11-.42.6-.83,1.21-1.2,1.85s-.72,1.32-1,1.87a9.32,9.32,0,0,1-6.07,4.55,15.69,15.69,0,0,1-8-.27,23.55,23.55,0,0,1-7.42-3.48,19,19,0,0,1-5.61-6,12.31,12.31,0,0,1-1.41-3.88,11,11,0,0,1,.1-4.19,10.26,10.26,0,0,0-.6,4.24,12.69,12.69,0,0,0,1.12,4.22,18.66,18.66,0,0,0,5.56,6.72,23.69,23.69,0,0,0,7.8,4,17.33,17.33,0,0,0,8.88.37,11.49,11.49,0,0,0,4.14-2,11,11,0,0,0,3-3.49C1341.47,2561.23,1341.72,2560.64,1342.07,2560Z" transform="translate(-1202.9 -2327.94)"/><path class="s" d="M1313.7,2580.5A11.9,11.9,0,0,0,1316,2583a22,22,0,0,1-1.48-2.9c-.45-1-.84-2-1.23-3-.78-2-1.51-4-2.24-6a30.19,30.19,0,0,0-2.79-6,17.36,17.36,0,0,0-2-2.68,11.19,11.19,0,0,0-1.25-1.14,4.31,4.31,0,0,0-1.47-.8,5.86,5.86,0,0,1,1.12,1.16,13.25,13.25,0,0,1,.89,1.32,27.81,27.81,0,0,1,1.47,2.81c.89,1.94,1.62,3.93,2.33,6a45.15,45.15,0,0,0,2.66,6A29.37,29.37,0,0,0,1313.7,2580.5Z" transform="translate(-1202.9 -2327.94)"/><path class="s" d="M1318.17,2570.94a21,21,0,0,1-2.67-2.47,7.42,7.42,0,0,0,1.68,3.5,8.65,8.65,0,0,0,3.21,2.36,9.79,9.79,0,0,0,3.86.78,8.46,8.46,0,0,0,3.78-.8c-1.28-.16-2.47-.36-3.62-.61a17.63,17.63,0,0,1-3.3-1A13.39,13.39,0,0,1,1318.17,2570.94Z" transform="translate(-1202.9 -2327.94)"/><path class="s" d="M1288.25,2582.56c1.17-1.91,2.3-3.85,3.36-5.82s2.06-4,2.92-6.09a65.76,65.76,0,0,0-4.14,5.34c-1.28,1.84-2.5,3.71-3.68,5.62s-2.3,3.84-3.36,5.82a62.83,62.83,0,0,0-2.91,6.08,66.14,66.14,0,0,0,4.13-5.34C1285.85,2586.34,1287.08,2584.46,1288.25,2582.56Z" transform="translate(-1202.9 -2327.94)"/></g><path class="a" d="M1275.29,2417.29a11.86,11.86,0,0,0,2.34-2c4.09-4.13,12.31-21,15.8-31.46a76,76,0,0,1,8.2-17.33l-11.53-5.5s-3,7.5-12.39,19.59-13.78,22.93-15.36,31.35C1262,2415,1273.41,2418.69,1275.29,2417.29Z" transform="translate(-1202.9 -2327.94)"/><path class="a" d="M1271.59,2409.3c-.17,1.19,6.55-.33,6.55-.33s9.87,28.89,7.86,36.81c0,0,5.9,16.88,5.28,24.76,16.12,20.94,8.89,42.73-10.84,39.36-10.45-1.38-13.48-18-12.6-31.84,1.05-16.56-1.94-21.62-3.64-28.48-2.28-9.24-2-32.68-1.44-36.65C1268.49,2412.08,1266.25,2407.08,1271.59,2409.3Z" transform="translate(-1202.9 -2327.94)"/><g class="r"><path class="s" d="M1268.2,2468.23c.8-2.88,1.42-5.76,2.09-8.63.32-1.44.67-2.87,1-4.29s.73-2.85,1.18-4.27a19.64,19.64,0,0,0-1.89,4.05,40.48,40.48,0,0,0-1.23,4.3c-.32,1.45-.6,2.91-.8,4.39A36.58,36.58,0,0,0,1268.2,2468.23Z" transform="translate(-1202.9 -2327.94)"/><path class="s" d="M1264,2423.21a16.18,16.18,0,0,0,2.16-2l1-1a14.64,14.64,0,0,1,1-1.05,2.91,2.91,0,0,0-1.5.46,5.71,5.71,0,0,0-1.2,1,7.24,7.24,0,0,0-.91,1.23A4.91,4.91,0,0,0,1264,2423.21Z" transform="translate(-1202.9 -2327.94)"/></g><path class="a" d="M1372,2614.63c.1-1.2-6.52.71-6.52.71s-11.54-28.27-10-36.29c0,0-13.8-13.78-13.64-21.68-9.84-20.49-8.6-34.48,11.3-32.27,10.5.78,18.67,6.81,18.59,20.68-.09,16.59,3.19,21.46,5.28,28.2,2.82,9.1,3.87,32.51,3.59,36.5C1374.92,2611.68,1377.44,2616.53,1372,2614.63Z" transform="translate(-1202.9 -2327.94)"/><path class="t" d="M1302.34,2490.67s-16.8,16.86-36.72,32.8c0,0-12.93,20.52-21.85,40.84-16,36.53-16.1,60.48-16.1,60.48s34.32,1.29,74.52,1.29c0,0,5.18-12.53,4-9.94s13.92-26.13,17.86-33.19c1.78-3.22,9.85-8.12,9.85-8.12s6.28-32.09,26.82-48.17l-3.54-4.49s-28.09,26.66-43.41,17.21-12.6-31.9-6.39-47.9Z" transform="translate(-1202.9 -2327.94)"/><path class="a" d="M1330.14,2610.76a32.62,32.62,0,0,1-9.94.47c-3.64-.58-4.94-.58-10.93-1.17-6.5-.65-6.81-1.24-8.85-2s-5.08,3.15.55,5.29,7.39,1.93,7.39,1.93-9.11.12-13.8.53-7.68.49-7.17,2.75c.26,1.14.93,1.55,7.22,1.3s13.38-.45,13.38-.45-23.12,1.5-22.91,4.22c.15,1.74,1.24,2.29,8.7,1.55s14.53-1.8,14.53-1.8-19,3.7-20.4,4.57c-.8.52-3.67,3.8,4,2.26l17.59-3.54s-16,3.83-15.34,6,7.46-.15,17.16-2.81,9.26-3.45,11.61-5,10.19-3.27,10.19-3.27Z" transform="translate(-1202.9 -2327.94)"/><path class="a" d="M1379.66,2600.89c-.85-.38-4.09.45-5,.34-5.76-.73-24.16,3-34.56,6.64a76.24,76.24,0,0,1-18.75,4.05l1.57,12.87s8.88-2.56,24.18-2.49,25.09-2.31,32.73-6.2C1382.46,2614.53,1381.91,2601.52,1379.66,2600.89Z" transform="translate(-1202.9 -2327.94)"/><g class="r"><path class="s" d="M1371.93,2555.61c-.63,2.91-1.09,5.83-1.59,8.72-.23,1.46-.5,2.91-.77,4.36s-.56,2.88-.92,4.33a19.93,19.93,0,0,0,1.65-4.16,41.51,41.51,0,0,0,1-4.36c.24-1.47.43-2.95.54-4.43A34.92,34.92,0,0,0,1371.93,2555.61Z" transform="translate(-1202.9 -2327.94)"/><path class="s" d="M1378.72,2600.31a15.59,15.59,0,0,0-2,2.14l-.91,1.1c-.3.36-.61.72-1,1.1a2.94,2.94,0,0,0,1.47-.55,5.13,5.13,0,0,0,1.13-1,6.38,6.38,0,0,0,.83-1.28A4.48,4.48,0,0,0,1378.72,2600.31Z" transform="translate(-1202.9 -2327.94)"/></g></svg>