<svg xmlns="http://www.w3.org/2000/svg" viewBox="0 0 607.95 444.67"><defs><style>.a{isolation:isolate;}.b{fill:#f0865f;}.c,.f{fill:#964921;}.c{opacity:0.3;}.c,.f,.g{mix-blend-mode:multiply;}.d{fill:#6e3525;}.e{fill:#b35c45;}.f{opacity:0.5;}.g{fill:#e6e6e5;}.h{fill:#4e4e4e;}.i{fill:#387492;}.j{fill:#333;}</style></defs><g class="a"><path class="b" d="M1480.66,2531.66l-4.54-76.87,33.92-2.47,2,4.73,10.48,2.49-1.55,2.26a13.6,13.6,0,0,0-1.3,13.06l3.63,43.94Z" transform="translate(-990.55 -2372.2)"/><path class="c" d="M1487.67,2459.11a22.9,22.9,0,0,1-1.6-5.05l24-1.74,2,4.73,10.48,2.49-1.55,2.26a13.59,13.59,0,0,0-1.85,11.5C1510.7,2475.1,1494.92,2475.84,1487.67,2459.11Z" transform="translate(-990.55 -2372.2)"/><path class="d" d="M1475.34,2421.78c13.39,16.69,12.21,39.87-2.63,51.78s-37.73,8-51.12-8.66-12.2-39.87,2.64-51.77S1462,2405.1,1475.34,2421.78Z" transform="translate(-990.55 -2372.2)"/><ellipse class="d" cx="1453.63" cy="2414.27" rx="45.97" ry="34.57" transform="translate(-2336.07 -284.34) rotate(-52.3)"/><path class="e" d="M1430.17,2396.75c-14.17,18.34-15.65,41.37-4.3,54.13-.12-.09-.24-.15-.36-.24-15.1-11.68-14.76-37.42.77-57.51s40.35-26.9,55.46-15.23a26.37,26.37,0,0,1,3.54,3.38C1470.15,2370,1445.58,2376.81,1430.17,2396.75Z" transform="translate(-990.55 -2372.2)"/><path class="d" d="M1436.4,2428.09c9.63,12,8.24,29.12-3.12,38.23s-28.37,6.76-38-5.25-8.24-29.12,3.12-38.23S1426.77,2416.08,1436.4,2428.09Z" transform="translate(-990.55 -2372.2)"/><path class="e" d="M1435.85,2432.05c-9.63-12-26.65-14.35-38-5.24a25.31,25.31,0,0,0-8.9,14.58,25.62,25.62,0,0,1,9.45-18.55c11.35-9.11,28.37-6.76,38,5.25a28.38,28.38,0,0,1,5.78,23.65A28.67,28.67,0,0,0,1435.85,2432.05Z" transform="translate(-990.55 -2372.2)"/><path class="d" d="M1456.61,2449.37a2.94,2.94,0,0,1-2-5.13c15.93-14.29,23.66-27.79,23-40.13a27.5,27.5,0,0,0-10.2-19.57,2.94,2.94,0,0,1,3.43-4.77,33.31,33.31,0,0,1,12.65,24c.76,14.21-7.63,29.29-24.94,44.83A3,3,0,0,1,1456.61,2449.37Z" transform="translate(-990.55 -2372.2)"/><path class="d" d="M1462.39,2422.41l2.19,6.86s3.48,12.88-8.15,20.44l-9.17-3.21-8.84-2.69-.79-7.28,9.42-10.15,14.48-3" transform="translate(-990.55 -2372.2)"/><path class="b" d="M1460.53,2394.51s18.23-7.73,35.86,8.81h0a12.31,12.31,0,0,0,5.37,2.93l15.42,4a3,3,0,0,1,2.16,2.06h0a3.06,3.06,0,0,1-.69,3l-1.73,1.86a1.17,1.17,0,0,0-.31.91l.08,1.06c.06.76,16.52,16.07,16.52,16.07a10.24,10.24,0,0,1,.28,14.67l-2.67,2.72a62,62,0,0,1-14.75,11.05l-3.9,2.11a22.14,22.14,0,0,1-21.33-.19l-8.38-4.71h0a27.86,27.86,0,0,1-43.36-3c-6.88-10-11-22.09-4.63-33.77C1434.47,2424,1444,2403.05,1460.53,2394.51Z" transform="translate(-990.55 -2372.2)"/><ellipse class="d" cx="1442.04" cy="2414.34" rx="43.74" ry="31.05" transform="translate(-2340.63 -293.48) rotate(-52.3)"/><path class="e" d="M1469.08,2382.08c-13.55-10.47-37-2.76-52.5,17.23a63.87,63.87,0,0,0-9.4,16.81,57.33,57.33,0,0,1,10.29-20.77c14.77-19.11,37.75-26.1,51.32-15.62,7,5.38,10.06,14.31,9.47,24.3C1478.37,2394.91,1475.38,2387,1469.08,2382.08Z" transform="translate(-990.55 -2372.2)"/><path class="d" d="M1460.76,2404.74s5,2,3,13.86c0,0-.09,6.16,3.91,7.76,0,0,11.52,2.62,9.83,9.3,0,0-.79,5.56-4.61,5,0,0-9.49-3.23-12.19,4.75,0,0-3.27,8.1,7.71,13.34,0,0,5.65,2.84,11.06.19,0,0,12.85,5.47,4.1,21.73,0,0-19.21,14.91-45-6.89a40,40,0,0,1-13.92-36.85c1.28-7.86,4.86-16.92,12.6-26.57,0,0,9.47-12.45,18.45-9.81C1455.74,2400.5,1457.84,2400.43,1460.76,2404.74Z" transform="translate(-990.55 -2372.2)"/><path class="f" d="M1464.74,2446.43c1.48-3.39,6.34-2.56,7.77-2.23-.72,3.48,2.67,7.69,8,9.7.47.18.94.3,1.41.44a4.55,4.55,0,0,1-.19.67c-.7,2.42-7.31,1.58-7.31,1.58C1461.35,2455.57,1464.74,2446.43,1464.74,2446.43Z" transform="translate(-990.55 -2372.2)"/><path class="b" d="M1593.31,2583.41l-59.94-72.52a30.69,30.69,0,0,0-23.65-11.14h-26.5a14.62,14.62,0,0,0-14.29,17.74c5.67,26,17.44,73.6,23.71,98.71a36.94,36.94,0,0,1-41.72,46.14l-1.48-.24a57.39,57.39,0,0,0-64.28,40.58h0l-73.09,24.1a126.29,126.29,0,0,1-39.51,6.34h0A345.55,345.55,0,0,0,1160,2752l-8.79,3c-15.29,5.27-37.53,9.36-55.81,10.62l-10.68.44h0l-19.26-7a17.43,17.43,0,0,0-22.73,11.68l-3.48,12.41h0l-31.57,19.8h0l-7.19,1.57a12.65,12.65,0,0,0-9.93,12.34h48.35a19.9,19.9,0,0,0,8.76-2l30.63-15.08h0L1226.13,2782a58.23,58.23,0,0,1,30,3.83c9.09,3.74,18.8,5.75,28.58,4.83l152.15-14.33a135.88,135.88,0,0,0,96-53.82l41.51-55.43a43.38,43.38,0,0,0,8.66-26v-18.21h0l9-9.08A22.67,22.67,0,0,0,1593.31,2583.41Z" transform="translate(-990.55 -2372.2)"/><path class="g" d="M1592,2613.77l-101-4.34c.59,2.38,1.17,4.67,1.69,6.77a37.3,37.3,0,0,1,.5,17.35,40.83,40.83,0,0,1-1.93,6l89.07,16.42a43.18,43.18,0,0,0,2.74-14.91v-18.21h0Z" transform="translate(-990.55 -2372.2)"/><path class="h" d="M1477.58,2656.47a37,37,0,0,1-26.66,5.87l-1.48-.24a57.39,57.39,0,0,0-64.28,40.58h0l-73.09,24.1a126.29,126.29,0,0,1-39.51,6.34h0A345.55,345.55,0,0,0,1160,2752l-8.79,3c-10.18,3.51-23.43,6.47-36.55,8.45v31.94l111.48-13.4a58.23,58.23,0,0,1,30,3.83c9.09,3.74,18.8,5.75,28.58,4.83l152.15-14.33a135.88,135.88,0,0,0,96-53.82Z" transform="translate(-990.55 -2372.2)"/><path class="i" d="M1493.81,2629.23a30.29,30.29,0,0,1-.67,4.32,37.53,37.53,0,0,1-15.56,22.92" transform="translate(-990.55 -2372.2)"/><path class="h" d="M1593.31,2583.41l-59.94-72.52c-5.83-7-18.28-12.92-27.43-12.92l-20.13-.71c-9.34,0-19.82,11.26-17.83,20.38,5.66,26,18.39,73.45,24.66,98.56a39.83,39.83,0,0,1,1.17,13l89.21,5.37v-11.75h0l9-9.08A22.67,22.67,0,0,0,1593.31,2583.41Z" transform="translate(-990.55 -2372.2)"/><path class="b" d="M1509.77,2521.46a20.9,20.9,0,1,1-20.9-20.9A20.9,20.9,0,0,1,1509.77,2521.46Z" transform="translate(-990.55 -2372.2)"/><path class="j" d="M1492.64,2616.2a39.83,39.83,0,0,1,1.17,13l89.21,5.37v-11.75h0Z" transform="translate(-990.55 -2372.2)"/><path class="b" d="M1481.92,2676.24h0a20.19,20.19,0,0,0,21-19.2l6-132.91a20.19,20.19,0,0,0-19.2-21h0a20.18,20.18,0,0,0-21,19.2l-6,132.91A20.19,20.19,0,0,0,1481.92,2676.24Z" transform="translate(-990.55 -2372.2)"/><path class="g" d="M1468,2520a20.53,20.53,0,0,1,20.83-19.41l3.77.34c.95,0,5.31,1.69,6.22,1.86-9,1.69-22.35,10.08-22.78,19.56l-6,132.91a20.17,20.17,0,0,0,16.42,20.66,20.09,20.09,0,0,1-4.61.35h0a19.14,19.14,0,0,1-19.24-20.13Z" transform="translate(-990.55 -2372.2)"/><path class="b" d="M1504.19,2662.69l-2.48,108c.12.69.26,1.43.42,2.19l-19.34,3.31-18.27-106.77a20.17,20.17,0,0,1,16.44-23.22h0A20.18,20.18,0,0,1,1504.19,2662.69Z" transform="translate(-990.55 -2372.2)"/><path class="g" d="M1469.5,2652.56l20.1,122.51-6.81,1.17-18.27-106.77A20.11,20.11,0,0,1,1469.5,2652.56Z" transform="translate(-990.55 -2372.2)"/><path class="b" d="M1490.11,2770.44v-.05c11.48-.42,30.67-3.49,44.81-.51l35.23,14.25a2.79,2.79,0,0,1,.38,5c-10.17,5.59-46.25.87-55.73.88h-23.62c-.19,0-.38.06-.58.06a9.85,9.85,0,0,1-.49-19.63Z" transform="translate(-990.55 -2372.2)"/><path class="g" d="M1488.11,2770.8a10.19,10.19,0,0,0-1.57,5.44,9.58,9.58,0,0,0,9.3,9.84c.19,0,.38,0,.57-.06H1520c8.53,0,38.51,3.79,51.87.48a2.66,2.66,0,0,1-1.37,2.63c-10.17,5.59-46.25.87-55.73.88h-23.62c-.19,0-.38.06-.58.06a9.58,9.58,0,0,1-9.29-9.84A9.72,9.72,0,0,1,1488.11,2770.8Z" transform="translate(-990.55 -2372.2)"/></g></svg>