<svg xmlns="http://www.w3.org/2000/svg" xmlns:xlink="http://www.w3.org/1999/xlink" viewBox="0 0 310.83 431.5"><defs><style>.a{fill:none;}.b{fill:#0d0b42;}.b,.j,.l,.m,.n,.o,.q,.r,.s,.u{fill-rule:evenodd;}.c{fill:#e4ae84;}.d{fill:#502919;}.e,.m{fill:#404fa2;}.f{fill:#333d83;}.g{opacity:0.26;}.h{fill:#511d06;}.i{fill:#3abeb6;}.j,.t{fill:#fff;}.k,.n{fill:#d3d5d6;}.l{fill:#000007;}.o{fill:#252b67;}.p{fill:#20245e;}.q{fill:#00002d;}.aw,.r{fill:#231f20;}.s{fill:#bcbec0;}.u{fill:#d1d3d4;}.v{fill:#010001;}.w{clip-path:url(#a);}.x{fill:#414042;}.y{fill:#403f41;}.z{fill:#3f3e40;}.aa{fill:#3e3d3f;}.ab{fill:#3d3c3e;}.ac{fill:#3c3b3c;}.ad{fill:#3a393b;}.ae{fill:#39383a;}.af{fill:#383738;}.ag{fill:#373637;}.ah{fill:#363436;}.ai{fill:#353335;}.aj{fill:#343233;}.ak{fill:#323132;}.al{fill:#312f30;}.am{fill:#302e2f;}.an{fill:#2f2c2e;}.ao{fill:#2d2b2c;}.ap{fill:#2c2a2b;}.aq{fill:#2b2829;}.ar{fill:#292728;}.as{fill:#282526;}.at{fill:#272425;}.au{fill:#262223;}.av{fill:#242122;}.ax{fill:#4e4e4d;}.ay{fill:#7f7d7c;}.az{fill:#6f6d6c;}.ba{fill:#636466;}.bb{fill:#a7a9ac;}.bc{clip-path:url(#b);}.bd{fill:#1b161d;}.be{opacity:0.25;}</style><clipPath id="a" transform="translate(-1140.22 -2375.58)"><rect class="a" x="1168.3" y="2570.51" width="11.02" height="102.42"/></clipPath><clipPath id="b" transform="translate(-1140.22 -2375.58)"><rect class="a" x="1411.95" y="2570.51" width="11.01" height="102.42"/></clipPath></defs><path class="b" d="M1258.78,2773.29s-8.86-4-18.59-2.11c-.41.08-1.85,16.7-1.13,16.73s16.68-4.47,17-4.86S1258.78,2773.29,1258.78,2773.29Z" transform="translate(-1140.22 -2375.58)"/><path class="b" d="M1313.29,2773.34a34.74,34.74,0,0,1,18.59-2.15c.39.07,1.88,16.69,1.16,16.72s-16.69-4.43-17-4.82S1313.29,2773.34,1313.29,2773.34Z" transform="translate(-1140.22 -2375.58)"/><path class="c" d="M1323,2530.61c5.15-33.57,5.22-69,4-69.22l-.65-.12a55.73,55.73,0,0,1-12.22-4.16c-7.16-3.36-18.33-1.74-18.33-1.74H1278s-10.9-1.62-17.88,1.74a53.62,53.62,0,0,1-11.93,4.16l-.62.12h0s-1.14,34.69,3.88,68.26c5,33.22-2.36,51.11.29,67.51.91,5.68,28-2.81,30.1,4.21,0,0,4,.18,5,.05,1,.13,5.08-.05,5.08-.05,2.13-7,30.06,1.47,31-4.21C1325.61,2580.76,1317.93,2563.83,1323,2530.61Z" transform="translate(-1140.22 -2375.58)"/><path class="c" d="M1270.31,2443.61s4.22,10-1.69,15.27,31.78,3,31.78,0-3.93-10.57-1.49-15.27C1298.91,2443.61,1284.29,2443.91,1270.31,2443.61Z" transform="translate(-1140.22 -2375.58)"/><path class="c" d="M1246.69,2677.8c-.52,2.39-.38,10.26-2,13.24-3.52,6.58-.94,25.88-.61,39.88s-1.27,38.06-1.27,38.06l13.94,1.06s4.06-31.43,9.16-50.63c5.75-21.63,3.64-25.91,4.94-36.08C1269.92,2679.48,1248.52,2675.37,1246.69,2677.8Z" transform="translate(-1140.22 -2375.58)"/><path class="c" d="M1247.49,2686.11c.56,4.18,21.25,10.61,22.9,3.38,2-14.9,29.1-90.84,10.34-99.59,0,0-20.47-34-28-1.3-5.57,24.08-7.37,62.59-7.83,72.74A101.44,101.44,0,0,0,1247.49,2686.11Z" transform="translate(-1140.22 -2375.58)"/><path class="c" d="M1257.2,2784c.38-3.17,1.32-3.36.11-7.18s0-15.14,0-15.14l-13,.52a67.66,67.66,0,0,1-6.75,20.05Z" transform="translate(-1140.22 -2375.58)"/><path class="c" d="M1326,2677.73c.53,2.4.41,10.26,2,13.24,3.52,6.58,1,25.88.7,39.88s1.36,38.06,1.36,38.06l-13.94,1.08s-4.12-31.41-9.28-50.61c-5.8-21.6-3.7-25.89-5-36.06C1302.82,2679.47,1324.21,2675.32,1326,2677.73Z" transform="translate(-1140.22 -2375.58)"/><path class="c" d="M1325.26,2686.05c-.55,4.17-21.71,4.39-23.38-2.83-2-14.9-28.82-84.51-10.09-93.3,0,0,20.39-34.07,28-1.37,5.63,24.06,6.49,63.75,7,73.91C1327.14,2669.48,1327,2679.17,1325.26,2686.05Z" transform="translate(-1140.22 -2375.58)"/><path class="c" d="M1310.72,2417.6c0,16.06-11.37,29.07-25.39,29.07s-25.38-13-25.38-29.07,11.37-29.07,25.38-29.07S1310.72,2401.55,1310.72,2417.6Z" transform="translate(-1140.22 -2375.58)"/><path class="c" d="M1343,2623.84c0-.1,0-.19,0-.26s0,.15,0,.26h8.31v0h3.6c-.11-.68-.16-1.08-.16-1.08s.07.41.21,1.08h3.75c-.2-.9-.42-1.82-.62-2.78-2.25-10.08-3.08-9.67-4.56-12.16s-2.86-10.61-2.86-10.61l-11.18,2.49s.93,5.83,0,10.2c-.79,3.72-.84,5-1.75,11.16-.09.63-.18,1.18-.26,1.7Z" transform="translate(-1140.22 -2375.58)"/><path class="d" d="M1306.68,2428.32s-4,9-10.66,12.88c-.87.49-1.82-.77-2.56,0-5.68,6-7.34.25-7.34.25l-1.22,0-1.72-.09s-1.37,5-6.77.19c-.48-.43-1,.42-1.52.16-7.7-3.49-11.74-13-11.74-13-1.22-7.17-7-14.78-4.27-3.24,2.35,9.28,8.17,22.73,25.68,22.73,21,0,24.52-18.92,25.54-21.37C1311.76,2422.88,1307.9,2421.15,1306.68,2428.32Z" transform="translate(-1140.22 -2375.58)"/><path class="d" d="M1291,2432.26c-3.75.23-5.57.24-6.08,2.09-.5-1.59-2.43-1.73-6.49-1.74-6,0-4.1,9.66-4.1,9.66l3.36,4.19s3.63-1.83,1.37-2.7-2.76-.68-2.76-4.31,1.17-4.33,4.72-3.07a9.6,9.6,0,0,0,7.44,0c3.56-1.26,5.1-.55,5.1,3.07s-.5,3.43-2.76,4.31.89,1.77.89,1.77l3.84-3.26S1296.82,2431.93,1291,2432.26Z" transform="translate(-1140.22 -2375.58)"/><path class="d" d="M1266.64,2441s-1.16-1.85-2.62-4.41C1265.08,2440.05,1266.64,2441,1266.64,2441Z" transform="translate(-1140.22 -2375.58)"/><path class="d" d="M1316.55,2400.74a25.42,25.42,0,0,0-1.27-5.8c-.75-2.27-4.22-5.7-6-8.16-.19-.32-.4-.62-.61-.93l0,0a4.77,4.77,0,0,0-.91-1.11,13,13,0,0,0-6.22-3.59l-.74-.22-1-.57a13.84,13.84,0,0,0-4.67-1.49c-5.43-2.18-9.36-4.13-14.1-2.87l-.54.11a7.31,7.31,0,0,0-1-.09c-2.37,0-4,1.21-7.86,2.31s-5.3,2.41-8.91,5.46a13.55,13.55,0,0,0-3.2,3.52,18.71,18.71,0,0,0-2.48,4.14c-5.28,12.38.09,27.47,1.41,33,.48,2,5.34,11.62,5.68,12.22a27.29,27.29,0,0,1-1-8.8c0-.46,0-1.19-.08-2.09-3.24-26,6.21-26.89,14.87-24.1l.29.09c.56.25,1.21.51,2,.8,2.93,1.07,3.93.22,5.91-1.05a12.45,12.45,0,0,0,2.35-.95,28.17,28.17,0,0,1,3.8-1.65c16.79-2.34,15,18.45,14.48,21.6s-.8,12.08.14,8c.06-.25.92.68,1.13-1.27,0,.16-.06-.14,0,0,1.51,3.3-2.18,8.5-2.18,8.5a39.62,39.62,0,0,0,1.81-3.58l-1.08,3.57a82.85,82.85,0,0,0,4.9-9.11c1.56-3.57,4.1-15,4.73-19.71C1316.91,2403.93,1317.06,2402.32,1316.55,2400.74Z" transform="translate(-1140.22 -2375.58)"/><path class="c" d="M1315.79,2784c-.39-3.17-1.32-3.36-.13-7.19s-.05-15.13-.05-15.13l13,.49a67.61,67.61,0,0,0,6.79,20Z" transform="translate(-1140.22 -2375.58)"/><path class="e" d="M1251,2581s-5.39,21.16-7,54.06l-3.73,40.53,40.86.79,6.39-62,.6-12.85V2584.6Z" transform="translate(-1140.22 -2375.58)"/><path class="e" d="M1323.33,2581.5s5.17,17.68,6.46,52.93l2.17,41.08-40.69.79-4.46-62-.6-12.85v-19.36Z" transform="translate(-1140.22 -2375.58)"/><path class="f" d="M1249.76,2578.74s31.6,3.08,75,0l.93,8.74s-59,4.13-76.75-.32Z" transform="translate(-1140.22 -2375.58)"/><g class="g"><path class="h" d="M1281.88,2511.93a18.71,18.71,0,0,1-4,1.92,24,24,0,0,1-4.33,1.07,24.86,24.86,0,0,1-8.86-.21,15.29,15.29,0,0,1-7.68-3.79,10.07,10.07,0,0,1-2.35-3.47,11.48,11.48,0,0,1-.78-4.17,35.25,35.25,0,0,0-.44-4.83,33.42,33.42,0,0,0-2-4.06l-.49-.82c.07.26.13.51.18.76a40.7,40.7,0,0,1,1,9,12.65,12.65,0,0,0,.85,4.84,11.78,11.78,0,0,0,2.73,4.12,14.61,14.61,0,0,0,4,2.75,19.93,19.93,0,0,0,4.59,1.46,24.44,24.44,0,0,0,4.75.4,24.84,24.84,0,0,0,4.71-.48,21.85,21.85,0,0,0,8.64-3.68,15,15,0,0,0,3.31-3.34,11.75,11.75,0,0,0,1.85-4.25A13.2,13.2,0,0,1,1281.88,2511.93Z" transform="translate(-1140.22 -2375.58)"/><path class="h" d="M1284,2520.53a11.06,11.06,0,0,0-1.7.32,19.27,19.27,0,0,0-3.21,1.26,32,32,0,0,0-5.68,3.76c-1.72,1.39-3.45,2.77-5.21,4.09-.88.66-1.76,1.32-2.68,1.94a22.76,22.76,0,0,1-2.85,1.73,12.06,12.06,0,0,0,3.28-.93,29.88,29.88,0,0,0,3-1.52,43.87,43.87,0,0,0,5.58-3.85c1.71-1.39,3.43-2.74,5.25-3.95a25.53,25.53,0,0,1,2.8-1.67,13.35,13.35,0,0,1,1.49-.68,6.07,6.07,0,0,1,1.6-.41A4.32,4.32,0,0,0,1284,2520.53Z" transform="translate(-1140.22 -2375.58)"/><path class="h" d="M1267.54,2523.38a7.63,7.63,0,0,0,3.35-2.16,22.77,22.77,0,0,1-3.66.73,14.12,14.12,0,0,1-3.5-.09,18.36,18.36,0,0,1-3.43-.87c-1.16-.4-2.3-.87-3.51-1.41a8.92,8.92,0,0,0,2.87,2.73,10.11,10.11,0,0,0,3.8,1.39A8.81,8.81,0,0,0,1267.54,2523.38Z" transform="translate(-1140.22 -2375.58)"/><path class="h" d="M1285.45,2541.4a18.41,18.41,0,0,1-3.52.9,10.38,10.38,0,0,1-3.34-.08,15.22,15.22,0,0,1-3.27-1c-1.08-.47-2.16-1-3.29-1.64a8.4,8.4,0,0,0,2.57,2.9,8.93,8.93,0,0,0,3.66,1.59,7.51,7.51,0,0,0,4-.33A7,7,0,0,0,1285.45,2541.4Z" transform="translate(-1140.22 -2375.58)"/><path class="h" d="M1284.75,2548.55a18.72,18.72,0,0,1-3.16.73,9.75,9.75,0,0,1-3-.1,13.49,13.49,0,0,1-2.91-.89c-1-.39-2-.88-3-1.4a7.39,7.39,0,0,0,2.27,2.67,8.06,8.06,0,0,0,3.3,1.45,6.7,6.7,0,0,0,3.66-.32A6.06,6.06,0,0,0,1284.75,2548.55Z" transform="translate(-1140.22 -2375.58)"/><path class="h" d="M1278.7,2556.92a14.56,14.56,0,0,1-2-.56c-.7-.25-1.42-.54-2.25-.84a4.65,4.65,0,0,0,1.53,2.1,5.5,5.5,0,0,0,2.43,1.13,4.8,4.8,0,0,0,2.73-.28,4,4,0,0,0,2-1.76,19.42,19.42,0,0,1-2.34.34A9.76,9.76,0,0,1,1278.7,2556.92Z" transform="translate(-1140.22 -2375.58)"/><path class="h" d="M1301.29,2541.2a14.88,14.88,0,0,1-3.27,1,10.38,10.38,0,0,1-3.34.08,18.51,18.51,0,0,1-3.51-.9,7,7,0,0,0,3.15,2.32,7.5,7.5,0,0,0,4,.33,9.05,9.05,0,0,0,3.66-1.59,8.51,8.51,0,0,0,2.57-2.9C1303.45,2540.18,1302.38,2540.73,1301.29,2541.2Z" transform="translate(-1140.22 -2375.58)"/><path class="h" d="M1303.89,2546.89c-1,.52-2,1-3,1.4a13.49,13.49,0,0,1-2.91.89,9.76,9.76,0,0,1-3,.1,18.5,18.5,0,0,1-3.16-.73,6,6,0,0,0,2.8,2.14,6.68,6.68,0,0,0,3.65.32,8.1,8.1,0,0,0,3.31-1.45A7.36,7.36,0,0,0,1303.89,2546.89Z" transform="translate(-1140.22 -2375.58)"/><path class="h" d="M1297.91,2556.92a9.68,9.68,0,0,1-2,.13,19.28,19.28,0,0,1-2.33-.34,4,4,0,0,0,2,1.76,4.82,4.82,0,0,0,2.73.28,5.54,5.54,0,0,0,2.44-1.13,4.8,4.8,0,0,0,1.53-2.1c-.83.3-1.55.59-2.26.84A13.85,13.85,0,0,1,1297.91,2556.92Z" transform="translate(-1140.22 -2375.58)"/><path class="h" d="M1324,2499.54c0-.7,0-1.41,0-2.12a34.74,34.74,0,0,1,.38-3.79,28,28,0,0,0-1.87,2.29c-.06.47-.11.94-.14,1.42,0,.75-.07,1.5,0,2.25s.08,1.55.1,2.2a10.06,10.06,0,0,1-.65,3.93,10.35,10.35,0,0,1-2.2,3.32,16.21,16.21,0,0,1-7.12,4.06,24.27,24.27,0,0,1-8.36,1,19.16,19.16,0,0,1-8.12-2.21,12.29,12.29,0,0,1-3.33-2.63,11.27,11.27,0,0,1-2.17-3.72,10.65,10.65,0,0,0,1.77,4,12.54,12.54,0,0,0,3.25,3.08,19,19,0,0,0,8.48,2.88,24.06,24.06,0,0,0,9-.69,17.77,17.77,0,0,0,8-4.47,11.74,11.74,0,0,0,2.56-4,11.41,11.41,0,0,0,.73-4.65C1324.13,2500.91,1324,2500.25,1324,2499.54Z" transform="translate(-1140.22 -2375.58)"/><path class="h" d="M1310.24,2532.7a12.27,12.27,0,0,0,3.28.93,23.51,23.51,0,0,1-2.85-1.73c-.91-.62-1.8-1.28-2.68-1.94-1.76-1.32-3.48-2.7-5.21-4.09a31.6,31.6,0,0,0-5.68-3.76,18.94,18.94,0,0,0-3.21-1.26,11.06,11.06,0,0,0-1.7-.32,4.33,4.33,0,0,0-1.72.09,6.17,6.17,0,0,1,1.6.41,13.35,13.35,0,0,1,1.49.68,25.53,25.53,0,0,1,2.8,1.67c1.83,1.21,3.54,2.56,5.26,3.95a43.06,43.06,0,0,0,5.57,3.85A29.88,29.88,0,0,0,1310.24,2532.7Z" transform="translate(-1140.22 -2375.58)"/><path class="h" d="M1309,2522a22.77,22.77,0,0,1-3.66-.73,7.63,7.63,0,0,0,3.35,2.16,8.81,8.81,0,0,0,4.08.32,10.11,10.11,0,0,0,3.8-1.39,8.82,8.82,0,0,0,2.87-2.73c-1.2.54-2.35,1-3.5,1.41a18.66,18.66,0,0,1-3.44.87A14.1,14.1,0,0,1,1309,2522Z" transform="translate(-1140.22 -2375.58)"/><path class="h" d="M1289.11,2548.21c0-2.31-.07-4.6-.2-6.9a67.39,67.39,0,0,0-.73-6.89,67.39,67.39,0,0,0-.73,6.89c-.14,2.3-.2,4.59-.2,6.9s.06,4.59.2,6.89a64.41,64.41,0,0,0,.73,6.89,67.09,67.09,0,0,0,.73-6.89Q1289.11,2551.65,1289.11,2548.21Z" transform="translate(-1140.22 -2375.58)"/></g><path class="c" d="M1242.24,2551.59a12.69,12.69,0,0,1,.77,3.1c1,5.87-1.91,24.92-5.1,35.76a78.28,78.28,0,0,0-3.23,19.43l-12.94-2.11s1.85-8.09,1-23.78,1.79-27.4,5.4-35.43C1229.66,2545.76,1241.47,2549.31,1242.24,2551.59Z" transform="translate(-1140.22 -2375.58)"/><path class="c" d="M1236.28,2554.69c-.24-1.22,6.73,0,6.73,0s8.65-30.13,6.17-38.13c0,0,5.2-17.62,4.16-25.66,7.78-22,12.33-34.13-7.73-29.67-10.64,2-18.3,9-16.69,23.15,1.93,16.93-.88,22.26-2.27,29.38-1.87,9.6-.35,33.61.38,37.65C1233,2552,1230.91,2557.23,1236.28,2554.69Z" transform="translate(-1140.22 -2375.58)"/><g class="g"><path class="h" d="M1229.79,2494.44c1,2.9,1.76,5.83,2.59,8.74q.61,2.19,1.26,4.35c.44,1.45.9,2.88,1.44,4.32a19.56,19.56,0,0,1-2.15-4.07,41.12,41.12,0,0,1-1.49-4.34c-.4-1.47-.76-3-1-4.45A38.83,38.83,0,0,1,1229.79,2494.44Z" transform="translate(-1140.22 -2375.58)"/><path class="h" d="M1227.81,2540.82a16.71,16.71,0,0,1,2.32,1.95l1,1c.35.35.7.67,1.12,1a3,3,0,0,1-1.56-.41,5.42,5.42,0,0,1-1.28-.94,6.72,6.72,0,0,1-1-1.21A4.94,4.94,0,0,1,1227.81,2540.82Z" transform="translate(-1140.22 -2375.58)"/></g><path class="c" d="M1332.66,2551.59a12.69,12.69,0,0,0-.77,3.1c-1,5.87,1.92,24.92,5.1,35.76a78.28,78.28,0,0,1,3.23,19.43l13.29-1s-2.2-9.22-1.38-24.91-1.79-27.4-5.4-35.43C1345.25,2545.76,1333.43,2549.31,1332.66,2551.59Z" transform="translate(-1140.22 -2375.58)"/><path class="c" d="M1338.63,2554.69c.23-1.22-6.74,0-6.74,0s-8.65-30.13-6.17-38.13c0,0-5.19-17.62-4.16-25.66-7.78-22-12.33-34.13,7.73-29.67,10.64,2,18.3,9,16.69,23.15-1.93,16.93.88,22.26,2.27,29.38,1.87,9.6.35,33.61-.38,37.65C1342,2552,1344,2557.23,1338.63,2554.69Z" transform="translate(-1140.22 -2375.58)"/><g class="g"><path class="h" d="M1345.11,2494.44c-1,2.9-1.75,5.83-2.59,8.74-.4,1.46-.83,2.91-1.26,4.35s-.9,2.88-1.43,4.32a20,20,0,0,0,2.15-4.07,43.47,43.47,0,0,0,1.48-4.34c.4-1.47.76-3,1-4.45A38.83,38.83,0,0,0,1345.11,2494.44Z" transform="translate(-1140.22 -2375.58)"/><path class="h" d="M1347.1,2540.82a16.15,16.15,0,0,0-2.32,1.95l-1,1c-.35.35-.7.67-1.12,1a3.07,3.07,0,0,0,1.57-.41,5.37,5.37,0,0,0,1.27-.94,7.23,7.23,0,0,0,1-1.21A5.52,5.52,0,0,0,1347.1,2540.82Z" transform="translate(-1140.22 -2375.58)"/></g><path class="i" d="M1251.94,2460.31s6.72,31.88-2.1,56.54c0,0,2.24,22.4,1,35s-1.12,26.89-1.12,26.89,30.17,4.3,75,0c0,0-2.22-13.74-1.84-10.85s1.89-34,1.53-42.27a64.49,64.49,0,0,1,.44-8.77s-11.8-31.43-2.51-56.54l-5.5-2s-10.21,38.42-28.67,38.42-28.21-21.1-31.39-38.42Z" transform="translate(-1140.22 -2375.58)"/><path class="j" d="M1241.51,2772.82l.94-3.88,14.76,1.32v4.52S1242.18,2778.07,1241.51,2772.82Z" transform="translate(-1140.22 -2375.58)"/><path class="j" d="M1331.54,2772.73l-1-3.87-14.75,1.35v4.52S1330.88,2778,1331.54,2772.73Z" transform="translate(-1140.22 -2375.58)"/><path class="k" d="M1233.55,2789.24s-1.37,5.65-.89,8.58,1.91,8.5,13.74,9l.41-2.51S1233.46,2789.67,1233.55,2789.24Z" transform="translate(-1140.22 -2375.58)"/><path class="k" d="M1261.23,2791.71s.35,5.8-.64,8.6-3.38,8-15.12,6.45l0-2.54S1261.25,2792.14,1261.23,2791.71Z" transform="translate(-1140.22 -2375.58)"/><path class="l" d="M1240.16,2773.39a33.44,33.44,0,0,1,16.87,1.42s-1.74,5.07-3.15,6-9.83,1.14-10.07,1S1240.16,2773.39,1240.16,2773.39Z" transform="translate(-1140.22 -2375.58)"/><path class="m" d="M1259,2777.87c1-9.88-3.85-2.48-4.26-1.64-.71,1.46-11.63.49-12.06-1.07-.25-.9-3-9.88-4.77,1.2,0,0-5.08,14.64-4.7,19.37,1.16,7.09,2.27,8,12.92,8.93s12.78-.1,14.29-6.51C1261.65,2793.56,1259,2777.87,1259,2777.87Z" transform="translate(-1140.22 -2375.58)"/><path class="n" d="M1250.39,2804.87c-.09,1-1.59.92-3.44.75s-3.35-.32-3.26-1.35,1.66-1.73,3.52-1.56S1250.48,2803.83,1250.39,2804.87Z" transform="translate(-1140.22 -2375.58)"/><path class="o" d="M1260.44,2798.15a24.12,24.12,0,0,0,.23-6.39c-.61-.39-1.22-.72-1.78-1-3.25-1.67-9-6.2-7.29.62,0,0,7.94,5.15,4.54,13C1258.61,2803.54,1259.62,2801.64,1260.44,2798.15Z" transform="translate(-1140.22 -2375.58)"/><path class="o" d="M1234.26,2788.7a12.16,12.16,0,0,1,8.45-5.64l.06-2.26c-3,.12-5.53,2-7.32,3.84a9.68,9.68,0,0,1,7.37-5.21l.1-2.62a14.87,14.87,0,0,0-6.26,3.42c-.75,2.39-1.69,5.53-2.4,8.47Z" transform="translate(-1140.22 -2375.58)"/><path class="o" d="M1253.89,2780.41a9.69,9.69,0,0,1,6.33,6.44c-1.44-2.13-3.61-4.44-6.52-5.07l-.34,2.22a12.21,12.21,0,0,1,7.25,6.89c-.21-3-.61-6.29-1-8.79a14.74,14.74,0,0,0-5.4-4.28Z" transform="translate(-1140.22 -2375.58)"/><path class="o" d="M1243.14,2790.61c4.15-7.15-3.58-3-7.08-1.89a18.15,18.15,0,0,0-2,.7,24.09,24.09,0,0,0-.86,6.31c.6,3.68,1.2,5.69,3.12,6.91C1233.29,2793.8,1243.14,2790.61,1243.14,2790.61Z" transform="translate(-1140.22 -2375.58)"/><path class="p" d="M1243.73,2774.31s-.18,18,1.74,20.24,3.88.1,5.81-6.38S1255,2775,1255,2775s.94-2.3-2.69-3.5C1248.34,2770.23,1242.66,2771.14,1243.73,2774.31Z" transform="translate(-1140.22 -2375.58)"/><path class="q" d="M1246.28,2776.3s-.36-1.15-3.22-1.08c0,0-.87,11.11.08,15.39s1.44,6.36,4.88,6.28,4.78-5.67,6.11-10.21a68.38,68.38,0,0,0,1.91-10.1s-2.23-.91-3.7.26c0,0-2.25,18.68-4.76,18.89S1245.37,2780.5,1246.28,2776.3Z" transform="translate(-1140.22 -2375.58)"/><path class="j" d="M1252,2779.34a1.59,1.59,0,0,0,1.44-.09c.31-.26.17-.64-.31-.85a1.54,1.54,0,0,0-1.43.1C1251.36,2778.75,1251.5,2779.13,1252,2779.34Z" transform="translate(-1140.22 -2375.58)"/><path class="r" d="M1252.1,2779.24a1.25,1.25,0,0,0,1.14-.07c.25-.2.14-.51-.25-.67a1.23,1.23,0,0,0-1.13.07C1251.61,2778.77,1251.72,2779.08,1252.1,2779.24Z" transform="translate(-1140.22 -2375.58)"/><path class="j" d="M1251.13,2783.38a1.68,1.68,0,0,0,1.47,0c.36-.24.3-.61-.15-.85a1.66,1.66,0,0,0-1.46,0C1250.62,2782.76,1250.69,2783.15,1251.13,2783.38Z" transform="translate(-1140.22 -2375.58)"/><path class="r" d="M1251.27,2783.29a1.28,1.28,0,0,0,1.16,0c.29-.19.24-.49-.12-.67a1.26,1.26,0,0,0-1.15,0C1250.87,2782.8,1250.92,2783.11,1251.27,2783.29Z" transform="translate(-1140.22 -2375.58)"/><path class="j" d="M1249.93,2787.24a1.65,1.65,0,0,0,1.48.11c.41-.2.42-.58,0-.84a1.66,1.66,0,0,0-1.47-.11C1249.55,2786.61,1249.54,2787,1249.93,2787.24Z" transform="translate(-1140.22 -2375.58)"/><path class="r" d="M1250.1,2787.17a1.29,1.29,0,0,0,1.16.08c.33-.16.34-.46,0-.66a1.29,1.29,0,0,0-1.16-.09C1249.79,2786.66,1249.78,2787,1250.1,2787.17Z" transform="translate(-1140.22 -2375.58)"/><path class="j" d="M1249.23,2791.17a1.62,1.62,0,0,0,1.45.24c.48-.15.6-.51.28-.8a1.6,1.6,0,0,0-1.44-.25C1249,2790.51,1248.91,2790.88,1249.23,2791.17Z" transform="translate(-1140.22 -2375.58)"/><path class="r" d="M1249.41,2791.11a1.31,1.31,0,0,0,1.15.2c.38-.12.47-.41.22-.64a1.28,1.28,0,0,0-1.14-.2C1249.26,2790.59,1249.16,2790.88,1249.41,2791.11Z" transform="translate(-1140.22 -2375.58)"/><path class="j" d="M1251.76,2781.21a1.56,1.56,0,0,0,1.44-.09c.31-.25.17-.64-.31-.84a1.53,1.53,0,0,0-1.44.09C1251.14,2780.62,1251.28,2781,1251.76,2781.21Z" transform="translate(-1140.22 -2375.58)"/><path class="r" d="M1251.88,2781.11a1.22,1.22,0,0,0,1.14-.07c.25-.2.14-.5-.24-.66a1.21,1.21,0,0,0-1.14.06C1251.39,2780.65,1251.49,2780.94,1251.88,2781.11Z" transform="translate(-1140.22 -2375.58)"/><path class="j" d="M1250.74,2785.27a1.63,1.63,0,0,0,1.46,0c.37-.23.3-.61-.14-.84a1.57,1.57,0,0,0-1.46,0C1250.23,2784.65,1250.29,2785,1250.74,2785.27Z" transform="translate(-1140.22 -2375.58)"/><path class="r" d="M1250.88,2785.18a1.35,1.35,0,0,0,1.16,0c.29-.19.23-.49-.12-.67a1.25,1.25,0,0,0-1.16,0C1250.47,2784.69,1250.52,2785,1250.88,2785.18Z" transform="translate(-1140.22 -2375.58)"/><path class="j" d="M1249.64,2789.15a1.64,1.64,0,0,0,1.46.1c.42-.21.43-.58,0-.84a1.66,1.66,0,0,0-1.47-.11C1249.25,2788.51,1249.24,2788.88,1249.64,2789.15Z" transform="translate(-1140.22 -2375.58)"/><path class="r" d="M1249.79,2789.06a1.28,1.28,0,0,0,1.17.09c.33-.16.34-.46,0-.66a1.32,1.32,0,0,0-1.16-.09C1249.49,2788.56,1249.48,2788.86,1249.79,2789.06Z" transform="translate(-1140.22 -2375.58)"/><path class="j" d="M1248.36,2793a1.63,1.63,0,0,0,1.44.25c.48-.16.6-.52.29-.81a1.63,1.63,0,0,0-1.45-.25C1248.17,2792.32,1248,2792.68,1248.36,2793Z" transform="translate(-1140.22 -2375.58)"/><path class="r" d="M1248.54,2792.91a1.26,1.26,0,0,0,1.14.21c.38-.13.48-.42.23-.65a1.31,1.31,0,0,0-1.15-.19C1248.39,2792.4,1248.29,2792.68,1248.54,2792.91Z" transform="translate(-1140.22 -2375.58)"/><path class="j" d="M1245.32,2778.74a1.55,1.55,0,0,1-1.41-.34c-.26-.31-.06-.65.45-.78a1.58,1.58,0,0,1,1.4.34C1246,2778.28,1245.83,2778.63,1245.32,2778.74Z" transform="translate(-1140.22 -2375.58)"/><path class="r" d="M1245.21,2778.63a1.21,1.21,0,0,1-1.1-.28c-.21-.24,0-.51.35-.61a1.22,1.22,0,0,1,1.11.27C1245.78,2778.26,1245.62,2778.53,1245.21,2778.63Z" transform="translate(-1140.22 -2375.58)"/><path class="s" d="M1252.42,2780.74c-.21-.26-.17-.39-1.63-.19-2.91.39-4.27-1.46-5.22-2.54,0,0-1.72-.27-1.27.65,0,0,2.13,2.61,4.25,2.66l0,0a7.64,7.64,0,0,0,1.6.11C1252.57,2781.33,1252.61,2781,1252.42,2780.74Z" transform="translate(-1140.22 -2375.58)"/><path class="j" d="M1245.44,2782.87a1.64,1.64,0,0,1-1.45-.25c-.32-.29-.18-.65.29-.81a1.59,1.59,0,0,1,1.44.26C1246,2782.35,1245.92,2782.72,1245.44,2782.87Z" transform="translate(-1140.22 -2375.58)"/><path class="r" d="M1245.31,2782.76a1.28,1.28,0,0,1-1.14-.2c-.25-.23-.15-.52.24-.64a1.27,1.27,0,0,1,1.13.2C1245.79,2782.35,1245.69,2782.64,1245.31,2782.76Z" transform="translate(-1140.22 -2375.58)"/><path class="s" d="M1251.49,2784.86c-.16-.28-.09-.48-1.6-.31a3.69,3.69,0,0,1-.81,0c-2.08-.56-2-1.07-3.54-2.46,0,0-1.74-.16-1.11.73a12.64,12.64,0,0,0,2,1.54c.12.43.71.89,2.68,1C1251.53,2785.45,1251.64,2785.1,1251.49,2784.86Z" transform="translate(-1140.22 -2375.58)"/><path class="j" d="M1245.93,2786.89a1.69,1.69,0,0,1-1.47-.16c-.37-.27-.32-.65.12-.83a1.63,1.63,0,0,1,1.47.16C1246.42,2786.33,1246.36,2786.7,1245.93,2786.89Z" transform="translate(-1140.22 -2375.58)"/><path class="r" d="M1245.79,2786.79a1.34,1.34,0,0,1-1.17-.13c-.29-.21-.25-.51.1-.65a1.29,1.29,0,0,1,1.16.11C1246.18,2786.34,1246.13,2786.63,1245.79,2786.79Z" transform="translate(-1140.22 -2375.58)"/><path class="s" d="M1250.48,2788.79c-.06-.15,0-.29-.33-.36a.58.58,0,0,0-.3-.1c-2.3-.44-2.13-.88-4-2.21,0,0-1.75,0-1,.82,0,0,.38.28,1,.64C1249.15,2789.8,1250.57,2789,1250.48,2788.79Z" transform="translate(-1140.22 -2375.58)"/><path class="j" d="M1245.92,2790.88a1.63,1.63,0,0,1-1.46,0c-.44-.23-.5-.61-.13-.84a1.63,1.63,0,0,1,1.46,0C1246.23,2790.26,1246.29,2790.65,1245.92,2790.88Z" transform="translate(-1140.22 -2375.58)"/><path class="r" d="M1245.76,2790.79a1.31,1.31,0,0,1-1.16,0c-.35-.19-.4-.49-.11-.68a1.35,1.35,0,0,1,1.16,0C1246,2790.31,1246.05,2790.6,1245.76,2790.79Z" transform="translate(-1140.22 -2375.58)"/><path class="s" d="M1249.38,2792.27c-1.92-.51-1.6-.95-3.73-2.16,0,0-1.7.14-.67.91A10.43,10.43,0,0,0,1249,2793a2.6,2.6,0,0,0,.56-.07S1250.2,2792.49,1249.38,2792.27Z" transform="translate(-1140.22 -2375.58)"/><path class="j" d="M1245.2,2780.62a1.53,1.53,0,0,1-1.4-.34c-.26-.3-.06-.65.45-.77a1.54,1.54,0,0,1,1.4.34C1245.91,2780.16,1245.71,2780.5,1245.2,2780.62Z" transform="translate(-1140.22 -2375.58)"/><path class="r" d="M1245.1,2780.51a1.25,1.25,0,0,1-1.11-.27c-.21-.25,0-.52.36-.62a1.23,1.23,0,0,1,1.11.28C1245.67,2780.14,1245.5,2780.41,1245.1,2780.51Z" transform="translate(-1140.22 -2375.58)"/><path class="j" d="M1251.86,2778.57c-1.13.9-1.37,1.42-2.26,1.76a4,4,0,0,1-3.33-.19c-1.37-.52-1.38-.31-1.64-.09s-.23.47,2.07,1a6.6,6.6,0,0,0,6.28-1.65C1253.6,2778.61,1251.86,2778.57,1251.86,2778.57Z" transform="translate(-1140.22 -2375.58)"/><path class="j" d="M1245.49,2784.8a1.68,1.68,0,0,1-1.45-.25c-.31-.3-.18-.65.3-.81a1.6,1.6,0,0,1,1.44.25C1246.1,2784.28,1246,2784.65,1245.49,2784.8Z" transform="translate(-1140.22 -2375.58)"/><path class="r" d="M1245.37,2784.69a1.31,1.31,0,0,1-1.15-.2c-.25-.23-.15-.52.24-.64a1.29,1.29,0,0,1,1.14.2C1245.85,2784.28,1245.75,2784.56,1245.37,2784.69Z" transform="translate(-1140.22 -2375.58)"/><path class="t" d="M1252.13,2783.54c.77-.77-1-.92-1-.92-1.8,1.12-1.36,1.61-3.78,1.79a3.27,3.27,0,0,1-.93-.16c-1.45-.45-1.42-.23-1.63,0s-.14.57,2.23.91A6.16,6.16,0,0,0,1252.13,2783.54Z" transform="translate(-1140.22 -2375.58)"/><path class="t" d="M1250.6,2784.42v.1A.09.09,0,0,0,1250.6,2784.42Z" transform="translate(-1140.22 -2375.58)"/><path class="j" d="M1245.89,2788.81a1.65,1.65,0,0,1-1.47-.16c-.37-.27-.32-.65.12-.83a1.67,1.67,0,0,1,1.46.16C1246.38,2788.25,1246.33,2788.63,1245.89,2788.81Z" transform="translate(-1140.22 -2375.58)"/><path class="r" d="M1245.75,2788.71a1.35,1.35,0,0,1-1.16-.12c-.3-.22-.26-.52.09-.66a1.28,1.28,0,0,1,1.16.12C1246.13,2788.26,1246.1,2788.56,1245.75,2788.71Z" transform="translate(-1140.22 -2375.58)"/><path class="j" d="M1250.12,2786.5c-2,1-2,1.44-4.31,1.46a.91.91,0,0,0-.3.05c-.29,0-.3.16-.39.31s.84.71,4.75-.38c.62-.25,1-.47,1-.47C1251.84,2786.76,1250.12,2786.5,1250.12,2786.5Z" transform="translate(-1140.22 -2375.58)"/><path class="j" d="M1246.47,2792.81a1.65,1.65,0,0,1-1.47,0c-.44-.24-.5-.62-.14-.85a1.65,1.65,0,0,1,1.47,0C1246.77,2792.2,1246.83,2792.58,1246.47,2792.81Z" transform="translate(-1140.22 -2375.58)"/><path class="r" d="M1246.3,2792.72a1.28,1.28,0,0,1-1.16,0c-.35-.19-.4-.48-.11-.67a1.28,1.28,0,0,1,1.16,0C1246.54,2792.23,1246.59,2792.53,1246.3,2792.72Z" transform="translate(-1140.22 -2375.58)"/><path class="j" d="M1249.64,2790.47a19.45,19.45,0,0,1-4,1.72,1,1,0,0,0-.06.2c-.06.24.12.86,4.42-.85l.15-.06C1251.29,2790.9,1249.64,2790.47,1249.64,2790.47Z" transform="translate(-1140.22 -2375.58)"/><path class="s" d="M1249.2,2778s10.43.48,9.6-5-8.14,2.23-9.59,4.41l.61.14s4.36-5.19,6.62-5.13,1.54,1.79.76,2.37a16.13,16.13,0,0,1-6.36,2.92c-.22.05-1-.29-1.22-.25S1249.53,2777.94,1249.2,2778Z" transform="translate(-1140.22 -2375.58)"/><path class="s" d="M1249.91,2776.8s-2.54-6.54-6.67-6.5-4.57,3.08,1.08,5.64l5.64,2.56.12-.93a38,38,0,0,1-6-2.91c-1.84-1.29-3.66-2.83-1.84-3s3.16-.12,5.26,2.65c1,1.34,1.56,2.75,2,3.3s.81.28.81.28Z" transform="translate(-1140.22 -2375.58)"/><path class="u" d="M1249.06,2778.49a10.38,10.38,0,0,1-2.33,2.9,7.75,7.75,0,0,0-1.88,5.55c.15.16-.35.69-.35.69s-.63,0-.92-1.17-.73-3.4,2.38-5.68,3.57-3.41,3.57-3.41S1250.79,2777.28,1249.06,2778.49Z" transform="translate(-1140.22 -2375.58)"/><path class="u" d="M1249.49,2777.1a47.69,47.69,0,0,1,.81,5.91c0,2.12,1.47,5.15,1.18,6.3s.7,1.15.7,1.15.67-.49-.65-4.52-.73-5.5-1-6.78S1250.24,2777.32,1249.49,2777.1Z" transform="translate(-1140.22 -2375.58)"/><path class="k" d="M1338.56,2789.22s1.38,5.65.9,8.59-1.88,8.49-13.72,9.05l-.41-2.51S1338.65,2789.65,1338.56,2789.22Z" transform="translate(-1140.22 -2375.58)"/><path class="k" d="M1310.88,2791.76s-.34,5.81.66,8.6,3.4,8,15.14,6.42l0-2.55S1310.86,2792.2,1310.88,2791.76Z" transform="translate(-1140.22 -2375.58)"/><path class="l" d="M1331.91,2773.39a33.46,33.46,0,0,0-16.87,1.46s1.75,5.06,3.17,6,9.82,1.12,10.06,1S1331.91,2773.39,1331.91,2773.39Z" transform="translate(-1140.22 -2375.58)"/><path class="m" d="M1313.06,2777.92c-1-9.88,3.85-2.5,4.25-1.66.71,1.46,11.63.46,12.06-1.09.25-.91,3-9.89,4.77,1.18,0,0,5.12,14.64,4.75,19.36-1.15,7.1-2.25,8-12.9,9s-12.79-.09-14.31-6.49C1310.47,2793.62,1313.06,2777.92,1313.06,2777.92Z" transform="translate(-1140.22 -2375.58)"/><path class="n" d="M1321.75,2804.89c.1,1,1.6.92,3.45.75s3.35-.33,3.25-1.36-1.67-1.73-3.52-1.56S1321.66,2803.86,1321.75,2804.89Z" transform="translate(-1140.22 -2375.58)"/><path class="o" d="M1311.68,2798.2a24.1,24.1,0,0,1-.23-6.39c.6-.39,1.2-.72,1.76-1,3.26-1.68,9-6.23,7.3.6,0,0-7.92,5.17-4.51,13C1313.53,2803.59,1312.51,2801.69,1311.68,2798.2Z" transform="translate(-1140.22 -2375.58)"/><path class="o" d="M1337.85,2788.69a12.23,12.23,0,0,0-8.47-5.63l-.06-2.25c3,.11,5.53,2,7.33,3.82a9.69,9.69,0,0,0-7.38-5.2l-.12-2.62a15,15,0,0,1,6.27,3.41c.76,2.39,1.71,5.53,2.43,8.47Z" transform="translate(-1140.22 -2375.58)"/><path class="o" d="M1318.2,2780.44a9.72,9.72,0,0,0-6.32,6.46c1.43-2.14,3.6-4.44,6.51-5.09l.35,2.23a12.21,12.21,0,0,0-7.24,6.9c.2-3,.6-6.28.94-8.79a14.74,14.74,0,0,1,5.39-4.3Z" transform="translate(-1140.22 -2375.58)"/><path class="o" d="M1329,2790.62c-4.17-7.14,3.57-3,7.07-1.91.62.19,1.3.41,2,.69a24.73,24.73,0,0,1,.87,6.31c-.59,3.69-1.18,5.7-3.1,6.92C1338.82,2793.78,1329,2790.62,1329,2790.62Z" transform="translate(-1140.22 -2375.58)"/><path class="p" d="M1328.34,2774.32s.23,18-1.69,20.25-3.88.1-5.83-6.37-3.72-13.13-3.72-13.13-1-2.29,2.67-3.5C1323.72,2770.25,1329.4,2771.15,1328.34,2774.32Z" transform="translate(-1140.22 -2375.58)"/><path class="q" d="M1325.79,2776.31s.36-1.14,3.22-1.09c0,0,.89,11.11,0,15.4s-1.42,6.36-4.87,6.3-4.79-5.68-6.13-10.2a68.3,68.3,0,0,1-1.93-10.1s2.23-.91,3.7.25c0,0,2.29,18.68,4.8,18.88S1326.72,2780.51,1325.79,2776.31Z" transform="translate(-1140.22 -2375.58)"/><path class="j" d="M1320.1,2779.36a1.56,1.56,0,0,1-1.44-.08c-.31-.25-.17-.63.3-.84a1.58,1.58,0,0,1,1.45.08C1320.72,2778.78,1320.58,2779.16,1320.1,2779.36Z" transform="translate(-1140.22 -2375.58)"/><path class="r" d="M1320,2779.27a1.25,1.25,0,0,1-1.14-.07c-.25-.2-.14-.5.24-.67a1.25,1.25,0,0,1,1.14.07C1320.47,2778.8,1320.36,2779.1,1320,2779.27Z" transform="translate(-1140.22 -2375.58)"/><path class="j" d="M1321,2783.41a1.59,1.59,0,0,1-1.47,0c-.36-.22-.3-.61.14-.84a1.62,1.62,0,0,1,1.47,0C1321.46,2782.79,1321.4,2783.17,1321,2783.41Z" transform="translate(-1140.22 -2375.58)"/><path class="r" d="M1320.82,2783.32a1.25,1.25,0,0,1-1.16,0c-.29-.18-.24-.48.11-.67a1.28,1.28,0,0,1,1.16,0C1321.22,2782.83,1321.17,2783.13,1320.82,2783.32Z" transform="translate(-1140.22 -2375.58)"/><path class="j" d="M1322.16,2787.27a1.66,1.66,0,0,1-1.47.11c-.41-.2-.43-.58,0-.84a1.66,1.66,0,0,1,1.47-.11C1322.54,2786.63,1322.56,2787,1322.16,2787.27Z" transform="translate(-1140.22 -2375.58)"/><path class="r" d="M1322,2787.19a1.29,1.29,0,0,1-1.16.09c-.33-.16-.34-.46,0-.66a1.29,1.29,0,0,1,1.16-.09C1322.31,2786.68,1322.32,2787,1322,2787.19Z" transform="translate(-1140.22 -2375.58)"/><path class="j" d="M1322.88,2791.19a1.65,1.65,0,0,1-1.45.26c-.47-.16-.6-.52-.29-.82a1.69,1.69,0,0,1,1.45-.25C1323.07,2790.54,1323.2,2790.9,1322.88,2791.19Z" transform="translate(-1140.22 -2375.58)"/><path class="r" d="M1322.69,2791.13a1.28,1.28,0,0,1-1.14.2c-.38-.12-.48-.4-.22-.63a1.26,1.26,0,0,1,1.14-.21C1322.85,2790.62,1323,2790.9,1322.69,2791.13Z" transform="translate(-1140.22 -2375.58)"/><path class="j" d="M1320.33,2781.24a1.56,1.56,0,0,1-1.44-.08c-.32-.26-.18-.64.3-.85a1.53,1.53,0,0,1,1.44.09C1320.94,2780.65,1320.81,2781,1320.33,2781.24Z" transform="translate(-1140.22 -2375.58)"/><path class="r" d="M1320.21,2781.14a1.19,1.19,0,0,1-1.14-.07c-.25-.2-.14-.5.24-.67a1.25,1.25,0,0,1,1.14.08C1320.7,2780.68,1320.59,2781,1320.21,2781.14Z" transform="translate(-1140.22 -2375.58)"/><path class="j" d="M1321.36,2785.3a1.62,1.62,0,0,1-1.47,0c-.36-.23-.3-.61.15-.84a1.63,1.63,0,0,1,1.46,0C1321.86,2784.68,1321.8,2785.06,1321.36,2785.3Z" transform="translate(-1140.22 -2375.58)"/><path class="r" d="M1321.22,2785.21a1.31,1.31,0,0,1-1.16,0c-.29-.19-.24-.49.11-.67a1.28,1.28,0,0,1,1.16,0C1321.62,2784.72,1321.57,2785,1321.22,2785.21Z" transform="translate(-1140.22 -2375.58)"/><path class="j" d="M1322.47,2789.17a1.66,1.66,0,0,1-1.47.11c-.42-.2-.43-.58,0-.85a1.68,1.68,0,0,1,1.48-.1C1322.85,2788.53,1322.86,2788.91,1322.47,2789.17Z" transform="translate(-1140.22 -2375.58)"/><path class="r" d="M1322.31,2789.09a1.29,1.29,0,0,1-1.16.09c-.33-.16-.34-.46,0-.66a1.28,1.28,0,0,1,1.17-.09C1322.61,2788.59,1322.63,2788.89,1322.31,2789.09Z" transform="translate(-1140.22 -2375.58)"/><path class="j" d="M1323.76,2793a1.63,1.63,0,0,1-1.44.25c-.49-.16-.61-.51-.29-.81a1.63,1.63,0,0,1,1.44-.25C1323.94,2792.34,1324.08,2792.7,1323.76,2793Z" transform="translate(-1140.22 -2375.58)"/><path class="r" d="M1323.57,2792.94a1.28,1.28,0,0,1-1.14.2c-.38-.12-.48-.41-.22-.64a1.28,1.28,0,0,1,1.14-.2C1323.73,2792.42,1323.83,2792.7,1323.57,2792.94Z" transform="translate(-1140.22 -2375.58)"/><path class="j" d="M1326.76,2778.76a1.56,1.56,0,0,0,1.4-.35c.27-.31.06-.65-.45-.77a1.51,1.51,0,0,0-1.39.34C1326.05,2778.29,1326.25,2778.63,1326.76,2778.76Z" transform="translate(-1140.22 -2375.58)"/><path class="r" d="M1326.86,2778.63a1.21,1.21,0,0,0,1.11-.26c.21-.25,0-.52-.35-.62a1.24,1.24,0,0,0-1.11.27C1326.3,2778.27,1326.46,2778.54,1326.86,2778.63Z" transform="translate(-1140.22 -2375.58)"/><path class="s" d="M1319.66,2780.78c.22-.27.17-.4,1.64-.21,2.9.39,4.26-1.46,5.21-2.55,0,0,1.72-.27,1.26.65,0,0-2.11,2.62-4.24,2.66h0a7.87,7.87,0,0,1-1.6.1C1319.51,2781.37,1319.48,2781,1319.66,2780.78Z" transform="translate(-1140.22 -2375.58)"/><path class="j" d="M1326.66,2782.89a1.6,1.6,0,0,0,1.44-.26c.31-.3.18-.66-.3-.81a1.63,1.63,0,0,0-1.44.26C1326,2782.37,1326.17,2782.74,1326.66,2782.89Z" transform="translate(-1140.22 -2375.58)"/><path class="r" d="M1326.78,2782.78a1.32,1.32,0,0,0,1.14-.21c.25-.23.14-.52-.24-.63a1.26,1.26,0,0,0-1.14.19C1326.29,2782.37,1326.4,2782.65,1326.78,2782.78Z" transform="translate(-1140.22 -2375.58)"/><path class="s" d="M1320.6,2784.89c.17-.28.1-.49,1.6-.32a3.78,3.78,0,0,0,.82,0c2.08-.56,2-1.07,3.52-2.47,0,0,1.74-.16,1.12.73a13,13,0,0,1-2,1.55c-.11.42-.71.89-2.67,1C1320.57,2785.47,1320.46,2785.12,1320.6,2784.89Z" transform="translate(-1140.22 -2375.58)"/><path class="j" d="M1326.17,2786.9a1.65,1.65,0,0,0,1.47-.15c.37-.28.32-.65-.12-.84a1.65,1.65,0,0,0-1.47.16C1325.68,2786.35,1325.73,2786.71,1326.17,2786.9Z" transform="translate(-1140.22 -2375.58)"/><path class="r" d="M1326.32,2786.8a1.29,1.29,0,0,0,1.16-.13c.29-.22.24-.51-.1-.66a1.35,1.35,0,0,0-1.16.13C1325.92,2786.36,1326,2786.65,1326.32,2786.8Z" transform="translate(-1140.22 -2375.58)"/><path class="s" d="M1321.62,2788.82c.07-.16.06-.3.33-.36a.73.73,0,0,1,.3-.11c2.3-.44,2.12-.88,4-2.21,0,0,1.74,0,.94.81a10.32,10.32,0,0,1-.94.65C1323,2789.82,1321.53,2789.06,1321.62,2788.82Z" transform="translate(-1140.22 -2375.58)"/><path class="j" d="M1326.18,2790.89a1.68,1.68,0,0,0,1.47,0c.44-.25.5-.63.14-.85a1.62,1.62,0,0,0-1.47,0C1325.88,2790.28,1325.81,2790.66,1326.18,2790.89Z" transform="translate(-1140.22 -2375.58)"/><path class="r" d="M1326.35,2790.8a1.28,1.28,0,0,0,1.16,0c.35-.19.4-.48.11-.67a1.28,1.28,0,0,0-1.16,0C1326.11,2790.32,1326.06,2790.62,1326.35,2790.8Z" transform="translate(-1140.22 -2375.58)"/><path class="s" d="M1322.51,2792.93a2.6,2.6,0,0,0,.56.06,10.21,10.21,0,0,0,4.06-1.95c1-.79-.67-.91-.67-.91-2.13,1.21-1.81,1.64-3.73,2.16C1321.91,2792.51,1322.51,2792.93,1322.51,2792.93Z" transform="translate(-1140.22 -2375.58)"/><path class="j" d="M1326.88,2780.64a1.55,1.55,0,0,0,1.4-.34c.26-.31.06-.66-.45-.78a1.56,1.56,0,0,0-1.4.34C1326.17,2780.17,1326.37,2780.52,1326.88,2780.64Z" transform="translate(-1140.22 -2375.58)"/><path class="r" d="M1327,2780.52a1.25,1.25,0,0,0,1.11-.27c.21-.25.05-.52-.35-.61a1.19,1.19,0,0,0-1.11.27C1326.42,2780.16,1326.58,2780.43,1327,2780.52Z" transform="translate(-1140.22 -2375.58)"/><path class="j" d="M1320.22,2778.6c1.13.89,1.37,1.41,2.26,1.75a4,4,0,0,0,3.33-.19c1.38-.53,1.38-.32,1.64-.09s.23.47-2.07,1a6.59,6.59,0,0,1-6.28-1.63C1318.48,2778.65,1320.22,2778.6,1320.22,2778.6Z" transform="translate(-1140.22 -2375.58)"/><path class="j" d="M1326.61,2784.81a1.63,1.63,0,0,0,1.44-.25c.31-.3.18-.66-.3-.81a1.57,1.57,0,0,0-1.43.26C1326,2784.3,1326.12,2784.66,1326.61,2784.81Z" transform="translate(-1140.22 -2375.58)"/><path class="r" d="M1326.72,2784.7a1.3,1.3,0,0,0,1.15-.2c.25-.23.15-.52-.24-.64a1.29,1.29,0,0,0-1.14.2C1326.25,2784.3,1326.34,2784.58,1326.72,2784.7Z" transform="translate(-1140.22 -2375.58)"/><path class="t" d="M1320,2783.56c-.78-.76,1-.91,1-.91,1.8,1.11,1.36,1.61,3.78,1.78a2.77,2.77,0,0,0,.94-.17c1.44-.44,1.41-.23,1.62,0s.15.57-2.23.91A6.09,6.09,0,0,1,1320,2783.56Z" transform="translate(-1140.22 -2375.58)"/><path class="t" d="M1321.5,2784.44a.34.34,0,0,0,0,.11A.09.09,0,0,1,1321.5,2784.44Z" transform="translate(-1140.22 -2375.58)"/><path class="j" d="M1326.22,2788.82a1.61,1.61,0,0,0,1.46-.16c.38-.27.32-.64-.12-.83a1.66,1.66,0,0,0-1.47.17C1325.73,2788.27,1325.78,2788.64,1326.22,2788.82Z" transform="translate(-1140.22 -2375.58)"/><path class="r" d="M1326.36,2788.72a1.31,1.31,0,0,0,1.16-.12c.29-.22.25-.51-.1-.66a1.29,1.29,0,0,0-1.16.13C1326,2788.28,1326,2788.57,1326.36,2788.72Z" transform="translate(-1140.22 -2375.58)"/><path class="j" d="M1322,2786.53c2,1,2,1.44,4.31,1.45a.71.71,0,0,1,.3.05c.29,0,.31.15.39.3s-.84.71-4.74-.37c-.63-.25-1-.47-1-.47C1320.26,2786.8,1322,2786.53,1322,2786.53Z" transform="translate(-1140.22 -2375.58)"/><path class="j" d="M1325.65,2792.83a1.66,1.66,0,0,0,1.46,0c.44-.24.5-.61.13-.84a1.6,1.6,0,0,0-1.46,0C1325.34,2792.21,1325.28,2792.6,1325.65,2792.83Z" transform="translate(-1140.22 -2375.58)"/><path class="r" d="M1325.81,2792.73a1.31,1.31,0,0,0,1.16,0c.35-.2.4-.49.11-.68a1.28,1.28,0,0,0-1.16,0C1325.57,2792.25,1325.52,2792.55,1325.81,2792.73Z" transform="translate(-1140.22 -2375.58)"/><path class="j" d="M1322,2791.5l.14.06c4.31,1.71,4.48,1.08,4.42.84a1.17,1.17,0,0,0-.06-.2,20,20,0,0,1-4-1.71S1320.82,2790.93,1322,2791.5Z" transform="translate(-1140.22 -2375.58)"/><path class="s" d="M1322.88,2778s-10.44.51-9.62-5,8.14,2.22,9.6,4.4l-.6.14s-4.38-5.19-6.64-5.12-1.53,1.79-.75,2.36a15.9,15.9,0,0,0,6.37,2.92c.22,0,1-.3,1.21-.26S1322.55,2778,1322.88,2778Z" transform="translate(-1140.22 -2375.58)"/><path class="s" d="M1322.16,2776.83s2.53-6.55,6.65-6.52,4.59,3.07-1,5.64l-5.64,2.57-.12-.93a38.42,38.42,0,0,0,6-2.92c1.83-1.3,3.66-2.84,1.84-3.05s-3.17-.1-5.26,2.67c-1,1.33-1.55,2.75-2,3.31s-.81.27-.81.27Z" transform="translate(-1140.22 -2375.58)"/><path class="u" d="M1323,2778.51a10.65,10.65,0,0,0,2.33,2.9,7.72,7.72,0,0,1,1.9,5.54c-.15.16.35.69.35.69s.63,0,.92-1.17.72-3.4-2.39-5.68-3.58-3.4-3.58-3.4S1321.29,2777.3,1323,2778.51Z" transform="translate(-1140.22 -2375.58)"/><path class="u" d="M1322.59,2777.12a48.73,48.73,0,0,0-.8,5.91c0,2.13-1.45,5.17-1.17,6.31s-.69,1.15-.69,1.15-.67-.49.64-4.52.71-5.5,1-6.79S1321.83,2777.34,1322.59,2777.12Z" transform="translate(-1140.22 -2375.58)"/><path class="v" d="M1217,2628.65c2-2,1.91-6.31,1.91-6.31a4.28,4.28,0,0,1,.75,2.77h3.59c.12-.84.2-1.33.2-1.33s-.05.49-.13,1.33h4.18c0-.76,0-1.2,0-1.2s0,.44,0,1.2h4.24c0-.71,0-1.25,0-1.53a8.07,8.07,0,0,0,.28,1.53h3.31c-.15-.82,1.84-1.79,1.67-3-.9-6.12-1-7.44-1.75-11.16-.92-4.37.51-5.45.51-5.45l-14-2.06a7.28,7.28,0,0,1-.54,5.43c-1.49,2.49-4.25,2.49-6.49,12.56-.31,1.43-1.24,5.73-.27,6.75A2.55,2.55,0,0,0,1217,2628.65Z" transform="translate(-1140.22 -2375.58)"/><path class="v" d="M1358,2628.65c-2-2-2-6.31-2-6.31a4.11,4.11,0,0,0-.77,2.77h-3.7c-.13-.84-.2-1.33-.2-1.33s0,.49.13,1.33h-4.3c0-.76,0-1.2,0-1.2s0,.44,0,1.2h-4.36c0-.71,0-1.25,0-1.53a9.43,9.43,0,0,1-.29,1.53h-3.41c.16-.82-1.9-1.79-1.71-3,.92-6.12,1-7.44,1.79-11.16,1-4.37-.52-5.45-.52-5.45l14.4-2.06a7.1,7.1,0,0,0,.55,5.43c1.53,2.49,4.37,2.49,6.67,12.56.32,1.43,1.28,5.73.28,6.75A2.68,2.68,0,0,1,1358,2628.65Z" transform="translate(-1140.22 -2375.58)"/><g class="w"><path class="x" d="M1168.3,2672.93h0Z" transform="translate(-1140.22 -2375.58)"/><rect class="x" x="28.08" y="293.41" width="11.02" height="3.94"/><rect class="y" x="28.08" y="289.47" width="11.02" height="3.94"/><rect class="z" x="28.08" y="285.53" width="11.02" height="3.93"/><rect class="aa" x="28.08" y="281.59" width="11.02" height="3.94"/><rect class="ab" x="28.08" y="277.65" width="11.02" height="3.94"/><rect class="ac" x="28.08" y="273.72" width="11.02" height="3.93"/><rect class="ad" x="28.08" y="269.78" width="11.02" height="3.94"/><rect class="ae" x="28.08" y="265.84" width="11.02" height="3.94"/><rect class="af" x="28.08" y="261.9" width="11.02" height="3.94"/><rect class="ag" x="28.08" y="257.96" width="11.02" height="3.94"/><rect class="ah" x="28.08" y="254.02" width="11.02" height="3.94"/><rect class="ai" x="28.08" y="250.08" width="11.02" height="3.94"/><rect class="aj" x="28.08" y="246.14" width="11.02" height="3.94"/><rect class="ak" x="28.08" y="242.2" width="11.02" height="3.94"/><rect class="al" x="28.08" y="238.26" width="11.02" height="3.94"/><rect class="am" x="28.08" y="234.32" width="11.02" height="3.94"/><rect class="an" x="28.08" y="230.39" width="11.02" height="3.93"/><rect class="ao" x="28.08" y="226.44" width="11.02" height="3.94"/><rect class="ap" x="28.08" y="222.51" width="11.02" height="3.94"/><rect class="aq" x="28.08" y="218.57" width="11.02" height="3.94"/><rect class="ar" x="28.08" y="214.63" width="11.02" height="3.94"/><rect class="as" x="28.08" y="210.69" width="11.02" height="3.94"/><rect class="at" x="28.08" y="206.75" width="11.02" height="3.94"/><rect class="au" x="28.08" y="202.81" width="11.02" height="3.95"/><rect class="av" x="28.08" y="198.88" width="11.02" height="3.93"/><rect class="aw" x="28.08" y="194.93" width="11.02" height="3.94"/><path class="aw" d="M1179.32,2570.51h0Z" transform="translate(-1140.22 -2375.58)"/></g><path class="ax" d="M1188.35,2621.73c0,28.28-4,51.22-8.86,51.22s-8.86-22.94-8.86-51.22,4-51.22,8.86-51.22S1188.35,2593.45,1188.35,2621.73Z" transform="translate(-1140.22 -2375.58)"/><path class="ax" d="M1184.41,2622c0,18.63-2.2,33.73-4.92,33.73s-4.92-15.1-4.92-33.73,2.2-33.72,4.92-33.72S1184.41,2603.35,1184.41,2622Z" transform="translate(-1140.22 -2375.58)"/><path class="ay" d="M1184.22,2622c0,17.54-1.81,31.75-4,31.75s-4-14.21-4-31.75,1.8-31.74,4-31.74S1184.22,2604.45,1184.22,2622Z" transform="translate(-1140.22 -2375.58)"/><path class="ax" d="M1184,2622.37c0,16.94-1.51,30.67-3.39,30.67s-3.39-13.73-3.39-30.67,1.52-30.67,3.39-30.67S1184,2605.43,1184,2622.37Z" transform="translate(-1140.22 -2375.58)"/><path class="ax" d="M1143.18,2604.58c-1.63,0-3,7.68-3,17.15s1.33,17.14,3,17.14h4.41v-34.29Z" transform="translate(-1140.22 -2375.58)"/><path class="az" d="M1151.59,2588.24c-3.2,0-5.79,15-5.79,33.49s2.59,33.48,5.79,33.48h8.62v-67Z" transform="translate(-1140.22 -2375.58)"/><path class="ay" d="M1170.63,2621.73c0-28,3.88-50.67,8.69-51.21h-13.17c-4.88,0-8.86,22.94-8.86,51.22s4,51.22,8.86,51.22h13.17v0C1174.51,2672.4,1170.63,2649.68,1170.63,2621.73Z" transform="translate(-1140.22 -2375.58)"/><path class="az" d="M1174.57,2622c0-18.63,2.2-33.72,4.92-33.72H1178c-2.71,0-4.91,15.09-4.91,33.72s2.2,33.73,4.91,33.73h1.48C1176.77,2655.71,1174.57,2640.61,1174.57,2622Z" transform="translate(-1140.22 -2375.58)"/><path class="ba" d="M1182.84,2621.72c0-1.87-.51-3.38-1.13-3.38s-1.13,1.51-1.13,3.38.51,3.37,1.13,3.37S1182.84,2623.58,1182.84,2621.72Z" transform="translate(-1140.22 -2375.58)"/><path class="bb" d="M1180.58,2621.72c0-1.87.51-3.38,1.13-3.38h-1.22c-.65,0-1.17,1.51-1.17,3.38s.52,3.37,1.17,3.37h1.22C1181.09,2625.09,1180.58,2623.58,1180.58,2621.72Z" transform="translate(-1140.22 -2375.58)"/><path class="ba" d="M1180.73,2621.72c0-1.78.47-3.26,1.06-3.36l-.08,0c-.62,0-1.13,1.51-1.13,3.38s.51,3.37,1.13,3.37h.08C1181.2,2625,1180.73,2623.51,1180.73,2621.72Z" transform="translate(-1140.22 -2375.58)"/><g class="bc"><path class="x" d="M1412,2672.93h0Z" transform="translate(-1140.22 -2375.58)"/><rect class="x" x="271.73" y="293.41" width="11.01" height="3.94"/><rect class="y" x="271.73" y="289.47" width="11.01" height="3.94"/><rect class="z" x="271.73" y="285.53" width="11.01" height="3.93"/><rect class="aa" x="271.73" y="281.59" width="11.01" height="3.94"/><rect class="ab" x="271.73" y="277.65" width="11.01" height="3.94"/><rect class="ac" x="271.73" y="273.72" width="11.01" height="3.93"/><rect class="ad" x="271.73" y="269.78" width="11.01" height="3.94"/><rect class="ae" x="271.73" y="265.84" width="11.01" height="3.94"/><rect class="af" x="271.73" y="261.9" width="11.01" height="3.94"/><rect class="ag" x="271.73" y="257.96" width="11.01" height="3.94"/><rect class="ah" x="271.73" y="254.02" width="11.01" height="3.94"/><rect class="ai" x="271.73" y="250.08" width="11.01" height="3.94"/><rect class="aj" x="271.73" y="246.14" width="11.01" height="3.94"/><rect class="ak" x="271.73" y="242.2" width="11.01" height="3.94"/><rect class="al" x="271.73" y="238.26" width="11.01" height="3.94"/><rect class="am" x="271.73" y="234.32" width="11.01" height="3.94"/><rect class="an" x="271.73" y="230.39" width="11.01" height="3.93"/><rect class="ao" x="271.73" y="226.44" width="11.01" height="3.94"/><rect class="ap" x="271.73" y="222.51" width="11.01" height="3.94"/><rect class="aq" x="271.73" y="218.57" width="11.01" height="3.94"/><rect class="ar" x="271.73" y="214.63" width="11.01" height="3.94"/><rect class="as" x="271.73" y="210.69" width="11.01" height="3.94"/><rect class="at" x="271.73" y="206.75" width="11.01" height="3.94"/><rect class="au" x="271.73" y="202.81" width="11.01" height="3.95"/><rect class="av" x="271.73" y="198.88" width="11.01" height="3.93"/><rect class="aw" x="271.73" y="194.93" width="11.01" height="3.94"/><path class="aw" d="M1423,2570.51h0Z" transform="translate(-1140.22 -2375.58)"/></g><path class="ax" d="M1402.92,2621.73c0,28.28,4,51.22,8.86,51.22s8.86-22.94,8.86-51.22-4-51.22-8.86-51.22S1402.92,2593.45,1402.92,2621.73Z" transform="translate(-1140.22 -2375.58)"/><path class="ax" d="M1406.86,2622c0,18.63,2.2,33.73,4.92,33.73s4.92-15.1,4.92-33.73-2.2-33.72-4.92-33.72S1406.86,2603.35,1406.86,2622Z" transform="translate(-1140.22 -2375.58)"/><path class="ay" d="M1407.05,2622c0,17.54,1.81,31.75,4,31.75s4-14.21,4-31.75-1.81-31.74-4-31.74S1407.05,2604.45,1407.05,2622Z" transform="translate(-1140.22 -2375.58)"/><path class="ax" d="M1407.33,2622.37c0,16.94,1.51,30.67,3.38,30.67s3.39-13.73,3.39-30.67-1.52-30.67-3.39-30.67S1407.33,2605.43,1407.33,2622.37Z" transform="translate(-1140.22 -2375.58)"/><path class="ax" d="M1448.09,2604.58c1.63,0,3,7.68,3,17.15s-1.33,17.14-3,17.14h-4.41v-34.29Z" transform="translate(-1140.22 -2375.58)"/><path class="az" d="M1439.67,2588.24c3.2,0,5.79,15,5.79,33.49s-2.59,33.48-5.79,33.48h-8.61v-67Z" transform="translate(-1140.22 -2375.58)"/><path class="ay" d="M1420.64,2621.73c0-28-3.88-50.67-8.69-51.21h13.16c4.89,0,8.87,22.94,8.87,51.22s-4,51.22-8.87,51.22H1412v0C1416.76,2672.4,1420.64,2649.68,1420.64,2621.73Z" transform="translate(-1140.22 -2375.58)"/><path class="az" d="M1416.7,2622c0-18.63-2.2-33.72-4.92-33.72h1.47c2.72,0,4.92,15.09,4.92,33.72s-2.2,33.73-4.92,33.73h-1.47C1414.5,2655.71,1416.7,2640.61,1416.7,2622Z" transform="translate(-1140.22 -2375.58)"/><path class="ba" d="M1408.43,2621.72c0-1.87.51-3.38,1.13-3.38s1.13,1.51,1.13,3.38-.51,3.37-1.13,3.37S1408.43,2623.58,1408.43,2621.72Z" transform="translate(-1140.22 -2375.58)"/><path class="bb" d="M1410.75,2618.59H1180.52c-.59,0-1.07,1.4-1.07,3.13s.48,3.13,1.07,3.13h230.23c.59,0,1.07-1.4,1.07-3.13S1411.34,2618.59,1410.75,2618.59Z" transform="translate(-1140.22 -2375.58)"/><path class="bb" d="M1410.69,2621.72c0-1.87-.51-3.38-1.13-3.38h1.22c.65,0,1.17,1.51,1.17,3.38s-.52,3.37-1.17,3.37h-1.22C1410.18,2625.09,1410.69,2623.58,1410.69,2621.72Z" transform="translate(-1140.22 -2375.58)"/><path class="ba" d="M1410.54,2621.72c0-1.78-.47-3.26-1.06-3.36l.08,0c.62,0,1.13,1.51,1.13,3.38s-.51,3.37-1.13,3.37h-.08C1410.07,2625,1410.54,2623.51,1410.54,2621.72Z" transform="translate(-1140.22 -2375.58)"/><path class="bd" d="M1220.18,2629.88c9.12.65,15.7.85,16.59-3.74a24.64,24.64,0,0,0-.32-9.9c-.13-.54-1.25-.84-1.93-.8a3.29,3.29,0,0,0-1.79.37,3.21,3.21,0,0,0-.77,2.65l-.1-.07a9.14,9.14,0,0,0-.42-4.51c-.19-.58-1.48-.68-2.14-.68s-1.78,0-2.22.71c-1.13,1.81-.84,5.67-.94,9.13a62.63,62.63,0,0,0-.23-8.4c-.13-.89-1.46-1.33-2.34-1.25-.7.07-2,.23-2.19,1.14-.42,1.69-.21,4.48-.11,7.41a10.73,10.73,0,0,0-.54-5.51c-.22-.53-1.31-.59-2.08-.59a2.24,2.24,0,0,0-1.92,1.35,12,12,0,0,0-.06,4.4S1215.77,2629.56,1220.18,2629.88Z" transform="translate(-1140.22 -2375.58)"/><g class="be"><path d="M1221,2616.77c.35,2.16.61,4.33.81,6.5s.37,4.32.3,6.58l-.85,0c-.07-2.1-.16-4.32-.24-6.48S1220.91,2619,1221,2616.77Z" transform="translate(-1140.22 -2375.58)"/></g><g class="be"><path d="M1226.42,2630.08a47,47,0,0,1-.55-6.58,45.56,45.56,0,0,1,.35-6.59,46.37,46.37,0,0,1,.2,13.17Z" transform="translate(-1140.22 -2375.58)"/></g><g class="be"><path d="M1231.62,2629.83a33.09,33.09,0,0,1-.33-5.34,28.94,28.94,0,0,1,.57-5.31,29,29,0,0,1,.36,5.33A26.61,26.61,0,0,1,1231.62,2629.83Z" transform="translate(-1140.22 -2375.58)"/></g><path class="bd" d="M1354.7,2629.88c-9.12.65-15.7.85-16.59-3.74a24.83,24.83,0,0,1,.32-9.9c.14-.54,1.25-.84,1.94-.8a3.25,3.25,0,0,1,1.78.37,3.21,3.21,0,0,1,.77,2.65l.11-.07a9.06,9.06,0,0,1,.41-4.51c.2-.58,1.49-.68,2.14-.68.81,0,1.79,0,2.22.71,1.13,1.81.84,5.67,1,9.13a63.82,63.82,0,0,1,.22-8.4c.14-.89,1.46-1.33,2.34-1.25.71.07,2,.23,2.2,1.14.41,1.69.2,4.48.1,7.41a10.79,10.79,0,0,1,.55-5.51c.22-.53,1.31-.59,2.07-.59a2.27,2.27,0,0,1,1.93,1.35,12.26,12.26,0,0,1,.06,4.4S1359.11,2629.56,1354.7,2629.88Z" transform="translate(-1140.22 -2375.58)"/><g class="be"><path d="M1353.91,2616.77c.06,2.19,0,4.37,0,6.55l-.25,6.48-.85,0c-.07-2.26.17-4.39.31-6.58S1353.56,2618.93,1353.91,2616.77Z" transform="translate(-1140.22 -2375.58)"/></g><g class="be"><path d="M1348.47,2630.08a42.92,42.92,0,0,1-.38-6.59,44.17,44.17,0,0,1,.57-6.58,44.2,44.2,0,0,1,.36,6.59A47,47,0,0,1,1348.47,2630.08Z" transform="translate(-1140.22 -2375.58)"/></g><g class="be"><path d="M1343.27,2629.83a26.62,26.62,0,0,1-.61-5.32,28.17,28.17,0,0,1,.37-5.33,29.82,29.82,0,0,1,.56,5.31A33.08,33.08,0,0,1,1343.27,2629.83Z" transform="translate(-1140.22 -2375.58)"/></g></svg>