<svg xmlns="http://www.w3.org/2000/svg" viewBox="0 0 282.93 341.71"><defs><style>.a{fill:#cd9d78;}.b,.g{fill:#fff;}.c{fill:#717375;}.d{fill:#070007;}.d,.f,.g,.h,.i,.j{fill-rule:evenodd;}.e{fill:#352f37;}.h{fill:#231f20;}.i{fill:#bcbec0;}.j{fill:#d1d3d4;}.k{fill:#d3d5d6;}.l{fill:#abadb0;}.m{fill:#e4ae84;}.n{fill:#482a21;}.o{fill:#2b1105;}.p{fill:#010001;}.q{fill:#391f15;}.r{fill:#e7a644;}.s{fill:#8f4b9b;}.t{fill:#252027;}.u{fill:#939598;}</style></defs><path class="a" d="M1201.44,2652a16.6,16.6,0,0,1,1.92,3.78c4.81,10.83,8.87,29.52,5.79,44a219.64,219.64,0,0,0-4.18,38.38l-10.24,5s-2.15-15.19-4.12-40.39c-2.27-29.15-6.77-49.85-5.92-60.91C1186.1,2637.91,1199.77,2649.31,1201.44,2652Z" transform="translate(-1153.99 -2421.09)"/><path class="a" d="M1194.05,2653.85c-4.61,1.14-7.64-17.33-.49-20.53,7.18-8.19,6.33-5.19,12-7.57,28.41-11.84,75.5-20.69,109-25,0,0-8.87,53.68-30,54.28-27.13.76-47.65-7.16-63.73-4.66C1207.28,2652.46,1201.91,2649.94,1194.05,2653.85Z" transform="translate(-1153.99 -2421.09)"/><path class="a" d="M1205.22,2731.16a19,19,0,0,0,4.41,13.7c4.45,5.41-9.16,11.75-7.73,15,0,0-25.76,3.45-28.2-3.55-1.47-4.19,7.53-13.25,14.23-12.43,7.62.93,5.52-12,5.52-12Z" transform="translate(-1153.99 -2421.09)"/><path class="b" d="M1190.82,2743l1.51-6.3s9,1.65,13.83-.86l1.66,2.74S1202.34,2747.52,1190.82,2743Z" transform="translate(-1153.99 -2421.09)"/><path class="c" d="M1213.88,2757.09c0,2.2-.29,4.34-13.24,4.36-4.71,0-10.17-.48-18.15.24-11.81,1.06-18.9-.74-22.68-2.29-3.11-1.27-5.75-2.58-5.81-3.43,0-.13,0-.25,0-.38,0,.44,0,.84,0,1.14.07.84,2.71,2.15,5.82,3.42,3.78,1.55,10.65,3.09,22.5,2.52,8.1-.39,13.63-.46,18.32-.47,13.35,0,13.3-2.29,13.24-4.56C1213.89,2757.47,1213.88,2757.28,1213.88,2757.09Z" transform="translate(-1153.99 -2421.09)"/><path d="M1211.86,2735c-.46-.18-1,.3-1.42,1.26a6.9,6.9,0,0,0-.49,3.3h.06a4.62,4.62,0,0,0-.24,1.83l.64,0a5.51,5.51,0,0,1,.9-3.08,14.37,14.37,0,0,0,.71-1.52C1212.51,2735.44,1212.07,2735.11,1211.86,2735Zm-.45,1.51a12.25,12.25,0,0,1-.68,1.46l-.12.22a6.24,6.24,0,0,1,.43-1.67,2.35,2.35,0,0,1,.55-.86A2.05,2.05,0,0,1,1211.41,2736.54Z" transform="translate(-1153.99 -2421.09)"/><path class="d" d="M1201.9,2756.69c-2.74.1-5,.74-9,1.38a120.65,120.65,0,0,1-14.77,1.59,111.45,111.45,0,0,1-14.18-1.06,37.74,37.74,0,0,1-9.47-2.72l-.34-1.36a4.1,4.1,0,0,1,1.4-1.73c1-.65,3.14-1.18,9-3.05,7.49-2.4,9.92-3.51,13.68-6.38s8.39-5.5,9.68-5.13,3.5,1.89,8,3.34c8.8,2.84,4.14,2.89,10.53.49,2.88-1.08,3-4.58,3.2-3.84a8.29,8.29,0,0,0,1.39,4.9c1.92,2.55,2.49,6.79,2,11.27C1210.18,2756.06,1204.56,2756.61,1201.9,2756.69Z" transform="translate(-1153.99 -2421.09)"/><path class="d" d="M1193.79,2735.08c-.9-1.24-.78-2.56-2.1-3.56-.71-.54-2.46.18-4.75,4a21.72,21.72,0,0,1-5.94,5.83l.21,0a44.79,44.79,0,0,1-9.81,5.52l.45,1c5.7-2.76,10.81-5.58,14.39-7.62,1.56-.56,4,.33,4.92-.18C1194.1,2738.4,1194.37,2735.87,1193.79,2735.08Z" transform="translate(-1153.99 -2421.09)"/><path class="d" d="M1155.07,2755.11a2.07,2.07,0,0,0,1.53,1.62l.7.24h0l.78.25h0c.28.1.56.18.86.27h0l.88.25.07,0c.31.07.61.16.92.24h0l1,.22h.07l.94.19h.08l1,.16a111.45,111.45,0,0,0,14.18,1.06,113.28,113.28,0,0,0,14.77-1.59c3.17-.53,17.46-1.49,20.31-3.15,0-.37-.21-1.75-.18-2.11a25,25,0,0,1-2.62,1.85c-4.16,2.05-17.17,2.48-21.68,3.24a62.76,62.76,0,0,1-27.15-1.37s-5.67-1.93-1.6-4c3.5-1.76,11.85-4.78,11.85-4.78l0-1.11c-12,5.19-12.75,2.8-15.68,4.73-.47.31-1.85,1.57-1.83,2.69C1154.51,2754.11,1154.93,2754.41,1155.07,2755.11Z" transform="translate(-1153.99 -2421.09)"/><path d="M1213.14,2753.13c.36-4.17-.31-7.59-2.12-10a3.9,3.9,0,0,1-.25-.36c-.61.11-.93.6-.12,2,1.44,2.41,1.86,7,1.95,8.67A2.48,2.48,0,0,1,1213.14,2753.13Z" transform="translate(-1153.99 -2421.09)"/><path class="d" d="M1171.1,2750.45s2.75-3.38-1.25-2.51c-1.46.32-13.61,4.36-12.64,6.31.63,1.27.28,1.37,2.89,2.56s14.86,2.34,12.63,1.74c-4.83-1.32-4-3.27-.91-5.85a29.24,29.24,0,0,1,4.38-3.25Z" transform="translate(-1153.99 -2421.09)"/><path class="e" d="M1174.81,2749.73s12.64,9.46,2.29,9.19c0,0,7.44.58,9-.71s-.34-6-6.77-10.91Z" transform="translate(-1153.99 -2421.09)"/><path class="e" d="M1180.52,2746.17s13.16,10.79,5.61,12.22c0,0,5.77.27,7.14-1.25,2.77-3.09-1.77-8.49-8.2-13.41Z" transform="translate(-1153.99 -2421.09)"/><path class="e" d="M1186.33,2743.05s15.68,12.75,7.31,14.6c0,0,7.2.36,8.56-1.17,1.74-1.93-6.76-9.56,1.85-13.12,1.71-.71-11.7-1.27-14.11-3.12Z" transform="translate(-1153.99 -2421.09)"/><path class="f" d="M1211.75,2744.29a8.56,8.56,0,0,0-.73-1.17,1.84,1.84,0,0,1-.17-.25,11.81,11.81,0,0,1-.75-4.47c.09-4.78-2.19-2.16-2.39-1.44-.43,1.6-.47,5.24-7.39,4.92a21.88,21.88,0,0,1-10.55-3.2c-1.93-1.21-2.75-1.21-3-1.14-3.32,1.59-3.75,2.74-6.59,5.05a60.26,60.26,0,0,1-11.3,6.31,4.84,4.84,0,0,0,5,1.61h0l.32-.1h0l.33-.13.07,0,.28-.14.38-.17c4.17-2.17,10.87-6.61,12.52-7.51s5-.38,7.42.38c7,2.24,8.08.21,12.48,1.63,1.53.49,3.48,2.42,4.9,6.35,0,.06-.14-3.52-.08-3.52s-1.66-2.49-1.65-2.49a.43.43,0,0,0,.16,0h0a.56.56,0,0,0,.18-.07h0a1.67,1.67,0,0,0,.16-.12h0A3,3,0,0,0,1211.75,2744.29Z" transform="translate(-1153.99 -2421.09)"/><path class="g" d="M1187.42,2739.4a.67.67,0,1,0,1.33,0,.66.66,0,0,0-.68-.65A.67.67,0,0,0,1187.42,2739.4Z" transform="translate(-1153.99 -2421.09)"/><path class="h" d="M1187.56,2739.4a.53.53,0,1,0,1.06,0,.53.53,0,0,0-1.06,0Z" transform="translate(-1153.99 -2421.09)"/><path class="i" d="M1187.75,2740s-3.11.15-3.69-1.1c0,0,.11-.79.55-.47,1.24.89,1.66.49,3.47.47C1188.08,2738.86,1188.77,2739.75,1187.75,2740Z" transform="translate(-1153.99 -2421.09)"/><path class="g" d="M1183.85,2742.46a.67.67,0,1,0,.72-.61A.66.66,0,0,0,1183.85,2742.46Z" transform="translate(-1153.99 -2421.09)"/><path class="h" d="M1184,2742.48a.53.53,0,0,0,.49.56.52.52,0,0,0,.57-.47.53.53,0,0,0-.48-.59A.55.55,0,0,0,1184,2742.48Z" transform="translate(-1153.99 -2421.09)"/><path class="i" d="M1184.12,2743.05s-3.11-.2-3.55-1.51c0,0,.19-.77.6-.4,1.13,1,1.58.67,3.39.84C1184.56,2742,1185.15,2742.94,1184.12,2743.05Z" transform="translate(-1153.99 -2421.09)"/><path class="g" d="M1180.13,2745a.67.67,0,0,0,1.32.28.67.67,0,0,0-.52-.8A.68.68,0,0,0,1180.13,2745Z" transform="translate(-1153.99 -2421.09)"/><path class="h" d="M1180.28,2745a.53.53,0,0,0,.4.63.54.54,0,0,0,.63-.41.53.53,0,1,0-1-.22Z" transform="translate(-1153.99 -2421.09)"/><path class="i" d="M1180.34,2745.58s-3-.52-3.24-1.87c0,0,.28-.74.64-.32,1,1.14,1.39.8,3.16,1.19C1180.9,2744.58,1181.38,2745.6,1180.34,2745.58Z" transform="translate(-1153.99 -2421.09)"/><path class="g" d="M1176.19,2747.11a.67.67,0,1,0,.87-.37A.67.67,0,0,0,1176.19,2747.11Z" transform="translate(-1153.99 -2421.09)"/><path class="h" d="M1176.32,2747.17a.51.51,0,0,0,.3.68.53.53,0,1,0-.3-.68Z" transform="translate(-1153.99 -2421.09)"/><path class="i" d="M1176.29,2747.76s-2.59-.77-2.63-2.15c0,0,.39-.68.68-.21.79,1.3,1,.78,2.67,1.47C1177,2746.87,1177.31,2748,1176.29,2747.76Z" transform="translate(-1153.99 -2421.09)"/><path class="g" d="M1185.81,2740.87a.69.69,0,0,0,.69.66.68.68,0,0,0,0-1.35A.68.68,0,0,0,1185.81,2740.87Z" transform="translate(-1153.99 -2421.09)"/><path class="h" d="M1186,2740.87a.51.51,0,0,0,.54.51.53.53,0,0,0,0-1.06A.53.53,0,0,0,1186,2740.87Z" transform="translate(-1153.99 -2421.09)"/><path class="g" d="M1185.33,2738s-2,.45-.35,2.25c1.06,1.13,1.41.92,1.54.68s.37-.4-.5-.93C1185,2739.33,1184.89,2738.07,1185.33,2738Z" transform="translate(-1153.99 -2421.09)"/><path class="g" d="M1182.1,2743.73a.67.67,0,0,0,.6.73.67.67,0,1,0,.12-1.33A.66.66,0,0,0,1182.1,2743.73Z" transform="translate(-1153.99 -2421.09)"/><path class="h" d="M1182.23,2743.75a.54.54,0,0,0,.49.57.51.51,0,0,0,.57-.48.53.53,0,0,0-1.06-.09Z" transform="translate(-1153.99 -2421.09)"/><path class="g" d="M1181.92,2740.67s-2.05.35-.58,2.33c.92,1.24,1.29,1.07,1.45.84s.4-.35-.39-1C1181.43,2742.11,1181.48,2740.72,1181.92,2740.67Z" transform="translate(-1153.99 -2421.09)"/><path class="g" d="M1178.25,2746a.67.67,0,0,0,.51.8.69.69,0,0,0,.8-.53.68.68,0,0,0-.52-.79A.67.67,0,0,0,1178.25,2746Z" transform="translate(-1153.99 -2421.09)"/><path class="h" d="M1178.38,2746.06a.53.53,0,1,0,.63-.42A.53.53,0,0,0,1178.38,2746.06Z" transform="translate(-1153.99 -2421.09)"/><path class="g" d="M1178.53,2743.14s-2.17-.08-1,2.07c.77,1.33,1.16,1.21,1.34,1s.45-.3-.27-1C1177.78,2744.32,1178.08,2743.13,1178.53,2743.14Z" transform="translate(-1153.99 -2421.09)"/><path class="g" d="M1174.14,2747.83a.68.68,0,0,0,.38.87.66.66,0,0,0,.87-.37.67.67,0,0,0-1.25-.5Z" transform="translate(-1153.99 -2421.09)"/><path class="h" d="M1174.28,2747.88a.54.54,0,0,0,.29.7.54.54,0,0,0,.69-.3.53.53,0,0,0-.3-.69A.52.52,0,0,0,1174.28,2747.88Z" transform="translate(-1153.99 -2421.09)"/><path class="g" d="M1175.16,2745.08s-2.36-.49-1.52,1.83c.52,1.46.92,1.4,1.14,1.23s.49-.22-.09-1C1174,2746.09,1174.72,2745,1175.16,2745.08Z" transform="translate(-1153.99 -2421.09)"/><path class="i" d="M1185.41,2738.39s6.2-2.57,4.22-5.53-4.12,3.53-4.37,5.18l.39-.07s1.12-4.22,2.45-4.8,1.39.62,1.09,1.17a10.3,10.3,0,0,1-2.9,3.43c-.12.09-.66.11-.78.2S1185.59,2738.28,1185.41,2738.39Z" transform="translate(-1153.99 -2421.09)"/><path class="i" d="M1186,2737.49s1.22-4.34-.93-5.91-3.54-.17-1.61,3.32l1.92,3.49.41-.44a23.7,23.7,0,0,1-2-3.8c-.45-1.37-.79-2.86.22-2.27s1.68,1.15,1.69,3.39c0,1.08-.25,2-.24,2.47s.31.45.31.45Z" transform="translate(-1153.99 -2421.09)"/><path class="j" d="M1185.1,2738.17a6.79,6.79,0,0,1-2.31.61,5,5,0,0,0-3.12,2.12c0,.15-.44.23-.44.23s-.31-.26,0-1,.93-2,3.41-2a7.35,7.35,0,0,0,3.15-.38S1186.45,2738.21,1185.1,2738.17Z" transform="translate(-1153.99 -2421.09)"/><path class="j" d="M1186,2737.7a31.28,31.28,0,0,1-3.35,1.85c-1.28.51-2.76,2.06-3.52,2.15s-.53.68-.53.68.45.29,2.56-1.42,3.14-1.7,3.84-2.18S1186,2738.2,1186,2737.7Z" transform="translate(-1153.99 -2421.09)"/><path class="k" d="M1213.62,2755.08a14.78,14.78,0,0,1-.57-2.27,61.15,61.15,0,0,1-19.65,4.56c-4.06.25-10.61,1.19-15.31,1.26a115.12,115.12,0,0,1-13.83-.59,41.47,41.47,0,0,1-7.54-1.83,1.89,1.89,0,0,1-1.29-1.92c0-1.13-.35-2.24-1-1.1a7.88,7.88,0,0,0-.38,3.14c.07.86,2.7,2.16,5.82,3.43,3.78,1.56,10.77,3.09,22.61,2.52,8.08-.39,13.52-.46,18.21-.46,13.35,0,13.3-2.3,13.24-4.57A9.18,9.18,0,0,0,1213.62,2755.08Z" transform="translate(-1153.99 -2421.09)"/><path class="l" d="M1210.47,2756.54s-8.29,2.29-11.9,2.38c-5.64.12-2.08,1.29,3.75,1.71C1212.16,2761.36,1214.14,2756.26,1210.47,2756.54Z" transform="translate(-1153.99 -2421.09)"/><path class="l" d="M1174.85,2761.7s-10,.31-16.66-3.11c0,0,3.92.56,6.65,1C1174.84,2761.05,1176.09,2758.8,1174.85,2761.7Z" transform="translate(-1153.99 -2421.09)"/><path class="m" d="M1293.34,2483.17s5.14,3.2,3.46,12.47c-1,5.78,17-.19,16.63-2.88-.62-4.75-2.39-10.9-1-15.18C1312.39,2477.58,1301.06,2483.44,1293.34,2483.17Z" transform="translate(-1153.99 -2421.09)"/><path class="m" d="M1328.46,2459.09c-1.85,14.14-7.61,20.85-26.72,24-21.22,3.52-23.3-1.52-25.45-12.44-1.21-6.12-.34-6.09-.6-11.35-.65-13.1,5.69-26.71,5.69-26.71,5.69-5.68,23.39-5.15,31.32-4.12C1327.37,2430.41,1330.65,2442.28,1328.46,2459.09Z" transform="translate(-1153.99 -2421.09)"/><path class="m" d="M1277.15,2448s-4.11,15.2-4.75,16.3-1.36,3.05,2.21,3.47,4.78-1,4.78-1Z" transform="translate(-1153.99 -2421.09)"/><path class="n" d="M1330.51,2449.56c-.53-13.76-8.89-29.75-34-28.39-3.56.19-17.9,3.63-20.1,15.3-.81,4.32,5.66-.82,5.66-.82s.57,4,4.9,1.7c.25-.13.5-.24.77-.35,0,.28,0,.54.09.83,0,0,5.61,18.64,12.77,25.68,5.71,5.6,2.82,13.76,11.36,18,0,0,8.8.46,15-11C1331.55,2462,1330.64,2453,1330.51,2449.56Z" transform="translate(-1153.99 -2421.09)"/><path class="n" d="M1296.67,2428.43c-15.23-3.52-20.4,8.74-20.4,8.74a6.11,6.11,0,0,0,.1,1.55,15.22,15.22,0,0,0,2.17,7c0-.32-.06-.5-.06-.5,13,27,41.73,14.42,41.73,14.42S1316.46,2433,1296.67,2428.43Z" transform="translate(-1153.99 -2421.09)"/><path class="o" d="M1316.19,2445.48c-3.17-6.7-9.13-15.19-19.51-17.59a21.76,21.76,0,0,0-9.42-.28,14.85,14.85,0,0,0-10.26,7.29,4.66,4.66,0,0,0-.84,3.35l.25.91-.25-.91c1.12,8,3.87,10.43,3.74,10.43,9.51,15.83,25,15.34,33.71,13.49a38.8,38.8,0,0,0,6.78-2l.29-.12-.07-.44A54.33,54.33,0,0,0,1316.19,2445.48Zm-39.58-8.32a30.86,30.86,0,0,1,4.74-1.43c12.3-2.6,22.11,4.09,28.19,10.16a62.52,62.52,0,0,1,8.19,10.28c-10.64-11.29-20.65-15.86-27.4-17.69a33.58,33.58,0,0,0-12.77-1.19l.14-.19-1,.31Zm41.41,20.63c-6.71-3.74-26.53-14.62-38.81-19.52a35.22,35.22,0,0,1,11.08,1.3C1297.09,2441.42,1307.26,2446.09,1318,2457.79ZM1278.84,2445l-1.15-4c5.8,9.77,13.32,16.16,22.38,19a35.61,35.61,0,0,0,10.91,1.58C1301.63,2462.93,1287.05,2461.91,1278.84,2445Zm.27-3.29a108.82,108.82,0,0,0,12.23,9.26c6.16,4,14.64,8.39,23,9.25C1305.68,2461.16,1290.49,2459.71,1279.11,2441.69Zm-1.45-2.55v-.35c12.47,4.71,34.66,16.95,40.82,20.4C1300.76,2460.23,1280,2441.27,1277.66,2439.14ZM1310,2445c-6.21-6.22-16.26-13.07-28.85-10.42-.61.13-1.21.28-1.82.45a27.64,27.64,0,0,1,8.83-3.71c8.66-1.83,20.66,1,30,23.9A63.1,63.1,0,0,0,1310,2445Zm-22.08-14.79a28.43,28.43,0,0,0-9.8,4.31,16.34,16.34,0,0,1,9.4-5.84,21.23,21.23,0,0,1,9.17.27c8.07,1.86,14.4,7.57,18.85,17a54.12,54.12,0,0,1,3.11,8.36C1309.05,2431.26,1296.77,2428.38,1287.89,2430.25Z" transform="translate(-1153.99 -2421.09)"/><path class="o" d="M1277.14,2438.63l-.08-.07.1,0Z" transform="translate(-1153.99 -2421.09)"/><path class="m" d="M1308,2735c.89-.93,2.18-3.14,3.28-3.8,10.19-6.06,28.53-10.82,43.24-9.46a219.36,219.36,0,0,0,38.61-.35l6.15,9.58s-14.83,3.92-39.63,8.83c-28.68,5.69-46.37,13.45-57.44,13.91C1298.16,2752.75,1305.53,2737,1308,2735Z" transform="translate(-1153.99 -2421.09)"/><path class="m" d="M1318.87,2739.52c-.29,4.74-14.59,21-23.39,10.79-3.7-7.42-2.38-15-3-21.2-2.91-30.64-10.84-59.1-5.09-92.35,0,0,46.61-3.81,40.93,16.5-7.31,26.14-7.76,52.12-10.11,68.22C1316.7,2732.05,1317,2727.8,1318.87,2739.52Z" transform="translate(-1153.99 -2421.09)"/><path class="m" d="M1386.17,2721.94a18.94,18.94,0,0,0,13.09-6c4.86-5.06,12.75,7.72,15.78,5.93,0,0,10.73,9.18,4.07,12.42-4,2-15.43,9.11-15.41,2.35,0-7.66-15.46-3.11-15.46-3.11Z" transform="translate(-1153.99 -2421.09)"/><path class="m" d="M1317.23,2581.89c4.9-65.53,7.33-74.39-3.9-90.29-8-11.36-15.36,1.86-15.36,1.86a139.11,139.11,0,0,1-14.24,21.56s-11.36,12.07-.59,26.94c2.66,3.69,1.86,30.17,1.78,44.32-.08,13.81-4.43,8.84-.36,43.46.71,6.06,27.09,12.71,27.09,12.71s11.1,4.48,14.26-.74C1345.34,2609.73,1315.73,2601.84,1317.23,2581.89Z" transform="translate(-1153.99 -2421.09)"/><path d="M1192.91,2727.81l12.72-1.62a172.67,172.67,0,0,1,3.52-26.4c3.08-14.45-1-33.14-5.79-44a16.6,16.6,0,0,0-1.92-3.78c-1.67-2.73-15.9-12.44-17.3-8.49-.85,11,4.2,30.07,6.47,59.22C1191.4,2712.82,1192.22,2721.27,1192.91,2727.81Z" transform="translate(-1153.99 -2421.09)"/><path d="M1302.28,2602.43c-32,4.74-71.07,10.85-96.15,21.32-5.7,2.38-12.74,2.9-19.92,11.09-7.29,16.22,6.62,23,11.23,21.9,7.52-.39,10-2.06,23.77-2.88,21.71-1.3,36.26,1.89,63.39,1.13,13.86-.39,22.44-23.7,26.7-39.64Z" transform="translate(-1153.99 -2421.09)"/><path class="p" d="M1384.6,2722a207.39,207.39,0,0,1-30-.32c-14.71-1.36-33,3.4-43.24,9.46-1.1.66-2.39,2.87-3.28,3.8-2.51,2-9.88,17.77-5.79,18.71,11.07-.46,28.76-8.22,57.44-13.91,10.45-2.06,19.1-4,25.64-5.45Z" transform="translate(-1153.99 -2421.09)"/><path class="p" d="M1318.87,2739.52c-.29,4.74-14.59,21-23.39,10.79-3.7-7.42-2.38-15-3-21.2-2.91-30.64-10.84-59.1-5.09-92.35,0,0,46.61-3.81,40.93,16.5-7.31,26.14-7.76,52.12-10.11,68.22C1316.7,2732.05,1317,2727.8,1318.87,2739.52Z" transform="translate(-1153.99 -2421.09)"/><path class="p" d="M1283.29,2599.41c-.68,4.8.36,37.32,2.51,55.63.71,6.06,25.85-12.59,25.85-12.59s13.52,18.85,16,13.29c13.51-29.95,3-48-4.38-56.33Z" transform="translate(-1153.99 -2421.09)"/><path class="o" d="M1337.48,2441.12s-4,15.87-.51,23.45,7.11,11.63,6.21,17.84-2.34,13.53-.92,18.55,2.85,6.3.6,12.23-1.86,11.89-.6,17.22,1.87,11.12.09,16a13.59,13.59,0,0,0,3.13-10.52c-.87-6.28-1.09-13,.55-17.78s2.9-8.22,1.51-14.74.12-10.7,1.59-17.92,3.63-13,1.75-18.79a56.89,56.89,0,0,1-2.78-14.62c-.27-5.67,1.67-16.23-7.47-14.26C1335.71,2438.87,1340.47,2438.88,1337.48,2441.12Z" transform="translate(-1153.99 -2421.09)"/><path class="o" d="M1329.46,2446.84s2.36,2.58,2.79,17.7c.23,8.27,7.12,11.62,6.21,17.83s-2.34,13.53-.92,18.55,2.85,6.31.6,12.23-1.86,11.9-.6,17.23,1.87,11.12.09,16a13.56,13.56,0,0,0,3.13-10.52c-.87-6.27-1.09-13,.55-17.78s2.91-8.22,1.51-14.74.12-10.7,1.59-17.92,3.63-13,1.75-18.78a56.87,56.87,0,0,1-2.77-14.63c-.28-5.67,1.67-16.22-7.47-14.26C1331,2438.83,1332.44,2444.6,1329.46,2446.84Z" transform="translate(-1153.99 -2421.09)"/><path class="o" d="M1344.58,2444.29s2.06,12.79-1.54,20.33-7.29,11.51-6.47,17.73,2.14,13.57.65,18.57-3,6.26-.78,12.23,1.69,11.92.36,17.22-2,11.09-.34,16a13.6,13.6,0,0,1-3-10.56c1-6.27,1.28-13-.29-17.79s-2.78-8.27-1.3-14.77,0-10.7-1.33-17.94-3.44-13-1.48-18.81a56.83,56.83,0,0,0,3-14.58c.36-5.66-1.43-16.24,7.68-14.15C1344.67,2438.93,1341.62,2442,1344.58,2444.29Z" transform="translate(-1153.99 -2421.09)"/><path class="q" d="M1334.76,2466.58c1.24-7.75-6.6-9.53-1.5-24.91,2.41-7.31,7.87-14.06,9.12,4.65,1.1,16.3-5.58,32.46-2.82,57.25.85,7.69,2.37,20,1,26.24s-2.06,13.08-.35,18.91c0,0-6.41-4.59-5-11.81,5.14-27-1.34-12.06-.85-33,.17-7.61-2.59-12.12-2.94-17.05C1330.59,2475.3,1335,2475,1334.76,2466.58Z" transform="translate(-1153.99 -2421.09)"/><path class="n" d="M1346.82,2466.67c-1.12-7.77,8.67-16.67-.79-29.21-6.92-9.17-20.46,0-18.55,3.75.4.77-.25,5.87,1.7,5.63,7.86-.92,17.42,35.84,10.15,59.53-2.17,7.06-.51,17.17.74,23.44s1.87,13.1.08,18.9c0,0,6.47-4.49,5.2-11.73-4.74-27,1.51-12,1.33-33-.06-7.61,2.77-12.09,3.19-17C1350.85,2475.44,1346.42,2475.08,1346.82,2466.67Z" transform="translate(-1153.99 -2421.09)"/><path class="r" d="M1329.37,2446c0,1.46.19,2.71-1.27,2.74h0c-1.46,0-1.15-1.56-1.19-3l-.15-7.27c0-1.46-.38-2.23,1.08-2.26h0c1.45,0,1.35,1.07,1.38,2.53Z" transform="translate(-1153.99 -2421.09)"/><path class="b" d="M1399.81,2733l-6.27,1.27s0-9.51-4.91-12.95l3.49-3S1403.3,2719.52,1399.81,2733Z" transform="translate(-1153.99 -2421.09)"/><path class="c" d="M1399.86,2704.48c1.71-1.39,3.6-2.46,11.63,7.7,2.92,3.69,5.93,8.27,11.44,14.1,8.15,8.61,11.12,15.29,12.24,19.21.93,3.24,1.54,6.12.91,6.7l-.29.24c.35-.27.66-.53.88-.72.62-.58,0-3.45-.92-6.69-1.12-3.93-4.17-10.27-12-19.23-5.32-6.11-8.8-10.4-11.72-14.1-8.28-10.46-10-9-11.78-7.56C1400.16,2704.24,1400,2704.36,1399.86,2704.48Z" transform="translate(-1153.99 -2421.09)"/><path d="M1383.8,2719.74c.14.47.86.6,1.87.33a6.93,6.93,0,0,0,2.9-1.66l0,0a4.82,4.82,0,0,0,1.57-.94l-.43-.49a5.35,5.35,0,0,1-3,1.21,10.77,10.77,0,0,0-1.64.39C1383.73,2719,1383.74,2719.52,1383.8,2719.74Zm1.47-.58a13.59,13.59,0,0,1,1.56-.38l.25,0a6.38,6.38,0,0,1-1.57.69,2.3,2.3,0,0,1-1,.1A2,2,0,0,1,1385.27,2719.16Z" transform="translate(-1153.99 -2421.09)"/><path class="d" d="M1407,2714.13c1.77,2.1,3.66,3.45,6.65,6.21A118,118,0,0,1,1424,2731a108.58,108.58,0,0,1,8,11.78,37.81,37.81,0,0,1,3.73,9.11l-.86,1.11a4,4,0,0,1-2.22,0c-1.11-.37-2.88-1.73-8-5.17-6.52-4.4-8.9-5.62-13.48-6.78s-9.51-3.2-10-4.42-.69-3.93-2.33-8.34c-3.21-8.67-.29-5-6.13-8.58-2.63-1.59-5.44.51-5-.12a8.31,8.31,0,0,0,3-4.12c.83-3.1,3.79-6.17,7.61-8.57C1401.35,2708,1405.27,2712.09,1407,2714.13Z" transform="translate(-1153.99 -2421.09)"/><path class="d" d="M1395,2733.89c-.4,1.47-1.53,2.19-1.49,3.86,0,.88,1.66,1.82,6.06,1.27a22,22,0,0,1,8.25,1l-.15-.15a45.09,45.09,0,0,1,10.42,4.28l.48-1c-5.69-2.77-11.07-5-14.9-6.58-1.39-.88-2.18-3.31-3.18-3.74C1397.45,2731.6,1395.3,2732.94,1395,2733.89Z" transform="translate(-1153.99 -2421.09)"/><path class="d" d="M1434.75,2751.87a2.06,2.06,0,0,0,.32-2.19c-.08-.22-.16-.46-.25-.7,0,0,0,0,0,0-.09-.25-.18-.5-.29-.77v0l-.32-.83a0,0,0,0,1,0,0l-.35-.84,0-.07c-.13-.29-.25-.58-.39-.88h0c-.13-.31-.28-.61-.43-.91,0,0,0,0,0-.06-.14-.29-.29-.57-.44-.86a.25.25,0,0,0,0-.07c-.16-.3-.33-.6-.5-.89a108.58,108.58,0,0,0-8-11.78,110.45,110.45,0,0,0-10.38-10.61c-2.39-2.16-12-12.8-15.06-14-.32.18-1.24,1.24-1.54,1.44a23.49,23.49,0,0,1,3.06.91c4.19,2,12.6,11.94,16,15a62.74,62.74,0,0,1,15.74,22.16s2,5.65-2.11,3.72c-3.55-1.67-11.1-6.35-11.1-6.35l-.83.73c11.52,6.22,10.08,8.28,13.42,9.38.53.18,2.37.48,3.24-.24A1.17,1.17,0,0,1,1434.75,2751.87Z" transform="translate(-1153.99 -2421.09)"/><path d="M1397.22,2707.52c-3.5,2.31-5.77,4.94-6.55,7.88a2.8,2.8,0,0,1-.13.41c.48.41,1,.36,1.62-1.13,1-2.62,4.35-5.81,5.6-6.91A2.61,2.61,0,0,1,1397.22,2707.52Z" transform="translate(-1153.99 -2421.09)"/><path class="d" d="M1421.15,2742.18s-4.35-.07-1.19,2.54c1.16,1,11.86,8,12.79,6,.6-1.28.9-1.07.22-3.85s-7.37-13.12-6.47-11c2,4.61-.09,5.16-4,4.32a29.32,29.32,0,0,1-5.26-1.41Z" transform="translate(-1153.99 -2421.09)"/><path class="e" d="M1418.3,2739.72s-.42-15.79,5.79-7.49c0,0-4.15-6.21-6.15-6.66s-4.49,4-4.37,12.09Z" transform="translate(-1153.99 -2421.09)"/><path class="e" d="M1412,2737.44s.32-17,6.12-12c0,0-3.36-4.69-5.41-4.83-4.14-.25-5.56,6.65-5.43,14.75Z" transform="translate(-1153.99 -2421.09)"/><path class="e" d="M1405.91,2734.82s.3-20.23,6.94-14.78c0,0-4.19-5.88-6.23-6-2.58-.16-3.31,11.25-11.44,6.69-1.62-.91,6.25,10,6.29,13Z" transform="translate(-1153.99 -2421.09)"/><path class="f" d="M1391.14,2714.09a7.88,7.88,0,0,0-.47,1.31c0,.09-.05.19-.08.28a11.86,11.86,0,0,1-3,3.35c-3.81,2.89-.34,3.06.34,2.77,1.53-.66,4.41-2.88,8.45,2.76a22,22,0,0,1,4,10.26c.25,2.26.76,2.9,1,3.06,3.31,1.62,4.48,1.25,8,2a60.16,60.16,0,0,1,12,5,4.82,4.82,0,0,0-1.84-4.93h0a2.83,2.83,0,0,0-.28-.2h0l-.31-.18-.06,0a1.82,1.82,0,0,0-.27-.15,3.36,3.36,0,0,0-.38-.19c-4.27-1.92-11.92-4.44-13.65-5.17s-3.39-3.7-4.29-6.07c-2.61-6.91-4.84-6.47-6.45-10.8-.56-1.51-.26-4.24,1.94-7.79,0-.05-2.68,2.3-2.7,2.25s-.93,2.84-.94,2.83a.36.36,0,0,0-.1-.11s0,0,0,0a.54.54,0,0,0-.18-.11h0l-.19-.06h0A3,3,0,0,0,1391.14,2714.09Z" transform="translate(-1153.99 -2421.09)"/><path class="g" d="M1402.38,2736.21a.67.67,0,1,0-1-.08A.68.68,0,0,0,1402.38,2736.21Z" transform="translate(-1153.99 -2421.09)"/><path class="h" d="M1402.28,2736.1a.53.53,0,0,0,.08-.75.54.54,0,0,0-.82.69A.52.52,0,0,0,1402.28,2736.1Z" transform="translate(-1153.99 -2421.09)"/><path class="i" d="M1402.61,2735.61s2,2.36,1.42,3.58c0,0-.69.4-.71-.14-.07-1.53-.64-1.61-1.78-3C1401.54,2736,1401.81,2734.94,1402.61,2735.61Z" transform="translate(-1153.99 -2421.09)"/><path class="g" d="M1407,2737.13a.67.67,0,1,0-.93-.19A.69.69,0,0,0,1407,2737.13Z" transform="translate(-1153.99 -2421.09)"/><path class="h" d="M1406.91,2737a.53.53,0,1,0-.59-.88.53.53,0,0,0,.59.88Z" transform="translate(-1153.99 -2421.09)"/><path class="i" d="M1407.28,2736.55s1.77,2.56,1,3.71c0,0-.72.33-.68-.21.1-1.52-.46-1.66-1.43-3.19C1406.18,2736.86,1406.56,2735.8,1407.28,2736.55Z" transform="translate(-1153.99 -2421.09)"/><path class="g" d="M1411.24,2738.48a.66.66,0,0,0,.31-.89.67.67,0,1,0-1.2.6A.65.65,0,0,0,1411.24,2738.48Z" transform="translate(-1153.99 -2421.09)"/><path class="h" d="M1411.18,2738.36a.53.53,0,0,0,.25-.71.54.54,0,0,0-.72-.23.52.52,0,0,0-.24.7A.53.53,0,0,0,1411.18,2738.36Z" transform="translate(-1153.99 -2421.09)"/><path class="i" d="M1411.61,2738s1.43,2.64.54,3.7c0,0-.76.24-.65-.3.28-1.5-.23-1.59-1-3.23C1410.47,2738.12,1411,2737.12,1411.61,2738Z" transform="translate(-1153.99 -2421.09)"/><path class="g" d="M1415.38,2740.25a.66.66,0,0,0,.45-.84.67.67,0,1,0-1.28.39A.67.67,0,0,0,1415.38,2740.25Z" transform="translate(-1153.99 -2421.09)"/><path class="h" d="M1415.35,2740.12a.53.53,0,0,0-.31-1,.53.53,0,0,0-.36.66A.55.55,0,0,0,1415.35,2740.12Z" transform="translate(-1153.99 -2421.09)"/><path class="i" d="M1415.83,2739.78s1,2.51,0,3.39c0,0-.79.11-.6-.4.53-1.43,0-1.27-.5-3C1414.68,2739.76,1415.35,2738.86,1415.83,2739.78Z" transform="translate(-1153.99 -2421.09)"/><path class="g" d="M1404.52,2736.56a.66.66,0,0,0,.09-.94.67.67,0,1,0-1,.86A.66.66,0,0,0,1404.52,2736.56Z" transform="translate(-1153.99 -2421.09)"/><path class="h" d="M1404.43,2736.46a.53.53,0,0,0-.68-.82.54.54,0,0,0-.06.75A.52.52,0,0,0,1404.43,2736.46Z" transform="translate(-1153.99 -2421.09)"/><path class="g" d="M1402.54,2738.75s1.61,1.3,2-1.13c.24-1.52-.13-1.67-.41-1.63s-.54,0-.42,1C1403.82,2738.17,1402.88,2739,1402.54,2738.75Z" transform="translate(-1153.99 -2421.09)"/><path class="g" d="M1409.08,2737.71a.67.67,0,0,0-.74-1.12.68.68,0,0,0-.19.93A.66.66,0,0,0,1409.08,2737.71Z" transform="translate(-1153.99 -2421.09)"/><path class="h" d="M1409,2737.59a.53.53,0,1,0-.58-.88.51.51,0,0,0-.15.73A.52.52,0,0,0,1409,2737.59Z" transform="translate(-1153.99 -2421.09)"/><path class="g" d="M1406.77,2739.74s1.55,1.4,2.19-1c.41-1.49,0-1.68-.23-1.66s-.53-.1-.52.91C1408.21,2739.24,1407.08,2740.06,1406.77,2739.74Z" transform="translate(-1153.99 -2421.09)"/><path class="g" d="M1413.25,2739.32a.67.67,0,1,0-.89-.3A.67.67,0,0,0,1413.25,2739.32Z" transform="translate(-1153.99 -2421.09)"/><path class="h" d="M1413.19,2739.2a.55.55,0,0,0,.24-.72.52.52,0,0,0-.71-.24.53.53,0,0,0-.24.71A.54.54,0,0,0,1413.19,2739.2Z" transform="translate(-1153.99 -2421.09)"/><path class="g" d="M1410.81,2740.88s1.28,1.75,2.21-.54c.58-1.43.24-1.66,0-1.68s-.51-.16-.63.85C1412.21,2740.73,1411.09,2741.24,1410.81,2740.88Z" transform="translate(-1153.99 -2421.09)"/><path class="g" d="M1417.22,2741.41a.67.67,0,0,0,.45-.83.66.66,0,0,0-.83-.45.67.67,0,1,0,.38,1.28Z" transform="translate(-1153.99 -2421.09)"/><path class="h" d="M1417.17,2741.28a.53.53,0,1,0-.29-1,.53.53,0,0,0-.36.66A.52.52,0,0,0,1417.17,2741.28Z" transform="translate(-1153.99 -2421.09)"/><path class="g" d="M1414.43,2742.32s1.08,2.16,2.37.06c.82-1.31.53-1.59.26-1.66s-.48-.25-.77.72C1416,2742.63,1414.64,2742.72,1414.43,2742.32Z" transform="translate(-1153.99 -2421.09)"/><path class="i" d="M1402.82,2738.43s-5.85-3.28-7,.1,5.32,1.06,6.78.22l-.31-.26s-4,1.73-5.28,1.06-.37-1.48.24-1.58a10.19,10.19,0,0,1,4.5.14c.14,0,.48.45.63.5S1402.61,2738.35,1402.82,2738.43Z" transform="translate(-1153.99 -2421.09)"/><path class="i" d="M1401.73,2738.48s-4.15,1.74-4.06,4.4,2,2.89,3.61-.79l1.54-3.66-.59-.07a24.16,24.16,0,0,1-1.77,3.9c-.8,1.2-1.76,2.4-1.93,1.24s-.12-2,1.62-3.43c.84-.67,1.74-1.05,2.09-1.34s.16-.53.16-.53Z" transform="translate(-1153.99 -2421.09)"/><path class="j" d="M1402.85,2738.8a6.93,6.93,0,0,1,1.91,1.44,5,5,0,0,0,3.59,1.13c.1-.1.45.2.45.2s0,.41-.74.61-2.17.53-3.69-1.43-2.25-2.23-2.25-2.23S1402,2737.71,1402.85,2738.8Z" transform="translate(-1153.99 -2421.09)"/><path class="j" d="M1401.94,2738.41a32.18,32.18,0,0,1,3.53,1.49c1.2.69,3.33.9,3.87,1.44s.86,0,.86,0,0-.54-2.71-1.14-3.27-1.41-4.08-1.66S1402.31,2738.07,1401.94,2738.41Z" transform="translate(-1153.99 -2421.09)"/><path class="k" d="M1398.45,2705.94a15,15,0,0,1-1.42,1.85,61.22,61.22,0,0,1,15.74,12.6c2.72,3,7.52,7.6,10.49,11.24a114.71,114.71,0,0,1,8.09,11.22,41.91,41.91,0,0,1,3.24,7.05,1.92,1.92,0,0,1-.71,2.21c-.88.71-1.55,1.65-.23,1.48a7.93,7.93,0,0,0,2.7-1.65c.63-.59,0-3.45-.91-6.69-1.13-3.93-4.25-10.37-12-19.31-5.31-6.11-8.74-10.33-11.65-14-8.28-10.47-10-9-11.78-7.57A9.18,9.18,0,0,0,1398.45,2705.94Z" transform="translate(-1153.99 -2421.09)"/><path class="l" d="M1401.55,2707.49s6.93,5.1,9.23,7.88c3.6,4.34,2.31.84-1-4C1404.29,2703.2,1399.06,2704.8,1401.55,2707.49Z" transform="translate(-1153.99 -2421.09)"/><path class="l" d="M1427.66,2732.27s6.43,7.65,7.88,15l-3.35-5.83C1427.16,2732.67,1424.62,2733.09,1427.66,2732.27Z" transform="translate(-1153.99 -2421.09)"/><path class="s" d="M1317.23,2581.89c4.09-54.57,6.45-69.84.63-82.61-1-2.13-13.09-10.63-18.88-2.24-4.1,5.93-9,14.76-15.22,17.95l0,0s-11.36,12.07-.59,26.94c2.66,3.69,1.86,30.17,1.78,44.32,0,2.72-.15,5.13-.33,7.52a158.89,158.89,0,0,0,16.74.1c6.47.42,13.55,0,18.71-.13C1318.75,2590,1316.91,2586.11,1317.23,2581.89Zm-3.8-56.95-15.46-.15s-6.89-20.88,4.51-29.41C1321.34,2489.7,1313.43,2524.94,1313.43,2524.94Z" transform="translate(-1153.99 -2421.09)"/><polygon class="t" points="171.93 181.54 128.3 181.54 130.1 173.82 167.81 173.82 171.93 181.54"/><path class="m" d="M1321.85,2576.87a12.63,12.63,0,0,1,.68,3.08c.84,5.84-3.11,20.61-7,33.05-3.27,10.47-4.48,25.11-4.48,25.11l-10.26-2.35s2-11.36,4.13-29.07c2-16.72,5.22-26.63,7.51-34.7C1314,2569.27,1321.17,2574.6,1321.85,2576.87Z" transform="translate(-1153.99 -2421.09)"/><path class="m" d="M1322.52,2578.83c.22,3.6-10.55,5.06-11.87-.72-1.83-14.8-21.67-74.59-7.13-79.81,0,0,8.93-3,11.38,12.77,1.73,11.16,4.61,31.15,5.11,39.26C1320.36,2555.94,1321.6,2574,1322.52,2578.83Z" transform="translate(-1153.99 -2421.09)"/><path class="u" d="M1316.86,2646.23a4,4,0,0,0-2.95-1.33h-16.78a3.93,3.93,0,0,0-2.94,1.33,3.86,3.86,0,0,0-.72,3.37c.43,2.35,2.17,13.72,2.24,13.91l.26.65,3.25-1.28-.26-.65s-1.7-11.26-2.06-13.26a1.81,1.81,0,0,1,0-.49.52.52,0,0,1,.27-.1h16.74a1.53,1.53,0,0,1,.29.06,1.07,1.07,0,0,1,0,.53c-.38,2-2.06,13.22-2.07,13.26l-.26.65,3.26,1.28.24-.65c.08-.19,1.83-11.56,2.26-13.91A3.93,3.93,0,0,0,1316.86,2646.23Z" transform="translate(-1153.99 -2421.09)"/><path class="m" d="M1296.38,2651.73a10.28,10.28,0,0,0,2.33-3.83,3.69,3.69,0,0,1,.66,2.43h3.15l.16-1.17-.11,1.17h3.66c0-.66,0-1.06,0-1.06s0,.39,0,1.06H1310c0-.63,0-1.1,0-1.35a9.2,9.2,0,0,0,.25,1.35h2.9c-.13-.73.52-2.57.37-3.59-.79-5.37-1.73-5.38-2.41-8.63-.81-3.84-.09-16.76-.09-16.76l-7.73-1.46s-1.19,14.06-2.49,16.24-4.29,1.88-6.25,10.7c-.28,1.24-1,3.92-.21,4.81S1296.38,2651.73,1296.38,2651.73Z" transform="translate(-1153.99 -2421.09)"/><path class="m" d="M1300.5,2641.27c8-.58,9.72-4.33,11.49-.64s1.94,11,1.47,12.94a1.15,1.15,0,0,1-1.25.75,2.12,2.12,0,0,1-1.39-.41c-.25-.25-.09-1.28-.09-1.28h0s.17.23-.59,2.39c-.17.5-1.08.84-1.65.84s-2.49,0-2.75-.77c-.56-1.73-.12-1.57-.22-1.76,0,0,.37-1.07,0,1.44-.12.77-1.27,1.16-2,1.09s-1.73-.2-1.93-1a13.24,13.24,0,0,1-.22-2.7,3.21,3.21,0,0,1,0,2.67c-.15.47-1.15.52-1.82.52a2,2,0,0,1-1.68-1.18,30.46,30.46,0,0,1-.42-5.66S1296.63,2641.54,1300.5,2641.27Z" transform="translate(-1153.99 -2421.09)"/><path class="k" d="M1323.18,2675.1a17.66,17.66,0,1,1-17.66-17.65A17.66,17.66,0,0,1,1323.18,2675.1Z" transform="translate(-1153.99 -2421.09)"/></svg>